<?xml version="1.0" encoding="UTF-8" standalone="no"?>
<svg
   xmlns:dc="http://purl.org/dc/elements/1.1/"
   xmlns:cc="http://creativecommons.org/ns#"
   xmlns:rdf="http://www.w3.org/1999/02/22-rdf-syntax-ns#"
   xmlns:svg="http://www.w3.org/2000/svg"
   xmlns="http://www.w3.org/2000/svg"
   viewBox="0 0 972.47198 951.98267"
   height="951.98267"
   width="972.47198"
   xml:space="preserve"
   id="svg2"
   version="1.1"><metadata
     id="metadata8"><rdf:RDF><cc:Work
         rdf:about=""><dc:format>image/svg+xml</dc:format><dc:type
           rdf:resource="http://purl.org/dc/dcmitype/StillImage" /></cc:Work></rdf:RDF></metadata><defs
     id="defs6"><clipPath
       id="clipPath18"
       clipPathUnits="userSpaceOnUse"><path
         id="path16"
         d="M 0,713.987 H 729.354 V 0 H 0 Z" /></clipPath></defs><g
     transform="matrix(1.3333333,0,0,-1.3333333,0,951.98267)"
     id="g10"><g
       id="g12"><g
         clip-path="url(#clipPath18)"
         id="g14"><g
           transform="translate(472.4721,198.2896)"
           id="g20"><path
             id="path22"
             style="fill:#76c2a9;fill-opacity:1;fill-rule:nonzero;stroke:none"
             d="m 0,0 c 0,0 28.582,81.388 93.707,148.73 27.544,28.482 57.918,48.852 67.604,47.109 23.846,-4.291 48.028,-59.044 48.028,-59.044 -13.305,-9.391 -18.654,-54.925 -18.654,-54.925 0,0 15.026,45.08 29.017,50.262 13.99,5.181 39.51,-93.787 -11.4,-136.795 C 197.051,-13.661 185.372,5.7 178.767,16.581 160.73,46.295 158.04,114.515 158.04,114.515 146.641,29.018 184.467,-8.29 184.984,-8.953 c 0.519,-0.663 2.744,-36.356 -21.762,-54.78 -13.685,-10.29 -124.987,-24.692 -255.218,26.779 -116.162,45.91 -167.365,114.745 -167.365,114.745 10.25,-1.758 34.175,9.994 97.565,99.292 10.885,15.333 78.631,103.762 148.151,105.834 100.76,3.005 169.565,-72.119 155.104,-78.761 C 26.945,151.563 -0.915,17.264 -1.554,0 -1.899,-9.327 0,0 0,0" /></g><g
           transform="translate(49.6674,312.1383)"
           id="g24"><path
             id="path26"
             style="fill:#a9e9a4;fill-opacity:1;fill-rule:nonzero;stroke:none"
             d="m 0,0 c -18.851,-90.813 -7.634,-180.861 102.596,-229.999 86.015,-38.345 270.907,18.174 571.546,-82.039 2.7,-0.9 7.537,4.392 4.663,11.399 -6.284,15.318 -28.122,42.157 -39.381,53.889 -32.745,34.125 -62.834,49.9 -69.631,53.776 0,0 -68.475,-12.675 -165.806,7.54 -74.01,15.372 -133.9,47.155 -182.359,80.71 -38.519,26.673 -63.004,60.151 -69.369,62.637 -30.643,11.969 -47.677,135.445 -45.517,181.538 6.563,140.077 103.805,245.61 88.433,252 -8.527,3.545 -87.41,-126.478 -127.814,-127.64 C -4.664,261.737 -39.802,408.089 -48.708,401.642 -60.402,393.176 39.38,189.713 0,0" /></g></g></g></g></svg>