<?xml version="1.0" standalone="no"?>
<!DOCTYPE svg PUBLIC "-//W3C//DTD SVG 1.1//EN" "http://www.w3.org/Graphics/SVG/1.1/DTD/svg11.dtd" >
<svg xmlns="http://www.w3.org/2000/svg" xmlns:xlink="http://www.w3.org/1999/xlink" version="1.1">
<metadata>
Created by FontForge 20201107 at Tue Dec 19 02:34:09 2023
 By 
Copyright (c) 2015, Andreas Larsen (&#60;andreaslarsen.dk|mail@andreaslarsen.dk&#62;)
</metadata>
<defs>
<font id="Gidolinya-Regular" horiz-adv-x="962" >
  <font-face 
    font-family="Gidolinya"
    font-weight="400"
    font-stretch="normal"
    units-per-em="2048"
    panose-1="2 0 5 3 0 0 0 0 0 0"
    ascent="1638"
    descent="-410"
    x-height="979"
    cap-height="1364"
    bbox="-143 -475 2523 1808"
    underline-thickness="102"
    underline-position="-307"
    unicode-range="U+0020-FB02"
  />
<missing-glyph horiz-adv-x="1024" 
d="M102 0v1092h820v-1092h-820zM205 102h614v887h-614v-887z" />
    <glyph glyph-name=".notdef" horiz-adv-x="1024" 
d="M102 0v1092h820v-1092h-820zM205 102h614v887h-614v-887z" />
    <glyph glyph-name=".null" horiz-adv-x="0" 
 />
    <glyph glyph-name="nonmarkingreturn" horiz-adv-x="682" 
 />
    <glyph glyph-name="space" unicode=" " horiz-adv-x="512" 
 />
    <glyph glyph-name="exclam" unicode="!" horiz-adv-x="532" 
d="M266 197q46 0 75.5 -29.5t29.5 -75.5t-29.5 -75t-75.5 -29t-75 29t-29 75t29 75.5t75 29.5zM188 1364h152v-397q0 -164 -5 -319.5t-11 -228.5l-5 -73h-110q-21 253 -21 621v397z" />
    <glyph glyph-name="quotedbl" unicode="&#x22;" horiz-adv-x="741" 
d="M430 1272q0 47 29.5 75.5t75.5 28.5t75 -28.5t29 -75.5q0 -28 -29 -111l-82 -229h-92l60 242q-29 9 -47.5 36t-18.5 62zM102 1272q0 47 29.5 75.5t75.5 28.5t75 -28.5t29 -75.5q0 -31 -28 -111l-82 -229h-92l59 242q-29 9 -47.5 36t-18.5 62z" />
    <glyph glyph-name="numbersign" unicode="#" horiz-adv-x="1249" 
d="M483 1364h131l-82 -385h308l82 385h131l-82 -385h166v-117h-191l-74 -356h193v-117h-217l-82 -389h-131l82 389h-307l-82 -389h-131l82 389h-166v117h190l74 356h-193v117h217zM815 862h-307l-74 -356h307z" />
    <glyph glyph-name="dollar" unicode="$" horiz-adv-x="1087" 
d="M479 1507h111v-133q187 -13 338 -106l-82 -119q-112 66 -256 82v-455q180 -48 276 -137q119 -114 119 -270q0 -84 -37 -160t-102 -127q-105 -82 -256 -92v-133h-111v133q-219 16 -389 139l90 115q130 -95 299 -111v522q-160 40 -248 113q-129 109 -129 270q0 72 32 137.5
t87 110.5q57 45 128.5 65.5t129.5 22.5v133zM479 1231q-99 -3 -162 -55q-35 -31 -49 -70t-14 -68q0 -95 78 -161q54 -46 147 -72v426zM590 627v-494q111 13 172 72q72 69 72 164q0 36 -16.5 82t-55.5 84q-35 34 -70 51.5t-102 40.5z" />
    <glyph glyph-name="percent" unicode="%" horiz-adv-x="1417" 
d="M1049 604q118 0 188 -84q27 -33 40 -74t15 -69t2 -82q0 -53 -2 -80.5t-15 -68.5t-40 -74q-70 -84 -188 -84q-58 0 -107.5 23t-81.5 61q-27 33 -40 74t-15 68.5t-2 80.5q0 54 2 82t15 69t40 74q32 38 81.5 61t107.5 23zM1049 485q-64 0 -99 -47q-12 -17 -17.5 -40.5
t-6 -40.5t-0.5 -62q0 -44 0.5 -61t6 -40t17.5 -40q36 -48 99 -48q62 0 98 48q12 17 17.5 40t6 40t0.5 61q0 45 -0.5 62t-6 40.5t-17.5 40.5q-35 47 -98 47zM369 1376q118 0 188 -84q27 -33 40 -74t15 -69t2 -82q0 -53 -2 -80.5t-15 -68.5t-40 -74q-70 -84 -188 -84
q-58 0 -107.5 23t-81.5 61q-27 33 -40 74t-15 68.5t-2 80.5q0 54 2 82t15 69t40 74q32 38 81.5 61t107.5 23zM369 1257q-64 0 -99 -47q-12 -17 -17.5 -40.5t-6 -40.5t-0.5 -62q0 -44 0.5 -61t6 -40t17.5 -40q35 -47 99 -47q63 0 98 47q17 24 21 53t4 88q0 42 -1 61.5
t-6.5 42t-17.5 39.5q-35 47 -98 47zM995 1364h152l-737 -1364h-152z" />
    <glyph glyph-name="ampersand" unicode="&#x26;" horiz-adv-x="1314" 
d="M639 631q-115 0 -172 -9.5t-105 -48.5q-40 -34 -64 -86t-24 -110q0 -109 76 -178q74 -68 207 -68q76 0 144 23t112 65q-4 19 -4 115v297h-170zM639 774h170v205h152v-205h221v-143h-221v-295q0 -63 1 -85.5t7 -47t20 -39.5q30 -33 92 -33q52 0 107 25l65 -131
q-85 -37 -172 -37q-141 0 -213 94q-123 -94 -311 -94q-183 0 -301 98q-61 49 -97 125t-36 166q0 101 47.5 189t136.5 141q-79 51 -119.5 130.5t-40.5 170.5q0 169 125 274q113 94 283 94q193 0 328 -104l-90 -115q-98 76 -236 76q-112 0 -178 -53q-80 -64 -80 -172
q0 -54 21.5 -102t58.5 -79q30 -25 70.5 -37t76 -14t113.5 -2z" />
    <glyph glyph-name="quotesingle" unicode="'" horiz-adv-x="413" 
d="M102 1272q0 47 29.5 75.5t75.5 28.5t75 -28.5t29 -75.5q0 -31 -28 -111l-82 -229h-92l59 242q-29 9 -47.5 36t-18.5 62z" />
    <glyph glyph-name="parenleft" unicode="(" horiz-adv-x="655" 
d="M287 610q0 -337 12.5 -477t69.5 -248q67 -131 200 -190l-49 -105q-85 36 -152.5 100.5t-109.5 145.5q-65 122 -79.5 274t-14.5 500t14.5 498.5t79.5 273.5q42 81 109.5 145.5t152.5 100.5l49 -104q-132 -59 -200 -191q-57 -108 -69.5 -247.5t-12.5 -475.5z" />
    <glyph glyph-name="parenright" unicode=")" horiz-adv-x="655" 
d="M369 610q0 336 -12.5 475.5t-69.5 247.5q-67 132 -201 191l49 104q85 -36 152.5 -100.5t109.5 -145.5q65 -123 80 -275t15 -497q0 -346 -15 -498.5t-80 -275.5q-42 -81 -109.5 -145.5t-152.5 -100.5l-49 105q134 59 201 190q57 108 69.5 248t12.5 477z" />
    <glyph glyph-name="asterisk" unicode="*" horiz-adv-x="720" 
d="M307 1366h107l-6 -186l178 63l32 -102l-180 -51l115 -148l-86 -63l-107 153l-106 -153l-84 61l113 150l-181 53l33 102l178 -65z" />
    <glyph glyph-name="plus" unicode="+" horiz-adv-x="1064" 
d="M164 571h307v310h123v-310h307v-118h-307v-310h-123v310h-307v118z" />
    <glyph glyph-name="comma" unicode="," horiz-adv-x="413" 
d="M102 92q0 47 29.5 76t75.5 29t75 -29t29 -76q0 -30 -28 -110l-82 -230h-92l59 242q-29 9 -47.5 36t-18.5 62z" />
    <glyph glyph-name="hyphen" unicode="-" horiz-adv-x="757" 
d="M164 571h430v-118h-430v118z" />
    <glyph glyph-name="period" unicode="." horiz-adv-x="413" 
d="M207 197q46 0 75 -29.5t29 -75.5t-29 -75t-75 -29t-75.5 29t-29.5 75t29.5 75.5t75.5 29.5z" />
    <glyph glyph-name="slash" unicode="/" horiz-adv-x="700" 
d="M532 1516h127l-491 -1811h-127z" />
    <glyph glyph-name="zero" unicode="0" horiz-adv-x="1093" 
d="M547 1233q-55 0 -110 -19.5t-91 -64.5q-29 -36 -43 -87.5t-16 -95t-2 -137.5v-294q0 -94 2 -137.5t16 -95t43 -87.5q36 -45 91 -64.5t110 -19.5t110 19.5t91 64.5q29 36 43 87.5t16 95t2 137.5v294q0 94 -2 137.5t-16 95t-43 87.5q-36 45 -91 64.5t-110 19.5zM547 1376
q94 0 179.5 -35t143.5 -108q32 -41 52 -85t27.5 -101.5t9.5 -99t2 -118.5v-294q0 -77 -2 -118.5t-9.5 -99t-27.5 -101.5t-52 -85q-58 -73 -143.5 -108t-179.5 -35t-180 35t-144 108q-32 41 -51.5 85t-27.5 102t-9.5 98t-1.5 119v294q0 79 1.5 119t9.5 98t27.5 102t51.5 85
q58 73 144 108t180 35z" />
    <glyph glyph-name="one" unicode="1" horiz-adv-x="739" 
d="M535 1049v-1049h-152v1049q0 74 -5.5 105t-29.5 50q-17 13 -44.5 16t-90.5 3h-29v143h29q59 0 90 -2t74.5 -15t75.5 -40q29 -26 47 -55t25 -67t8.5 -63.5t1.5 -74.5z" />
    <glyph glyph-name="two" unicode="2" horiz-adv-x="1054" 
d="M483 1376q162 0 273 -84q62 -47 99.5 -124t37.5 -164q0 -106 -45 -181t-146 -176l-311 -313q-79 -79 -93 -101q-15 -22 -15 -45q0 -25 22 -36q16 -9 123 -9h504v-143h-524q-50 0 -72.5 1t-51 6.5t-51.5 17.5q-46 23 -74 65t-28 98q0 63 34.5 113t115.5 131l311 313
q85 87 117 138t32 121q0 50 -20.5 97.5t-58.5 78.5q-64 53 -179 53q-141 0 -235 -76l-90 115q133 104 325 104z" />
    <glyph glyph-name="three" unicode="3" horiz-adv-x="995" 
d="M154 1364h413q45 0 68 -1.5t56.5 -7.5t58 -21t45.5 -40q41 -48 41 -112q0 -39 -17.5 -78t-34.5 -61.5t-63 -77.5l-135 -162q99 -19 172 -86q125 -115 125 -314q0 -194 -125 -309q-115 -106 -309 -106q-211 0 -347 114l95 113q43 -39 110.5 -61.5t141.5 -22.5
q130 0 202 66q80 73 80 206q0 139 -80 211q-43 39 -98.5 48.5t-171.5 9.5v116l225 271q35 42 46.5 56.5t21.5 33t10 33.5q0 18 -14 28q-17 11 -123 11h-393v143z" />
    <glyph glyph-name="four" unicode="4" horiz-adv-x="1075" 
d="M680 1364l-354 -659q-59 -110 -66 -135q-4 -14 -4 -29q0 -20 10 -35q11 -17 34 -21t89 -4h313v344h144v-344h117v-143h-117v-338h-144v338h-292q-63 0 -86.5 0.5t-54.5 6t-54 17.5q-49 25 -80 71t-31 108q0 34 14 76t24.5 63t39.5 76l328 608h170z" />
    <glyph glyph-name="five" unicode="5" horiz-adv-x="1007" 
d="M158 989v58q0 49 1.5 74.5t8.5 63.5t25 67t47 55q32 27 75 40t74 15t90 2h342v-143h-342q-63 0 -90.5 -3t-44.5 -16q-24 -19 -29.5 -50t-5.5 -105v-58q0 -69 5.5 -96.5t23.5 -44.5q33 -29 106 -29q115 0 195.5 -23.5t140.5 -78.5q125 -115 125 -311q0 -197 -125 -312
q-115 -106 -309 -106q-215 0 -348 112l94 113q94 -82 254 -82q131 0 203 66q80 74 80 209t-80 208q-41 37 -96.5 49.5t-141.5 12.5q-121 0 -194 61q-30 25 -48.5 54t-25.5 66t-8.5 61.5t-1.5 70.5z" />
    <glyph glyph-name="six" unicode="6" horiz-adv-x="1024" 
d="M770 420q0 132 -65 207q-68 82 -193 82t-193 -82q-65 -75 -65 -207t65 -207q68 -82 193 -82t193 82q65 75 65 207zM102 420q0 96 30.5 184t125.5 270l254 490h168l-277 -533q46 21 109 21q96 0 176 -36.5t135 -98.5q99 -114 99 -297t-99 -297q-55 -62 -135 -98.5
t-176 -36.5t-176 36.5t-135 98.5q-99 114 -99 297z" />
    <glyph glyph-name="seven" unicode="7" horiz-adv-x="1024" 
d="M211 0l481 991q40 81 53 113.5t13 56.5q0 29 -21 47q-12 9 -35.5 11t-93.5 2h-495v143h516q54 0 83 -2t69.5 -15.5t68.5 -41.5q59 -59 59 -144q0 -33 -12.5 -74t-25 -68t-42.5 -89l-452 -930h-166z" />
    <glyph glyph-name="eight" unicode="8" horiz-adv-x="1069" 
d="M535 1233q-90 0 -152 -43q-44 -30 -69 -78.5t-25 -107.5q0 -122 94 -187q63 -43 152 -43q88 0 151 43q94 65 94 187q0 59 -25 107.5t-69 78.5q-62 43 -151 43zM535 1376q155 0 264 -88q61 -50 97 -122.5t36 -161.5q0 -95 -44.5 -173t-117.5 -126q84 -48 135 -132t51 -192
q0 -95 -40 -174t-105 -129q-117 -90 -276 -90q-160 0 -277 90q-65 50 -105 129t-40 174q0 108 51 192t135 132q-73 48 -117.5 126t-44.5 173q0 89 36 161.5t97 122.5q109 88 265 88zM535 631q-106 0 -181 -58q-90 -72 -90 -192q0 -121 90 -193q74 -57 181 -57q106 0 180 57
q90 72 90 193q0 120 -90 192q-75 58 -180 58z" />
    <glyph glyph-name="nine" unicode="9" horiz-adv-x="1024" 
d="M512 1233q-125 0 -193 -82q-65 -75 -65 -207t65 -207q68 -82 193 -82t193 82q65 75 65 207t-65 207q-68 82 -193 82zM512 1376q96 0 176 -36.5t135 -98.5q99 -114 99 -297q0 -96 -30.5 -184.5t-125.5 -270.5l-254 -489h-168l277 532q-44 -20 -109 -20q-96 0 -176 36.5
t-135 98.5q-99 114 -99 297t99 297q55 62 135 98.5t176 36.5z" />
    <glyph glyph-name="colon" unicode=":" horiz-adv-x="413" 
d="M207 197q46 0 75 -29.5t29 -75.5t-29 -75t-75 -29t-75.5 29t-29.5 75t29.5 75.5t75.5 29.5zM207 788q46 0 75 -29t29 -75t-29 -75t-75 -29t-75.5 29t-29.5 75t29.5 75t75.5 29z" />
    <glyph glyph-name="semicolon" unicode=";" horiz-adv-x="413" 
d="M102 92q0 47 29.5 76t75.5 29t75 -29t29 -76q0 -30 -28 -110l-82 -230h-92l59 242q-29 9 -47.5 36t-18.5 62zM207 788q46 0 75 -29t29 -75t-29 -75t-75 -29t-75.5 29t-29.5 75t29.5 75t75.5 29z" />
    <glyph glyph-name="less" unicode="&#x3c;" horiz-adv-x="1064" 
d="M920 807l-598 -295l598 -295l-58 -106l-698 348v106l698 348z" />
    <glyph glyph-name="equal" unicode="=" horiz-adv-x="1064" 
d="M164 711h737v-119h-737v119zM164 432h737v-119h-737v119z" />
    <glyph glyph-name="greater" unicode="&#x3e;" horiz-adv-x="1064" 
d="M145 807l58 106l698 -348v-106l-698 -348l-58 106l598 295z" />
    <glyph glyph-name="question" unicode="?" horiz-adv-x="960" 
d="M438 197q46 0 75.5 -29.5t29.5 -75.5t-29.5 -75t-75.5 -29t-75 29t-29 75t29 75.5t75 29.5zM428 1376q161 0 272 -84q62 -47 100 -123.5t38 -164.5q0 -173 -136 -285q-19 -16 -70 -50t-78.5 -62.5t-41.5 -69.5q-12 -35 -14 -95l-4 -96h-111q-4 76 -4 113q0 57 10 106
t39 93t53 66t67.5 56t53.5 43q84 74 84 181q0 111 -80 176q-64 53 -178 53q-141 0 -235 -76l-91 115q133 104 326 104z" />
    <glyph glyph-name="at" unicode="@" horiz-adv-x="1740" 
d="M1217 545v-135q0 -66 -1.5 -98t-7.5 -77.5t-21.5 -78t-41.5 -62.5q-90 -106 -281 -106q-154 0 -248 67q-54 38 -88 99t-34 137q0 77 33 137t87 98q44 32 103.5 49t95 19t92.5 2h168q0 41 -2.5 68.5t-21.5 72.5t-56 74q-40 32 -96.5 39.5t-181.5 7.5q-77 0 -114 -1.5
t-88 -10.5t-86 -30t-65 -56q-27 -31 -42.5 -66t-22 -87t-7.5 -86.5t-1 -110.5v-209q0 -76 1 -111t7.5 -87t22 -87t42.5 -66q24 -29 57 -48t62 -29t78 -15t80 -5.5t94 -0.5h275q63 0 94 0.5t79.5 5.5t77.5 15t62 29t57 48q27 31 42.5 66.5t22 86.5t8 87.5t1.5 110.5v280
q0 66 -0.5 99.5t-3.5 92.5t-8.5 93.5t-17 84t-28 84.5t-42 74t-58.5 72t-71.5 58t-73.5 41.5t-84.5 27.5t-84 16.5t-92.5 8.5t-91 3.5t-97 0.5h-133v127h133q71 0 107.5 -0.5t102.5 -4t106.5 -11t98 -21.5t100 -34.5t90 -52.5t88.5 -73t72 -88.5t51.5 -89.5t34.5 -100
t21 -98t10.5 -105.5t4 -100t0.5 -104.5v-280q0 -69 -0.5 -101.5t-6 -89.5t-17 -92.5t-33.5 -78.5t-55 -79q-36 -39 -82.5 -66t-85.5 -40t-99.5 -20t-96.5 -8t-103 -1h-275q-67 0 -103 1t-96.5 8t-99.5 20t-85.5 40t-82.5 66q-33 36 -55 79t-33.5 78.5t-17 92.5t-6 89.5
t-0.5 101.5v209q0 69 0.5 101.5t6 89.5t17 92t33.5 78t55 79q30 33 63.5 57t72.5 38t70.5 23t80.5 12.5t77.5 4t84.5 0.5q76 0 113.5 -1.5t90.5 -8.5t93 -24t78 -46q31 -23 53.5 -51t36 -61t21.5 -60t11.5 -66t4 -61t0.5 -61zM1073 410v59h-168q-47 0 -72.5 -1.5t-63 -11
t-64.5 -28.5q-68 -50 -68 -137q0 -82 65 -129q56 -39 162 -39q121 0 170 57q27 31 33 77t6 153z" />
    <glyph glyph-name="A" unicode="A" horiz-adv-x="1216" 
d="M608 1376q90 0 150 -57q28 -26 45.5 -67t48.5 -158l293 -1094h-156l-106 399h-549l-107 -399h-155l293 1094q31 117 48.5 158t45.5 67q60 57 149 57zM373 543h471l-139 518q-36 138 -54 156q-16 16 -43 16t-43 -16q-17 -17 -53 -156z" />
    <glyph glyph-name="B" unicode="B" horiz-adv-x="1126" 
d="M236 1307q32 27 75 40t74 15t90 2h4q71 0 106.5 -1.5t88 -8.5t92 -24t76.5 -46q63 -49 97 -124t34 -163q0 -93 -39 -166.5t-111 -117.5q90 -46 140.5 -130.5t50.5 -195.5q0 -167 -109 -276q-32 -32 -72 -54t-73.5 -33t-85 -16.5t-83 -6.5t-91.5 -1h-25q-59 0 -90 2
t-74 15t-75 40q-29 26 -47 55t-25 67t-8.5 63.5t-1.5 74.5v730q0 49 1.5 75t8.5 64.5t25 67.5t47 53zM340 1202q-24 -19 -29.5 -50t-5.5 -105v-273h174q67 0 99 1.5t75 8t70.5 22t48.5 42.5q49 60 49 149q0 90 -49 150q-21 27 -48.5 42.5t-70.5 22t-75 8t-99 1.5h-4
q-63 0 -90.5 -3t-44.5 -16zM500 631h-195v-314q0 -74 5.5 -105t29.5 -50q17 -13 44.5 -16t90.5 -3h25q67 0 99.5 1.5t76 7.5t72 21.5t53.5 41.5q61 64 61 172t-61 172q-25 26 -53.5 41.5t-72 21.5t-76 7.5t-99.5 1.5z" />
    <glyph glyph-name="C" unicode="C" horiz-adv-x="1097" 
d="M594 1376q97 0 190.5 -32t167.5 -93l-88 -114q-116 96 -270 96q-156 0 -238 -103q-50 -65 -60.5 -147.5t-10.5 -300.5q0 -219 10.5 -301.5t60.5 -147.5q81 -102 238 -102q80 0 156 28.5t133 80.5l92 -113q-76 -67 -175.5 -103t-205.5 -36q-121 0 -213 45t-150 119
q-29 38 -48 82t-29 81.5t-14.5 105.5t-5.5 114t-1 147t1 147t5.5 114t14.5 105.5t29 81.5t48 82q58 74 150 119t213 45z" />
    <glyph glyph-name="D" unicode="D" horiz-adv-x="1167" 
d="M434 1364q56 0 89 -1t95.5 -8.5t106.5 -21t97 -42t93 -68.5q34 -34 58.5 -72.5t39.5 -85t24 -85t12.5 -98t4.5 -96t1 -104.5t-1 -104.5t-4.5 -96t-12.5 -98t-24 -85t-39.5 -85t-58.5 -72.5q-40 -40 -93 -68.5t-97 -42t-106.5 -21t-95.5 -8.5t-89 -1q-36 0 -60 2
t-65.5 15.5t-72.5 39.5q-29 26 -47 55t-25 67t-8.5 63.5t-1.5 74.5v730q0 49 1.5 74.5t8.5 63.5t25 67t47 55q31 26 72.5 39.5t65.5 15.5t60 2zM434 1221q-68 0 -94 -19q-24 -19 -29.5 -50t-5.5 -105v-730q0 -74 5.5 -105t29.5 -50q26 -19 94 -19q59 0 96 2t93.5 10
t102 29.5t79.5 55.5q35 35 56 78.5t29.5 109t10.5 112.5t2 142t-2 142t-10.5 112.5t-29.5 109t-56 78.5q-34 34 -79.5 55.5t-102 29.5t-93.5 10t-96 2z" />
    <glyph glyph-name="E" unicode="E" horiz-adv-x="1044" 
d="M305 774l483 2v-143l-483 -2v-314q0 -74 5.5 -105t29.5 -50q17 -13 44.5 -16t90.5 -3h436v-143h-436q-59 0 -90 2t-74 15t-75 40q-29 26 -47 55t-25 67t-8.5 63.5t-1.5 74.5v730q0 49 1.5 74.5t8.5 63.5t25 67t47 55q32 27 75 40t74 15t90 2h436v-143h-436
q-63 0 -90.5 -3t-44.5 -16q-24 -19 -29.5 -50t-5.5 -105v-273z" />
    <glyph glyph-name="F" unicode="F" horiz-adv-x="1013" 
d="M475 1364h416v-143h-416q-63 0 -90.5 -3t-44.5 -16q-24 -19 -29.5 -50t-5.5 -105v-271h483v-143h-483v-633h-151v1047q0 49 1.5 74.5t8.5 63.5t25 67t47 55q32 27 75 40t74 15t90 2z" />
    <glyph glyph-name="G" unicode="G" horiz-adv-x="1187" 
d="M594 1376q97 0 190.5 -32t167.5 -93l-88 -114q-116 96 -270 96q-156 0 -238 -103q-50 -65 -60.5 -147.5t-10.5 -300.5q0 -219 10.5 -301.5t60.5 -147.5q81 -102 238 -102q156 0 237 102q44 59 57.5 132t14.5 223h-282v143h434v-49q0 -122 -2 -180t-11 -131.5
t-29.5 -122.5t-56.5 -96q-58 -75 -149.5 -119.5t-212.5 -44.5t-213 45t-150 119q-29 38 -48 82t-29 81.5t-14.5 105.5t-5.5 114t-1 147t1 147t5.5 114t14.5 105.5t29 81.5t48 82q58 74 150 119t213 45z" />
    <glyph glyph-name="H" unicode="H" horiz-adv-x="1208" 
d="M154 1364h151v-590h598v590h152v-1364h-152v631h-598v-631h-151v1364z" />
    <glyph glyph-name="I" unicode="I" horiz-adv-x="458" 
d="M305 1364v-1364h-151v1364h151z" />
    <glyph glyph-name="J" unicode="J" horiz-adv-x="913" 
d="M618 1364h152v-829q0 -81 -1.5 -122t-9 -99t-25.5 -101t-48 -82q-112 -143 -315 -143q-170 0 -299 100l92 115q84 -72 207 -72q113 0 180 70q25 26 39 57t20 81t7 84t1 112v829z" />
    <glyph glyph-name="K" unicode="K" horiz-adv-x="1148" 
d="M154 1364h151v-631q49 0 74 12q14 7 29.5 23t25.5 29t39 53l379 514h184l-420 -569q-44 -66 -67 -93l518 -702h-184l-451 610q-51 -20 -127 -20v-590h-151v1364z" />
    <glyph glyph-name="L" unicode="L" horiz-adv-x="983" 
d="M154 1364h151v-1047q0 -74 5.5 -105t29.5 -50q17 -13 44.5 -16t90.5 -3h395v-143h-395q-59 0 -90 2t-74 15t-75 40q-29 26 -47 55t-25 67t-8.5 63.5t-1.5 74.5v1047z" />
    <glyph glyph-name="M" unicode="M" horiz-adv-x="1650" 
d="M532 1376q100 0 178.5 -42t120.5 -122q102 164 308 164q169 0 270 -112q28 -32 47.5 -70.5t29.5 -72t15 -86t5.5 -85.5t0.5 -98v-852h-151v852q0 137 -9.5 200t-48.5 111q-58 70 -170 70t-170 -70q-39 -48 -48 -110.5t-9 -200.5v-852h-151v852q0 137 -9.5 200t-48.5 111
q-58 70 -170 70t-170 -70q-39 -48 -48 -110.5t-9 -200.5v-852h-152v852q0 64 1 98t6 87t15.5 86.5t30.5 72t50 68.5q109 112 286 112z" />
    <glyph glyph-name="N" unicode="N" horiz-adv-x="1134" 
d="M567 1376q96 0 179.5 -34t138.5 -97q38 -44 61 -92.5t32 -114t11 -110.5t2 -135v-793h-151v793q0 80 -1 118t-7.5 90.5t-21.5 87t-40 62.5q-73 82 -203 82q-129 0 -202 -82q-25 -28 -40 -62.5t-21.5 -87t-7.5 -90.5t-1 -118v-793h-152v793q0 88 2 134.5t11.5 111.5
t32.5 113.5t61 92.5q55 63 138 97t179 34z" />
    <glyph glyph-name="O" unicode="O" horiz-adv-x="1196" 
d="M285 682q0 -130 2 -188.5t14 -124t37 -107.5q37 -62 105.5 -96.5t154.5 -34.5t154.5 34.5t105.5 96.5q25 42 37 107.5t14 124t2 188.5t-2 188.5t-14 124t-37 107.5q-37 62 -105.5 96.5t-154.5 34.5t-154.5 -34.5t-105.5 -96.5q-25 -42 -37 -107.5t-14 -124t-2 -188.5z
M133 682q0 149 2.5 215t19 142.5t52.5 134.5q58 95 160.5 148.5t230.5 53.5t230.5 -53.5t160.5 -148.5q51 -83 62.5 -180.5t11.5 -311.5q0 -149 -2.5 -215t-19 -142.5t-52.5 -134.5q-58 -95 -160.5 -148.5t-230.5 -53.5t-230.5 53.5t-160.5 148.5q-51 83 -62.5 180.5
t-11.5 311.5z" />
    <glyph glyph-name="P" unicode="P" horiz-adv-x="1095" 
d="M449 1364q71 0 109 -2t97 -11.5t107.5 -34.5t93.5 -65q70 -63 103.5 -150t33.5 -177t-33.5 -177.5t-103.5 -150.5q-36 -33 -79.5 -55t-80 -33.5t-92 -17t-89 -6.5t-97.5 -1h-113v-483h-151v1047q0 49 1.5 74.5t8.5 63.5t25 67t47 55q32 27 72.5 40t67 15t73.5 2z
M449 1221q-47 0 -69.5 -3.5t-39.5 -15.5q-24 -19 -29.5 -50t-5.5 -105v-420h113q61 0 87 0.5t70.5 4t68.5 10.5t53.5 21t52.5 35q92 82 92 226q0 143 -92 225q-29 26 -60 41.5t-74 21.5t-73.5 7.5t-93.5 1.5z" />
    <glyph glyph-name="Q" unicode="Q" horiz-adv-x="1196" 
d="M133 682q0 149 2.5 215t19 142.5t52.5 134.5q58 95 160.5 148.5t230.5 53.5t230.5 -53.5t160.5 -148.5q51 -83 62.5 -180.5t11.5 -311.5q0 -149 -2.5 -215t-19 -142.5t-52.5 -134.5q-43 -69 -115 -120l216 -144l-76 -121l-291 197q-55 -14 -125 -14q-128 0 -230.5 53.5
t-160.5 148.5q-51 83 -62.5 180.5t-11.5 311.5zM285 682q0 -130 2 -188.5t14 -124t37 -107.5q37 -62 105.5 -96.5t154.5 -34.5t154.5 34.5t105.5 96.5q25 42 37 107.5t14 124t2 188.5t-2 188.5t-14 124t-37 107.5q-37 62 -105.5 96.5t-154.5 34.5t-154.5 -34.5t-105.5 -96.5
q-25 -42 -37 -107.5t-14 -124t-2 -188.5z" />
    <glyph glyph-name="R" unicode="R" horiz-adv-x="1126" 
d="M465 1221q-56 0 -82 -3t-43 -16q-24 -19 -29.5 -50t-5.5 -105v-379h141q75 0 108 1t80.5 7.5t78.5 21.5t59 41q80 74 80 205t-80 205q-28 26 -59.5 41.5t-76 21.5t-76 7.5t-95.5 1.5zM465 1364q57 0 87.5 -1t83 -6.5t88 -17t78 -33.5t77.5 -55q125 -118 125 -307
q0 -129 -61.5 -228t-160.5 -145l242 -571h-164l-221 530q-45 -6 -193 -6h-141v-524h-151v1047q0 49 1.5 74.5t8.5 63.5t25 67t47 55q32 27 74.5 40t72 15t82.5 2z" />
    <glyph glyph-name="S" unicode="S" horiz-adv-x="1044" 
d="M506 1376q107 0 206.5 -32.5t174.5 -90.5l-90 -114q-54 43 -130.5 68.5t-160.5 25.5q-127 0 -190.5 -60t-63.5 -143q0 -96 82 -162q52 -44 196 -86q67 -20 97.5 -30t85 -37.5t94.5 -61.5q58 -49 96.5 -124.5t38.5 -159.5q0 -72 -27.5 -138.5t-79.5 -121.5t-137.5 -88
t-191.5 -33q-116 0 -224.5 37.5t-193.5 109.5l96 111q130 -115 322 -115q74 0 130.5 21t89 56.5t49 76t16.5 84.5q0 48 -24.5 97.5t-66.5 84.5q-20 17 -43 30.5t-62.5 27.5t-56 19.5t-71.5 22.5q-56 17 -81 25.5t-72.5 33t-86.5 56.5q-55 45 -91 115t-36 145
q0 151 110 250.5t296 99.5z" />
    <glyph glyph-name="T" unicode="T" horiz-adv-x="1085" 
d="M82 1364h922v-143h-386v-1221h-151v1221h-385v143z" />
    <glyph glyph-name="U" unicode="U" horiz-adv-x="1134" 
d="M143 1364h152v-793q0 -80 1 -118t7.5 -90.5t21.5 -87t40 -62.5q73 -82 202 -82q130 0 203 82q25 28 40 62.5t21.5 87t7.5 90.5t1 118v793h151v-793q0 -90 -2 -135t-11 -110.5t-32 -114t-61 -92.5q-55 -63 -138.5 -97t-179.5 -34t-179 34t-138 97q-38 44 -61 92.5
t-32.5 113.5t-11.5 111.5t-2 134.5v793z" />
    <glyph glyph-name="V" unicode="V" horiz-adv-x="1138" 
d="M227 1364l260 -1098q25 -107 39 -119q19 -16 43 -16t43 16q14 12 39 119l260 1098h156l-268 -1131q-24 -97 -37 -128t-43 -60q-60 -57 -150 -57q-89 0 -149 57q-30 29 -43 60t-37 128l-268 1131h155z" />
    <glyph glyph-name="W" unicode="W" horiz-adv-x="1650" 
d="M143 1364h152v-852q0 -96 2 -139t15 -90.5t40 -81.5q58 -70 170 -70t170 70q39 48 48.5 111t9.5 200v852h151v-852q0 -96 2 -139t15 -90.5t40 -81.5q58 -70 170 -70t170 70q39 48 48.5 111t9.5 200v852h151v-852q0 -81 -2 -122.5t-10.5 -101.5t-30 -104.5t-57.5 -83.5
q-106 -112 -279 -112q-209 0 -303 163q-96 -163 -303 -163q-172 0 -278 112q-36 39 -57.5 83.5t-30.5 104t-11 102t-2 122.5v852z" />
    <glyph glyph-name="X" unicode="X" horiz-adv-x="1105" 
d="M92 1364h170l291 -549l291 549h170l-367 -672l377 -692h-170l-301 569l-301 -569h-170l377 692z" />
    <glyph glyph-name="Y" unicode="Y" horiz-adv-x="1044" 
d="M522 766q19 0 33 14q21 21 82 146l201 438h166l-236 -498q-69 -137 -91 -168q-32 -43 -79 -65v-633h-152v633q-48 23 -75 60.5t-82 147.5q-9 16 -13 25l-235 498h166l201 -438q62 -127 81 -146q14 -14 33 -14z" />
    <glyph glyph-name="Z" unicode="Z" horiz-adv-x="1085" 
d="M143 1221v143h494q68 0 102 -2t78 -15t74 -40q67 -60 67 -148q0 -34 -7 -61t-29.5 -61.5t-41 -57.5t-65.5 -78l-446 -528q-88 -104 -100 -126q-11 -20 -11 -42q0 -30 23 -45q18 -11 45 -14t104 -3h533v-143h-535q-67 0 -100.5 2t-78 14.5t-73.5 38.5q-70 63 -70 150
q0 59 27 104.5t109 143.5l481 569q55 65 69.5 87.5t14.5 49.5q0 29 -25 47q-16 10 -46 12.5t-101 2.5h-492z" />
    <glyph glyph-name="bracketleft" unicode="[" horiz-adv-x="591" 
d="M174 1597h315v-114h-192v-1747h192v-115h-315v1976z" />
    <glyph glyph-name="backslash" unicode="\" horiz-adv-x="700" 
d="M41 1516h127l491 -1811h-127z" />
    <glyph glyph-name="bracketright" unicode="]" horiz-adv-x="591" 
d="M102 1597h316v-1976h-316v115h193v1747h-193v114z" />
    <glyph glyph-name="asciicircum" unicode="^" horiz-adv-x="753" 
d="M297 1364h160l194 -246h-135l-139 156l-139 -156h-136z" />
    <glyph glyph-name="underscore" unicode="_" horiz-adv-x="901" 
d="M72 0h757v-119h-757v119z" />
    <glyph glyph-name="grave" unicode="`" horiz-adv-x="518" 
d="M102 1364h160l154 -246h-135z" />
    <glyph glyph-name="a" unicode="a" horiz-adv-x="897" 
d="M795 410q0 -66 -1.5 -98t-7.5 -77.5t-21.5 -78t-41.5 -62.5q-90 -106 -281 -106q-153 0 -247 67q-55 38 -89 99t-34 137q0 149 121 235q44 32 103 49t94.5 19t92.5 2h168q0 44 -1.5 70t-13 66t-34.5 65q-53 59 -166 59q-128 0 -266 -53l-45 129q162 59 311 59
q183 0 277 -108q29 -33 47 -71t25 -86t8.5 -79t1.5 -86v-151zM651 410v59h-168q-47 0 -72.5 -1.5t-63 -11t-64.5 -28.5q-68 -50 -68 -137q0 -81 66 -129q56 -39 161 -39q121 0 170 57q27 31 33 77t6 153z" />
    <glyph glyph-name="b" unicode="b" 
d="M492 856q-113 0 -175 -72q-29 -34 -43 -90t-16 -102t-2 -143q0 -70 1.5 -105t13 -79t34.5 -72q59 -70 166 -70q116 0 184 74q34 36 50.5 89.5t19 91t2.5 107.5q0 57 -1 87.5t-6.5 75.5t-18.5 77.5t-35 58.5q-62 72 -174 72zM502 991q88 0 159 -32.5t117 -88.5
q33 -40 53 -84.5t28 -101t9.5 -93.5t1.5 -106q0 -65 -2 -100t-11.5 -92t-34.5 -104t-66 -89q-112 -112 -285 -112q-94 0 -169.5 36.5t-119.5 98.5q-25 35 -40 70.5t-21 86.5t-7 85t-1 110v889h143v-498q41 59 106 92t140 33z" />
    <glyph glyph-name="c" unicode="c" horiz-adv-x="858" 
d="M702 190l74 -114q-133 -88 -295 -88q-183 0 -291 121q-35 39 -56.5 87t-29.5 107t-10 95.5t-2 99.5q0 56 2 90t10 90t29 103.5t55 86.5q105 123 293 123q154 0 281 -80l-70 -116q-95 61 -211 61q-118 0 -182 -74q-29 -34 -44 -90t-17 -93.5t-2 -100.5q0 -73 2 -112
t17 -97.5t46 -93.5q62 -72 180 -72q123 0 221 67z" />
    <glyph glyph-name="d" unicode="d" 
d="M461 991q75 0 140 -33t106 -92v498h143v-889q0 -74 -1 -109.5t-7.5 -85.5t-21.5 -86t-40 -71q-44 -62 -119 -98.5t-169 -36.5q-173 0 -285 112q-41 42 -66 89t-35 103.5t-12 92.5t-2 100q0 69 1.5 106t9.5 93.5t28 101t53 84.5q46 56 117.5 88.5t159.5 32.5zM707 449
q0 95 -2.5 142.5t-16.5 103t-43 89.5q-62 72 -174 72t-174 -72q-22 -26 -35 -58.5t-18.5 -77.5t-6.5 -75.5t-1 -87.5q0 -71 2 -107.5t18.5 -90.5t50.5 -90q68 -74 185 -74q106 0 165 70q23 28 34.5 71.5t13.5 79.5t2 105z" />
    <glyph glyph-name="e" unicode="e" horiz-adv-x="929" 
d="M285 209q64 -86 204 -86q138 0 250 59l60 -123q-139 -71 -310 -71q-105 0 -187 36t-132 103q-37 50 -55 116t-20.5 112t-2.5 134q0 76 1.5 112t8 85.5t22 86t42.5 73.5q49 69 137 107t197 38q150 0 245 -76q100 -84 103 -206q0 -64 -28.5 -116t-74.5 -85
q-59 -42 -124.5 -52t-194.5 -10h-188q0 -174 47 -237zM705 709q-3 63 -54 104q-52 43 -151 43q-143 0 -211 -80q-51 -59 -51 -203h188q111 0 155 5t74 28q50 37 50 103z" />
    <glyph glyph-name="f" unicode="f" horiz-adv-x="641" 
d="M426 1376q60 0 158 -24l-33 -131q-82 20 -125 20q-79 0 -119 -55q-21 -29 -26 -71.5t-5 -135.5h246v-127h-246v-852h-143v975q0 78 2 116t15 87t40 86q84 112 236 112z" />
    <glyph glyph-name="g" unicode="g" 
d="M475 856q-113 0 -174 -68q-24 -27 -38 -58t-19.5 -75.5t-6.5 -73t-1 -87.5q0 -57 1 -87.5t6.5 -75.5t18.5 -77.5t35 -58.5q62 -72 174 -72t174 72q29 34 43 89.5t16.5 103t2.5 142.5q0 68 -2 104t-13.5 78.5t-34.5 69.5q-29 35 -77.5 54.5t-104.5 19.5zM475 991
q81 0 159.5 -29t133.5 -94q56 -66 69 -138t13 -220v-418q0 -70 -1.5 -106t-10 -87.5t-28.5 -90.5t-54 -76q-109 -119 -305 -119q-163 0 -299 74l59 123q114 -62 240 -62q139 0 206 84q34 42 42 95.5t8 164.5v21q-41 -59 -106 -92t-140 -33q-88 0 -159.5 32.5t-117.5 88.5
q-33 40 -53 84.5t-28 101t-9.5 93.5t-1.5 106q0 64 2 100.5t10 92.5t29.5 101.5t56.5 85.5q105 117 285 117z" />
    <glyph glyph-name="h" unicode="h" 
d="M133 1364h143v-487q36 52 95.5 83t130.5 31q84 0 148.5 -30t105.5 -74q34 -36 54 -76t28.5 -92.5t10 -88.5t1.5 -106v-524h-143v524q0 79 -2.5 118t-16 83t-41.5 72q-59 59 -155 59q-97 0 -156 -59q-40 -40 -50 -98.5t-10 -174.5v-524h-143v1364z" />
    <glyph glyph-name="i" unicode="i" horiz-adv-x="409" 
d="M205 1329q42 0 69 -27t27 -69t-27 -69t-69 -27t-69 27t-27 69t27 69t69 27zM133 0v979h143v-979h-143z" />
    <glyph glyph-name="j" unicode="j" horiz-adv-x="409" 
d="M276 -49q0 -70 -2 -102.5t-14 -74t-37 -73.5q-71 -88 -194 -88q-69 0 -144 33l56 125q48 -23 88 -23q57 0 84 39q14 20 17 53t3 131v1008h143v-1028zM205 1329q42 0 69 -27t27 -69t-27 -69t-69 -27t-69 27t-27 69t27 69t69 27z" />
    <glyph glyph-name="k" unicode="k" horiz-adv-x="937" 
d="M133 1366h143v-784q55 0 82 20q21 17 68 76l233 299h177l-291 -375q-40 -53 -58 -70l379 -532h-174l-323 457q-40 -11 -93 -11v-446h-143v1366z" />
    <glyph glyph-name="l" unicode="l" horiz-adv-x="409" 
d="M133 1366h143v-1366h-143v1366z" />
    <glyph glyph-name="m" unicode="m" horiz-adv-x="1433" 
d="M451 991q88 0 156.5 -37t109.5 -106q41 69 109.5 106t156.5 37q145 0 236 -88q30 -28 50 -63.5t30 -66t15.5 -79.5t6 -79t0.5 -91v-524h-143v524q0 84 -2.5 125t-16.5 87t-43 73q-50 47 -133 47t-133 -47q-41 -39 -51.5 -100.5t-10.5 -184.5v-524h-143v524q0 85 -2 125
t-16 86.5t-43 73.5q-50 47 -133 47q-84 0 -134 -47q-29 -27 -43 -73.5t-16 -86.5t-2 -125v-524h-143v524q0 61 0.5 91t6 79t15.5 79.5t30 66t50 63.5q91 88 236 88z" />
    <glyph glyph-name="n" unicode="n" horiz-adv-x="942" 
d="M471 991q162 0 262 -104q34 -36 55 -76t29 -92.5t10 -88.5t2 -106v-524h-143v524q0 80 -2 118t-15.5 82.5t-41.5 72.5q-59 59 -156 59t-156 -59q-28 -28 -41.5 -72.5t-15.5 -82.5t-2 -118v-524h-143v524q0 70 2 106t10 88.5t29 92.5t55 76q100 104 262 104z" />
    <glyph glyph-name="o" unicode="o" 
d="M481 856q-134 0 -200 -98q-21 -32 -31.5 -80.5t-12 -84t-1.5 -104.5q0 -68 1.5 -104t12 -84t31.5 -80q66 -98 200 -98q135 0 201 98q21 32 31.5 80t12 84t1.5 104q0 69 -1.5 104.5t-12 84t-31.5 80.5q-66 98 -201 98zM481 991q108 0 194 -46t136 -128q28 -46 41.5 -106.5
t15.5 -102t2 -119.5q0 -77 -2 -118.5t-15.5 -102t-41.5 -106.5q-50 -82 -136 -128t-194 -46t-193.5 46t-135.5 128q-28 46 -42 106t-16 102.5t-2 118.5t2 119t16 103t42 106q50 82 135.5 128t193.5 46z" />
    <glyph glyph-name="p" unicode="p" 
d="M487 856q-56 0 -104.5 -19.5t-77.5 -54.5q-23 -27 -34.5 -70t-13 -77.5t-1.5 -104.5q0 -97 2 -143t16 -102t43 -90q62 -72 175 -72q112 0 174 72q22 26 35 58.5t18.5 77.5t6.5 75.5t1 87.5q0 59 -1 87.5t-6.5 73t-19.5 75.5t-38 58q-61 68 -175 68zM487 991
q180 0 285 -117q35 -40 56.5 -85.5t29.5 -101.5t10 -92.5t2 -100.5q0 -69 -1.5 -106t-9.5 -93.5t-28 -101t-53 -84.5q-46 -56 -117 -88.5t-159 -32.5q-75 0 -140 33t-106 92v-488h-143v885q0 64 0.5 93.5t4.5 74.5t12.5 72t24.5 58.5t40 59.5q55 65 133.5 94t158.5 29z" />
    <glyph glyph-name="q" unicode="q" 
d="M475 856q-113 0 -174 -68q-24 -27 -38 -58t-19.5 -75.5t-6.5 -73t-1 -87.5q0 -57 1 -87.5t6.5 -75.5t18.5 -77.5t35 -58.5q62 -72 174 -72t174 72q29 34 43 89.5t16.5 103t2.5 142.5q0 68 -2 104t-13.5 78.5t-34.5 69.5q-29 35 -77.5 54.5t-104.5 19.5zM475 991
q81 0 159.5 -29t133.5 -94q56 -66 69 -138t13 -220v-885h-143v488q-41 -59 -106 -92t-140 -33q-88 0 -159.5 32.5t-117.5 88.5q-33 40 -53 84.5t-28 101t-9.5 93.5t-1.5 106q0 64 2 100.5t10 92.5t29.5 101.5t56.5 85.5q105 117 285 117z" />
    <glyph glyph-name="r" unicode="r" horiz-adv-x="692" 
d="M487 991q76 0 140 -22l-43 -129q-46 16 -97 16q-56 0 -104.5 -19.5t-77.5 -54.5q-23 -27 -34.5 -71t-13 -82t-1.5 -119v-510h-143v510q0 64 0.5 93.5t4.5 74.5t12.5 72t24.5 58.5t40 59.5q55 65 133.5 94t158.5 29z" />
    <glyph glyph-name="s" unicode="s" horiz-adv-x="835" 
d="M707 924l-54 -125q-120 57 -245 57q-72 0 -123 -29q-60 -34 -60 -102q0 -60 51 -100q28 -23 61.5 -34.5t96.5 -25.5q133 -29 199 -76q53 -38 87 -95t34 -128q0 -66 -30.5 -121.5t-80.5 -91.5q-91 -65 -235 -65q-179 0 -330 71l57 123q127 -59 273 -59q97 0 149 39
q53 39 53 104q0 68 -57 111q-47 35 -162 59q-134 28 -201 80q-49 37 -78.5 91.5t-29.5 117.5q0 66 31.5 119.5t79.5 87.5q85 59 215 59q156 0 299 -67z" />
    <glyph glyph-name="t" unicode="t" horiz-adv-x="643" 
d="M266 348q0 -92 4.5 -125t24.5 -59q33 -41 96 -41q60 0 133 39l62 -121q-101 -53 -195 -53q-66 0 -121.5 25t-89.5 69q-27 34 -40 78.5t-15 79t-2 108.5v862h143v-231h246v-127h-246v-504z" />
    <glyph glyph-name="u" unicode="u" horiz-adv-x="942" 
d="M113 979h143v-524q0 -80 2 -118t15.5 -82.5t41.5 -72.5q59 -59 156 -59t156 59q28 28 41.5 72.5t15.5 82.5t2 118v524h143v-524q0 -70 -2 -106t-10 -88.5t-29 -92.5t-55 -76q-100 -104 -262 -104t-262 104q-34 36 -55 76t-29 92.5t-10 88.5t-2 106v524z" />
    <glyph glyph-name="v" unicode="v" horiz-adv-x="864" 
d="M178 979l178 -737q19 -82 33 -99q17 -20 43 -20t43 20q14 17 33 99l178 737h148l-183 -752q-16 -64 -22 -85.5t-23.5 -54t-44.5 -54.5q-55 -45 -129 -45t-129 45q-27 22 -44.5 54.5t-23.5 54t-22 85.5l-182 752h147zM834 979z" />
    <glyph glyph-name="w" unicode="w" horiz-adv-x="1433" 
d="M451 -12q-145 0 -236 88q-30 28 -50 63.5t-30 66t-15.5 79.5t-6 79t-0.5 91v524h143v-524q0 -85 2 -125t16 -86.5t43 -73.5q50 -47 134 -47q83 0 133 47q29 27 43 73.5t16 86.5t2 125v524h143v-524q0 -84 2.5 -125t16.5 -87t43 -73q50 -47 133 -47t133 47
q41 39 51.5 100.5t10.5 184.5v524h143v-524q0 -61 -0.5 -91t-6 -79t-15.5 -79.5t-30 -66t-50 -63.5q-91 -88 -236 -88q-88 0 -156.5 37t-109.5 106q-41 -69 -109.5 -106t-156.5 -37z" />
    <glyph glyph-name="x" unicode="x" horiz-adv-x="925" 
d="M88 979h162l213 -373l217 373h158l-295 -485l301 -494h-162l-219 383l-223 -383h-158l301 494z" />
    <glyph glyph-name="y" unicode="y" horiz-adv-x="856" 
d="M31 979h149l193 -660q44 -149 57 -169q14 -21 53 -25l185 854h147l-235 -1063q-20 -89 -36.5 -134.5t-47.5 -80.5q-77 -88 -199 -88q-61 0 -137 27l43 127q52 -19 94 -19q53 0 88 35q21 21 34 61.5t36 147.5q-87 12 -133 71q-7 9 -12 17t-10.5 20.5t-9 21.5t-10.5 30
t-11 34.5t-14 46.5t-17 56z" />
    <glyph glyph-name="z" unicode="z" horiz-adv-x="847" 
d="M117 844v135h393q36 0 57.5 -1.5t56 -13t62.5 -34.5q70 -55 70 -144q0 -48 -24.5 -91.5t-55 -73t-92.5 -80.5l-230 -191q-47 -39 -63.5 -53t-39.5 -37t-29.5 -37t-6.5 -30q0 -27 18 -41q14 -11 43.5 -14t102.5 -3h373v-135h-373q-54 0 -81 1.5t-67 8t-67.5 23t-50.5 43.5
q-41 50 -41 117q0 37 10.5 67t41.5 65t54.5 56.5t83.5 71.5l227 190q86 71 104 95q19 24 19 48q0 29 -24 45q-20 13 -78 13h-393z" />
    <glyph glyph-name="braceleft" unicode="{" horiz-adv-x="688" 
d="M266 610q73 -59 113 -147q41 -93 41 -223q0 -38 -4 -114t-4 -114q0 -125 47 -209q45 -80 127 -108l-41 -107q-62 21 -112 62.5t-81 95.5q-63 109 -63 266q0 38 4 114t4 114q0 119 -43 200q-46 86 -131 115v111q86 29 131 114q43 81 43 201q0 38 -4 113t-4 112
q0 158 63 267q66 113 193 157l41 -106q-81 -28 -127 -109q-47 -84 -47 -209q0 -37 4 -112t4 -113q0 -130 -41 -223q-41 -90 -113 -148z" />
    <glyph glyph-name="bar" unicode="|" horiz-adv-x="471" 
d="M174 1516h123v-1813h-123v1813z" />
    <glyph glyph-name="braceright" unicode="}" horiz-adv-x="688" 
d="M422 610q-72 58 -113 148q-41 93 -41 223q0 38 4 113t4 112q0 125 -47 209q-46 81 -127 109l41 106q127 -44 193 -157q63 -109 63 -267q0 -37 -4 -112t-4 -113q0 -120 43 -201q45 -85 131 -114v-111q-85 -29 -131 -115q-43 -81 -43 -200q0 -38 4 -114t4 -114
q0 -157 -63 -266q-31 -54 -81 -95.5t-112 -62.5l-41 107q82 28 127 108q47 84 47 209q0 38 -4 114t-4 114q0 130 41 223q40 88 113 147z" />
    <glyph glyph-name="asciitilde" unicode="~" horiz-adv-x="1064" 
d="M233 432l-122 25q18 78 83 130t152 52q17 0 35 -2.5t32 -5t32 -9t28 -10t27 -12t23 -12t22.5 -13t19.5 -10.5q97 -57 154 -57q42 0 73 24.5t39 59.5l123 -25q-18 -78 -83 -130t-152 -52q-17 0 -35 2.5t-32 5t-32 9t-28 10t-27 12t-23 12t-22.5 13t-19.5 10.5
q-97 57 -154 57q-42 0 -73.5 -24.5t-39.5 -59.5z" />
    <glyph glyph-name="uni00A0" unicode="&#xa0;" horiz-adv-x="512" 
 />
    <glyph glyph-name="exclamdown" unicode="&#xa1;" horiz-adv-x="532" 
d="M266 793q-46 0 -75 29t-29 75t29 75t75 29t75.5 -29t29.5 -75t-29.5 -75t-75.5 -29zM188 -375v398q0 164 5 319t11 228l5 73h110q21 -252 21 -620v-398h-152z" />
    <glyph glyph-name="cent" unicode="&#xa2;" horiz-adv-x="921" 
d="M471 1153h102v-166q127 -9 244 -69l-59 -123q-84 44 -185 57v-727q107 13 189 59l67 -118q-119 -64 -256 -76v-166h-102v166q-164 13 -260 116q-35 37 -56.5 78.5t-29.5 87.5t-10 73t-2 69v149q0 44 2 71t10 72.5t29.5 86t56.5 77.5q97 104 260 117v166zM309 770
q-25 -31 -37 -70.5t-14 -65t-2 -71.5v-149q0 -43 2 -71t16.5 -72.5t42.5 -73.5q56 -59 154 -72v727q-99 -8 -162 -82z" />
    <glyph glyph-name="sterling" unicode="&#xa3;" horiz-adv-x="1122" 
d="M246 891q0 67 1.5 101t8.5 84t25 88.5t47 74.5q53 65 135.5 101t181.5 36q163 0 275 -86l-82 -119q-77 62 -193 62q-126 0 -192 -76q-38 -43 -47 -98t-9 -168v-168h459v-125h-459q0 -154 -15.5 -254.5t-62.5 -200.5h680v-143h-876v102q73 106 98 212t25 284h-123v125h123
v168z" />
    <glyph glyph-name="currency" unicode="&#xa4;" horiz-adv-x="1282" 
d="M317 592q0 -155 86.5 -241.5t237.5 -86.5t237.5 86.5t86.5 241.5t-86.5 241.5t-237.5 86.5t-237.5 -86.5t-86.5 -241.5zM123 1006l104 104l129 -133q132 86 285 86t285 -86l129 133l104 -104l-129 -129q86 -122 86 -285t-86 -285l129 -129l-104 -104l-129 129
q-125 -82 -285 -82t-285 82l-129 -129l-104 104l129 129q-86 122 -86 285t86 285z" />
    <glyph glyph-name="yen" unicode="&#xa5;" horiz-adv-x="1169" 
d="M102 1364h162l320 -655l325 655h158l-254 -496h160v-114h-221l-72 -142h272v-114h-293v-498h-151v498h-293v114h272l-71 142h-221v114h159z" />
    <glyph glyph-name="brokenbar" unicode="&#xa6;" horiz-adv-x="475" 
d="M174 541h127v-541h-127v541zM174 1364h127v-537h-127v537z" />
    <glyph glyph-name="section" unicode="&#xa7;" horiz-adv-x="958" 
d="M199 193q140 -70 270 -70q97 0 155 38.5t58 112.5q0 34 -11.5 59.5t-29 42t-49.5 30.5t-61 22t-76 18q-37 8 -64 15t-69 21.5t-71.5 34.5t-58.5 48.5t-44 69t-15 90.5q0 125 98 195q-98 70 -98 194q0 71 32 124.5t84 82.5t107.5 43t112.5 14q158 0 315 -69l-61 -123
q-126 57 -254 57q-89 0 -141 -33t-52 -96q0 -27 10 -48t26 -35.5t44.5 -26.5t56.5 -20t70 -17q50 -10 85 -19.5t88 -33t86 -53t58 -81t25 -116.5q0 -118 -82 -193q82 -79 82 -197q0 -60 -22 -109.5t-58 -81.5t-83.5 -54t-95.5 -31.5t-97 -9.5q-165 0 -340 86zM334 868
q-58 -49 -58 -143q0 -27 10 -48t26 -35.5t44.5 -26.5t56.5 -20t70 -17q84 -14 160 -46q39 48 39 132q0 34 -11.5 59.5t-29 42t-49.5 30.5t-61 22t-76 18q-65 11 -121 32z" />
    <glyph glyph-name="dieresis" unicode="&#xa8;" horiz-adv-x="765" 
d="M567 1319q43 0 70 -26.5t27 -69.5t-27 -70t-70 -27t-69.5 27t-26.5 70t26.5 69.5t69.5 26.5zM199 1319q43 0 69.5 -26.5t26.5 -69.5t-26.5 -70t-69.5 -27t-70 27t-27 70t27 69.5t70 26.5z" />
    <glyph glyph-name="copyright" unicode="&#xa9;" horiz-adv-x="1679" 
d="M946 -252q63 0 94 0.5t80 5.5t78 15t62 29t57 48q27 31 42.5 66.5t22 86.5t8 87.5t1.5 110.5v594q0 74 -1.5 110.5t-8 87t-22 86t-42.5 66.5q-24 29 -57 48t-62 29t-78 15t-80 5.5t-94 0.5h-213q-63 0 -94 -0.5t-80 -5.5t-78 -15t-62 -29t-57 -48q-27 -31 -42.5 -66
t-22 -87t-7.5 -86.5t-1 -110.5v-594q0 -76 1 -111t7.5 -87t22 -87t42.5 -66q24 -29 57 -48t62 -29t78 -15t80 -5.5t94 -0.5h213zM946 1366q67 0 103 -1t96.5 -8t99.5 -20t85.5 -40t82.5 -66q41 -44 65 -93t34 -113t12 -107t2 -127v-594q0 -67 -1 -101t-6.5 -90.5t-17 -92
t-33.5 -78.5t-55 -79q-36 -39 -82.5 -66t-85.5 -40t-99.5 -20t-96.5 -8t-103 -1h-213q-67 0 -103 1t-96.5 8t-99.5 20t-85.5 40t-82.5 66q-33 36 -55 79t-33.5 78.5t-17 92.5t-6 89.5t-0.5 101.5v594q0 69 0.5 101.5t6 89.5t17 92t33.5 78t55 79q36 39 82.5 66t85.5 40
t99.5 20t96.5 8t103 1h213zM598 86q-24 25 -40 54.5t-24.5 54t-12.5 64.5t-4.5 65t-0.5 77v174q0 61 1.5 92t8.5 76.5t24.5 79.5t47.5 66q93 100 256 100q149 0 256 -82l-80 -112q-71 59 -176 59q-97 0 -149 -55q-31 -34 -38.5 -78.5t-7.5 -145.5v-174q0 -103 6.5 -145
t36.5 -76q48 -57 152 -57q116 0 188 65l88 -104q-107 -96 -276 -96q-161 0 -256 98z" />
    <glyph glyph-name="ordfeminine" unicode="&#xaa;" horiz-adv-x="937" 
d="M446 1524q202 0 308 -142q34 -45 50.5 -108t18.5 -109t2 -141v-72q0 -86 -2 -125.5t-14.5 -88t-38.5 -87.5q-89 -131 -305 -131q-158 0 -258 68q-55 37 -90 99.5t-35 135.5q0 70 31.5 130t87.5 102q46 35 110.5 52t108 19t129.5 2h133q0 115 -45 177q-63 84 -191 84
q-108 0 -264 -64l-51 125q173 74 315 74zM549 1001q-76 0 -111.5 -1.5t-77.5 -12.5t-71 -33q-64 -49 -64 -131q0 -75 60 -121q62 -47 180 -47q134 0 186 72q21 29 26 75t5 150v49h-133z" />
    <glyph glyph-name="guillemotleft" unicode="&#xab;" horiz-adv-x="991" 
d="M791 920l98 -74l-264 -334l264 -334l-98 -74l-320 408zM422 920l98 -74l-264 -334l264 -334l-98 -74l-320 408z" />
    <glyph glyph-name="logicalnot" unicode="&#xac;" horiz-adv-x="1064" 
d="M164 571l737 2v-430h-123v310h-614v118z" />
    <glyph glyph-name="uni00AD" unicode="&#xad;" horiz-adv-x="757" 
d="M164 571h430v-118h-430v118z" />
    <glyph glyph-name="registered" unicode="&#xae;" horiz-adv-x="1679" 
d="M946 -248q63 0 94 0.5t80 5.5t78 15t62 29t57 48q27 31 42.5 66.5t22 86.5t8 87.5t1.5 110.5v587q0 74 -1.5 110.5t-8 87.5t-22 86.5t-42.5 66.5q-24 29 -57 48t-62 29t-78 15t-80 5.5t-94 0.5h-213q-63 0 -94 -0.5t-80 -5.5t-78 -15t-62 -29t-57 -48q-27 -31 -42.5 -66
t-22 -87t-7.5 -87t-1 -111v-587q0 -76 1 -111t7.5 -87t22 -87t42.5 -66q24 -29 57 -48t62 -29t78 -15t80 -5.5t94 -0.5h213zM946 1364q67 0 103 -1t96.5 -8t99.5 -20t85.5 -40t82.5 -66q33 -36 55 -79t33.5 -78.5t17 -92t6.5 -90.5t1 -101v-587q0 -67 -1 -101t-6.5 -90.5
t-17 -92t-33.5 -78.5t-55 -79q-36 -39 -82.5 -66t-85.5 -40t-99.5 -20t-96.5 -8t-103 -1h-213q-67 0 -103 1t-96.5 8t-99.5 20t-85.5 40t-82.5 66q-33 36 -55 79t-33.5 78.5t-17 92.5t-6 89.5t-0.5 101.5v587q0 69 0.5 101.5t6 89.5t17 92.5t33.5 78.5t55 79q36 39 82.5 66
t85.5 40t99.5 20t96.5 8t103 1h213zM805 489q31 0 49 1.5t46.5 10.5t49.5 27q56 49 56 140q0 88 -56 137q-21 18 -49.5 27t-46.5 10.5t-49 1.5h-125v-355h125zM999 395l170 -395h-153l-154 356q-20 -2 -57 -2h-125v-354h-143v979h268q44 0 73 -2.5t80 -20.5t91 -53
q46 -40 73 -102.5t27 -132.5q0 -93 -41 -163.5t-109 -109.5z" />
    <glyph glyph-name="macron" unicode="&#xaf;" horiz-adv-x="757" 
d="M102 1253h553v-114h-553v114z" />
    <glyph glyph-name="degree" unicode="&#xb0;" horiz-adv-x="663" 
d="M332 1378q103 0 166 -63t63 -166t-63 -166t-166 -63t-166.5 63t-63.5 166t63.5 166t166.5 63zM332 1268q-53 0 -86 -32.5t-33 -86.5t33 -86.5t86 -32.5q54 0 86.5 32.5t32.5 86.5t-32.5 86.5t-86.5 32.5z" />
    <glyph glyph-name="plusminus" unicode="&#xb1;" horiz-adv-x="1064" 
d="M471 907h123v-186h307v-119h-307v-186h-123v186h-307v119h307v186zM164 313h737v-118h-737v118z" />
    <glyph glyph-name="uni00B2" unicode="&#xb2;" horiz-adv-x="772" 
d="M209 1341l-84 109q100 74 231 74q120 0 203 -64q100 -80 100 -213q0 -65 -22 -114t-86 -134l-256 -331h375v-136h-568v113l330 430q54 70 69 99t15 71q0 71 -47 111q-39 33 -113 33q-87 0 -147 -48z" />
    <glyph glyph-name="uni00B3" unicode="&#xb3;" horiz-adv-x="745" 
d="M182 1341l-84 109q102 74 234 74q125 0 207 -66q98 -80 98 -209q0 -128 -105 -209q60 -42 90.5 -102.5t30.5 -128.5q0 -69 -28 -125t-74 -92q-86 -72 -219 -72q-149 0 -250 84l88 105q61 -54 162 -54q81 0 127 37q51 44 51 117q0 76 -53 123q-26 23 -62 30t-119 7h-18
v135h18q77 0 110 6.5t58 26.5q50 43 50 112q0 67 -50 107q-45 33 -112 33q-90 0 -150 -48z" />
    <glyph glyph-name="acute" unicode="&#xb4;" horiz-adv-x="688" 
d="M418 1364h168l-338 -430h-146z" />
    <glyph glyph-name="mu" unicode="&#xb5;" horiz-adv-x="993" 
d="M512 -12q-67 0 -130 28t-106 82v-473h-143v1354h143v-504q0 -121 9.5 -179t48.5 -103q61 -70 168 -70t168 70q27 32 40 76t15 82.5t2 123.5v504h143v-504q0 -73 -1.5 -109.5t-9 -88.5t-26 -91t-49.5 -77q-48 -59 -120 -90t-152 -31z" />
    <glyph glyph-name="paragraph" unicode="&#xb6;" horiz-adv-x="1075" 
d="M698 1364h224v-1364h-152v1221l-213 -4v-1217h-151v512q-82 26 -146 84q-70 63 -103.5 150.5t-33.5 177.5t33.5 177t103.5 150q36 33 79.5 55t80 33.5t92 17t89 6.5t97.5 1z" />
    <glyph glyph-name="periodcentered" unicode="&#xb7;" horiz-adv-x="536" 
d="M268 616q46 0 75.5 -29t29.5 -75t-29.5 -75t-75.5 -29t-75 29t-29 75t29 75t75 29z" />
    <glyph glyph-name="cedilla" unicode="&#xb8;" horiz-adv-x="550" 
d="M135 -262q46 -19 84 -19q43 0 74 15q41 23 41 61q0 36 -33 53q-18 9 -51 9h-76l45 143h90l-22 -76q29 0 41.5 -0.5t33.5 -6.5t39 -19q48 -36 48 -101q0 -75 -64 -131q-63 -53 -166 -53q-63 0 -117 22z" />
    <glyph glyph-name="uni00B9" unicode="&#xb9;" horiz-adv-x="657" 
d="M356 1511h117v-979h-143v811l-125 -63l-62 123z" />
    <glyph glyph-name="ordmasculine" unicode="&#xba;" horiz-adv-x="1003" 
d="M502 1389q-62 0 -113 -23t-82 -66q-24 -34 -36 -83t-13.5 -86t-1.5 -109t1.5 -109t13.5 -86.5t36 -83.5q63 -88 195 -88q131 0 194 88q24 34 36 83t14 87t2 109q0 70 -2 108.5t-14 87t-36 82.5q-64 89 -194 89zM502 1524q97 0 181 -39t136 -115q34 -48 50.5 -114t19 -110
t2.5 -124t-2.5 -124t-19 -110t-50.5 -114q-52 -76 -136 -115t-181 -39t-181.5 39t-136.5 115q-34 48 -50.5 114.5t-18.5 109t-2 124.5t2 124.5t18.5 109t50.5 114.5q52 76 136.5 115t181.5 39z" />
    <glyph glyph-name="guillemotright" unicode="&#xbb;" horiz-adv-x="991" 
d="M201 920l319 -408l-319 -408l-99 74l265 334l-265 334zM569 920l320 -408l-320 -408l-98 74l264 334l-264 334z" />
    <glyph glyph-name="onequarter" unicode="&#xbc;" horiz-adv-x="1699" 
d="M356 1364h117v-979h-143v811l-125 -63l-62 122zM1272 979h149l-303 -619h262v232h144v-232h84v-135h-84v-225h-144v225h-424v109zM1147 1366h131l-737 -1366h-131z" />
    <glyph glyph-name="onehalf" unicode="&#xbd;" horiz-adv-x="1830" 
d="M356 1364h117v-979h-143v811l-125 -63l-62 122zM1268 809l-84 109q98 73 231 73q122 0 203 -63q100 -80 100 -213q0 -65 -22 -114t-86 -134l-256 -332h375v-135h-568v113l330 430q54 70 69 99t15 71q0 70 -47 110q-39 33 -113 33q-88 0 -147 -47zM1147 1366h131
l-737 -1366h-131z" />
    <glyph glyph-name="threequarters" unicode="&#xbe;" horiz-adv-x="1802" 
d="M182 1194l-84 109q100 73 234 73q126 0 207 -65q98 -80 98 -209q0 -128 -105 -209q60 -42 90.5 -102.5t30.5 -128.5q0 -69 -28.5 -125.5t-73.5 -92.5q-84 -71 -219 -71q-149 0 -250 84l88 104q59 -53 162 -53q81 0 127 37q51 44 51 117q0 75 -53 122q-26 23 -62 30
t-119 7h-18v135h18q77 0 110 6.5t58 26.5q50 43 50 113q0 66 -50 106q-45 33 -112 33q-91 0 -150 -47zM1374 979h150l-303 -619h262v232h143v-232h84v-135h-84v-225h-143v225h-424v109zM1249 1366h131l-737 -1366h-131z" />
    <glyph glyph-name="questiondown" unicode="&#xbf;" horiz-adv-x="792" 
d="M522 793q-46 0 -75 29t-29 75t29 75t75 29t75.5 -29t29.5 -75t-29.5 -75t-75.5 -29zM532 -387q-161 0 -272 84q-62 47 -99.5 124t-37.5 165q0 173 135 284q19 16 70.5 50.5t79 63t41.5 69.5q12 35 14 94l4 96h111q4 -76 4 -113q0 -52 -11 -106q-10 -49 -39 -93t-53 -66
t-67.5 -56t-53.5 -43q-84 -74 -84 -180q0 -111 80 -176q66 -54 178 -54q142 0 236 76l90 -115q-133 -104 -326 -104z" />
    <glyph glyph-name="Agrave" unicode="&#xc0;" horiz-adv-x="1216" 
d="M365 1753h159l154 -246h-135zM608 1376q90 0 150 -57q28 -26 45.5 -67t48.5 -158l293 -1094h-156l-106 399h-549l-107 -399h-155l293 1094q31 117 48.5 158t45.5 67q60 57 149 57zM373 543h471l-139 518q-36 138 -54 156q-16 16 -43 16t-43 -16q-17 -17 -53 -156z" />
    <glyph glyph-name="Aacute" unicode="&#xc1;" horiz-adv-x="1216" 
d="M803 1753l-178 -246h-136l154 246h160zM608 1376q90 0 150 -57q28 -26 45.5 -67t48.5 -158l293 -1094h-156l-106 399h-549l-107 -399h-155l293 1094q31 117 48.5 158t45.5 67q60 57 149 57zM373 543h471l-139 518q-36 138 -54 156q-16 16 -43 16t-43 -16
q-17 -17 -53 -156z" />
    <glyph glyph-name="Acircumflex" unicode="&#xc2;" horiz-adv-x="1216" 
d="M504 1753h160l194 -246h-135l-139 156l-140 -156h-135zM608 1376q90 0 150 -57q28 -26 45.5 -67t48.5 -158l293 -1094h-156l-106 399h-549l-107 -399h-155l293 1094q31 117 48.5 158t45.5 67q60 57 149 57zM373 543h471l-139 518q-36 138 -54 156q-16 16 -43 16t-43 -16
q-17 -17 -53 -156z" />
    <glyph glyph-name="Atilde" unicode="&#xc3;" horiz-adv-x="1216" 
d="M707 1516q-62 0 -150 45q-5 2 -22 10.5t-25 11.5t-22 6.5t-27 3.5q-28 0 -47 -18t-19 -47h-114q0 73 52.5 122.5t127.5 49.5q61 0 149 -45q6 -3 22.5 -11t25 -11.5t22.5 -7t27 -3.5q28 0 46.5 18.5t18.5 47.5h115q0 -73 -52.5 -122.5t-127.5 -49.5zM608 1376
q90 0 150 -57q28 -26 45.5 -67t48.5 -158l293 -1094h-156l-106 399h-549l-107 -399h-155l293 1094q31 117 48.5 158t45.5 67q60 57 149 57zM373 543h471l-139 518q-36 138 -54 156q-16 16 -43 16t-43 -16q-17 -17 -53 -156z" />
    <glyph glyph-name="Adieresis" unicode="&#xc4;" horiz-adv-x="1216" 
d="M768 1708q43 0 69.5 -26.5t26.5 -69.5t-26.5 -69.5t-69.5 -26.5t-69.5 26.5t-26.5 69.5t26.5 69.5t69.5 26.5zM399 1708q43 0 70 -26.5t27 -69.5t-27 -69.5t-70 -26.5t-69.5 26.5t-26.5 69.5t26.5 69.5t69.5 26.5zM608 1376q90 0 150 -57q28 -26 45.5 -67t48.5 -158
l293 -1094h-156l-106 399h-549l-107 -399h-155l293 1094q31 117 48.5 158t45.5 67q60 57 149 57zM373 543h471l-139 518q-36 138 -54 156q-16 16 -43 16t-43 -16q-17 -17 -53 -156z" />
    <glyph glyph-name="Aring" unicode="&#xc5;" horiz-adv-x="1216" 
d="M584 1808q80 0 129 -48.5t49 -129.5q0 -80 -49 -129t-129 -49q-78 0 -128 49.5t-50 128.5q0 81 49.5 129.5t128.5 48.5zM584 1726q-41 0 -65.5 -27t-24.5 -69t24.5 -68t65.5 -26t66.5 26.5t25.5 67.5q0 42 -25.5 69t-66.5 27zM608 1376q90 0 150 -57q28 -26 45.5 -67
t48.5 -158l293 -1094h-156l-106 399h-549l-107 -399h-155l293 1094q31 117 48.5 158t45.5 67q60 57 149 57zM373 543h471l-139 518q-36 138 -54 156q-16 16 -43 16t-43 -16q-17 -17 -53 -156z" />
    <glyph glyph-name="AE" unicode="&#xc6;" horiz-adv-x="1515" 
d="M748 543v678h-105q-67 0 -84 -17t-53 -155l-133 -506h375zM899 1221v-447l401 2v-143l-401 -2v-314q0 -74 5.5 -105t29.5 -50q17 -13 44.5 -16t90.5 -3h313v-143h-313q-59 0 -90 2t-74.5 15t-75.5 40q-29 26 -47 55t-24.5 67.5t-8 63t-1.5 74.5v82h-414l-107 -399h-155
l286 1081q31 117 49 158.5t46 67.5q60 57 190 57h739v-143h-483z" />
    <glyph glyph-name="Ccedilla" unicode="&#xc7;" horiz-adv-x="1099" 
d="M465 -262q46 -19 84 -19q43 0 74 15q41 23 41 61q0 36 -33 53q-18 9 -51 9h-76l41 133q-160 13 -264 102q-43 37 -72 83.5t-44 86.5t-22.5 101t-8.5 99t-1 109v222q0 70 1 107.5t8.5 98.5t22 101t43.5 86.5t71 83.5q121 106 315 106q98 0 193 -30t169 -89l-90 -114
q-113 90 -272 90q-132 0 -209 -66q-29 -25 -48.5 -57.5t-30 -61.5t-15.5 -78t-5.5 -80.5t-0.5 -96.5v-222q0 -82 1.5 -121t10.5 -93t30 -90.5t56 -67.5q77 -68 211 -68q86 0 161.5 28t127.5 74l94 -112q-143 -119 -342 -131l-19 -66q29 0 42 -0.5t34 -6.5t39 -19
q47 -35 47 -101q0 -76 -63 -131q-63 -53 -166 -53q-63 0 -117 22z" />
    <glyph glyph-name="Egrave" unicode="&#xc8;" horiz-adv-x="1044" 
d="M303 1753h160l153 -246h-135zM305 774l483 2v-143l-483 -2v-314q0 -74 5.5 -105t29.5 -50q17 -13 44.5 -16t90.5 -3h436v-143h-436q-59 0 -90 2t-74 15t-75 40q-29 26 -47 55t-25 67t-8.5 63.5t-1.5 74.5v730q0 49 1.5 74.5t8.5 63.5t25 67t47 55q32 27 75 40t74 15t90 2
h436v-143h-436q-63 0 -90.5 -3t-44.5 -16q-24 -19 -29.5 -50t-5.5 -105v-273z" />
    <glyph glyph-name="Eacute" unicode="&#xc9;" horiz-adv-x="1044" 
d="M741 1753l-178 -246h-135l154 246h159zM305 774l483 2v-143l-483 -2v-314q0 -74 5.5 -105t29.5 -50q17 -13 44.5 -16t90.5 -3h436v-143h-436q-59 0 -90 2t-74 15t-75 40q-29 26 -47 55t-25 67t-8.5 63.5t-1.5 74.5v730q0 49 1.5 74.5t8.5 63.5t25 67t47 55q32 27 75 40
t74 15t90 2h436v-143h-436q-63 0 -90.5 -3t-44.5 -16q-24 -19 -29.5 -50t-5.5 -105v-273z" />
    <glyph glyph-name="Ecircumflex" unicode="&#xca;" horiz-adv-x="1044" 
d="M442 1753h160l195 -246h-135l-140 156l-139 -156h-135zM305 774l483 2v-143l-483 -2v-314q0 -74 5.5 -105t29.5 -50q17 -13 44.5 -16t90.5 -3h436v-143h-436q-59 0 -90 2t-74 15t-75 40q-29 26 -47 55t-25 67t-8.5 63.5t-1.5 74.5v730q0 49 1.5 74.5t8.5 63.5t25 67
t47 55q32 27 75 40t74 15t90 2h436v-143h-436q-63 0 -90.5 -3t-44.5 -16q-24 -19 -29.5 -50t-5.5 -105v-273z" />
    <glyph glyph-name="Edieresis" unicode="&#xcb;" horiz-adv-x="1044" 
d="M707 1708q43 0 69.5 -26.5t26.5 -69.5t-26.5 -69.5t-69.5 -26.5t-70 26.5t-27 69.5t27 69.5t70 26.5zM338 1708q43 0 69.5 -26.5t26.5 -69.5t-26.5 -69.5t-69.5 -26.5t-69.5 26.5t-26.5 69.5t26.5 69.5t69.5 26.5zM305 774l483 2v-143l-483 -2v-314q0 -74 5.5 -105
t29.5 -50q17 -13 44.5 -16t90.5 -3h436v-143h-436q-59 0 -90 2t-74 15t-75 40q-29 26 -47 55t-25 67t-8.5 63.5t-1.5 74.5v730q0 49 1.5 74.5t8.5 63.5t25 67t47 55q32 27 75 40t74 15t90 2h436v-143h-436q-63 0 -90.5 -3t-44.5 -16q-24 -19 -29.5 -50t-5.5 -105v-273z" />
    <glyph glyph-name="Igrave" unicode="&#xcc;" horiz-adv-x="458" 
d="M10 1751h160l154 -246h-136zM305 1364v-1364h-151v1364h151z" />
    <glyph glyph-name="Iacute" unicode="&#xcd;" horiz-adv-x="458" 
d="M449 1751l-179 -246h-135l154 246h160zM305 1364v-1364h-151v1364h151z" />
    <glyph glyph-name="Icircumflex" unicode="&#xce;" horiz-adv-x="458" 
d="M150 1751h159l195 -246h-135l-140 156l-139 -156h-135zM305 1364v-1364h-151v1364h151z" />
    <glyph glyph-name="Idieresis" unicode="&#xcf;" horiz-adv-x="458" 
d="M414 1706q43 0 69.5 -26.5t26.5 -69.5t-26.5 -70t-69.5 -27t-70 27t-27 70t27 69.5t70 26.5zM45 1706q43 0 69.5 -26.5t26.5 -69.5t-26.5 -70t-69.5 -27t-69.5 27t-26.5 70t26.5 69.5t69.5 26.5zM305 1364v-1364h-151v1364h151z" />
    <glyph glyph-name="Eth" unicode="&#xd0;" horiz-adv-x="1288" 
d="M578 1221q-64 0 -91.5 -3t-44.5 -16t-24.5 -36.5t-8.5 -44.5t-1 -74v-279h264v-127h-264v-324q0 -53 1 -74t8.5 -44.5t24.5 -36.5t44.5 -16t91.5 -3q37 0 56.5 0.5t55 2.5t57 6.5t52.5 13.5t52.5 22t44.5 32.5t40 45.5q25 36 40 77.5t21.5 102t7.5 103.5t1 133t-1 133
t-7.5 103.5t-21.5 102t-40 77.5q-17 26 -40 45.5t-44.5 32.5t-52.5 22t-52.5 13.5t-57 6.5t-55 2.5t-56.5 0.5zM578 1364q43 0 67 -0.5t69.5 -4t75.5 -10t72.5 -20.5t74 -33.5t65.5 -50t61 -69.5q34 -49 54 -101t28.5 -122.5t10 -120t1.5 -150.5t-1.5 -150.5t-10 -120
t-28.5 -122.5t-54 -101q-27 -39 -61 -69.5t-65.5 -50t-74 -33.5t-72.5 -20.5t-75.5 -10t-69.5 -4t-67 -0.5q-59 0 -90 2t-74.5 15t-75.5 40q-29 26 -47 55t-25 67t-8.5 63.5t-1.5 74.5v324h-143v127h143v279q0 49 1.5 74.5t8.5 63.5t25 67t47 55q32 27 75.5 40t74.5 15t90 2
z" />
    <glyph glyph-name="Ntilde" unicode="&#xd1;" horiz-adv-x="1134" 
d="M680 1516q-62 0 -150 45q-5 2 -22 10.5t-25 11.5t-22 6.5t-27 3.5q-28 0 -46.5 -18t-18.5 -47h-115q0 73 52.5 122.5t127.5 49.5q62 0 150 -45q6 -3 22 -10.5t24.5 -11.5t22.5 -7.5t27 -3.5q28 0 46.5 18.5t18.5 47.5h115q0 -73 -52.5 -122.5t-127.5 -49.5zM567 1376
q96 0 179.5 -34t138.5 -97q38 -44 61 -92.5t32 -114t11 -110.5t2 -135v-793h-151v793q0 80 -1 118t-7.5 90.5t-21.5 87t-40 62.5q-73 82 -203 82q-129 0 -202 -82q-25 -28 -40 -62.5t-21.5 -87t-7.5 -90.5t-1 -118v-793h-152v793q0 88 2 134.5t11.5 111.5t32.5 113.5
t61 92.5q55 63 138 97t179 34z" />
    <glyph glyph-name="Ograve" unicode="&#xd2;" horiz-adv-x="1196" 
d="M395 1751h160l154 -246h-136zM285 682q0 -130 2 -188.5t14 -124t37 -107.5q37 -62 105.5 -96.5t154.5 -34.5t154.5 34.5t105.5 96.5q25 42 37 107.5t14 124t2 188.5t-2 188.5t-14 124t-37 107.5q-37 62 -105.5 96.5t-154.5 34.5t-154.5 -34.5t-105.5 -96.5
q-25 -42 -37 -107.5t-14 -124t-2 -188.5zM133 682q0 149 2.5 215t19 142.5t52.5 134.5q58 95 160.5 148.5t230.5 53.5t230.5 -53.5t160.5 -148.5q51 -83 62.5 -180.5t11.5 -311.5q0 -149 -2.5 -215t-19 -142.5t-52.5 -134.5q-58 -95 -160.5 -148.5t-230.5 -53.5t-230.5 53.5
t-160.5 148.5q-51 83 -62.5 180.5t-11.5 311.5z" />
    <glyph glyph-name="Oacute" unicode="&#xd3;" horiz-adv-x="1196" 
d="M834 1751l-179 -246h-135l154 246h160zM285 682q0 -130 2 -188.5t14 -124t37 -107.5q37 -62 105.5 -96.5t154.5 -34.5t154.5 34.5t105.5 96.5q25 42 37 107.5t14 124t2 188.5t-2 188.5t-14 124t-37 107.5q-37 62 -105.5 96.5t-154.5 34.5t-154.5 -34.5t-105.5 -96.5
q-25 -42 -37 -107.5t-14 -124t-2 -188.5zM133 682q0 149 2.5 215t19 142.5t52.5 134.5q58 95 160.5 148.5t230.5 53.5t230.5 -53.5t160.5 -148.5q51 -83 62.5 -180.5t11.5 -311.5q0 -149 -2.5 -215t-19 -142.5t-52.5 -134.5q-58 -95 -160.5 -148.5t-230.5 -53.5t-230.5 53.5
t-160.5 148.5q-51 83 -62.5 180.5t-11.5 311.5z" />
    <glyph glyph-name="Ocircumflex" unicode="&#xd4;" horiz-adv-x="1196" 
d="M535 1751h159l195 -246h-135l-140 156l-139 -156h-135zM285 682q0 -130 2 -188.5t14 -124t37 -107.5q37 -62 105.5 -96.5t154.5 -34.5t154.5 34.5t105.5 96.5q25 42 37 107.5t14 124t2 188.5t-2 188.5t-14 124t-37 107.5q-37 62 -105.5 96.5t-154.5 34.5t-154.5 -34.5
t-105.5 -96.5q-25 -42 -37 -107.5t-14 -124t-2 -188.5zM133 682q0 149 2.5 215t19 142.5t52.5 134.5q58 95 160.5 148.5t230.5 53.5t230.5 -53.5t160.5 -148.5q51 -83 62.5 -180.5t11.5 -311.5q0 -149 -2.5 -215t-19 -142.5t-52.5 -134.5q-58 -95 -160.5 -148.5
t-230.5 -53.5t-230.5 53.5t-160.5 148.5q-51 83 -62.5 180.5t-11.5 311.5z" />
    <glyph glyph-name="Otilde" unicode="&#xd5;" horiz-adv-x="1196" 
d="M737 1513q-59 0 -149 46q-5 2 -22 10.5t-25 11.5t-22 6.5t-27 3.5q-28 0 -47 -18t-19 -47h-115q0 73 52.5 122.5t128.5 49.5q61 0 149 -45q6 -3 22 -10.5t24.5 -11.5t22.5 -7.5t27 -3.5q28 0 47 18.5t19 47.5h115q0 -73 -53 -123t-128 -50zM285 682q0 -130 2 -188.5
t14 -124t37 -107.5q37 -62 105.5 -96.5t154.5 -34.5t154.5 34.5t105.5 96.5q25 42 37 107.5t14 124t2 188.5t-2 188.5t-14 124t-37 107.5q-37 62 -105.5 96.5t-154.5 34.5t-154.5 -34.5t-105.5 -96.5q-25 -42 -37 -107.5t-14 -124t-2 -188.5zM133 682q0 149 2.5 215
t19 142.5t52.5 134.5q58 95 160.5 148.5t230.5 53.5t230.5 -53.5t160.5 -148.5q51 -83 62.5 -180.5t11.5 -311.5q0 -149 -2.5 -215t-19 -142.5t-52.5 -134.5q-58 -95 -160.5 -148.5t-230.5 -53.5t-230.5 53.5t-160.5 148.5q-51 83 -62.5 180.5t-11.5 311.5z" />
    <glyph glyph-name="Odieresis" unicode="&#xd6;" horiz-adv-x="1196" 
d="M799 1706q43 0 69.5 -26.5t26.5 -69.5t-26.5 -70t-69.5 -27t-70 27t-27 70t27 69.5t70 26.5zM430 1706q43 0 69.5 -26.5t26.5 -69.5t-26.5 -70t-69.5 -27t-69.5 27t-26.5 70t26.5 69.5t69.5 26.5zM285 682q0 -130 2 -188.5t14 -124t37 -107.5q37 -62 105.5 -96.5
t154.5 -34.5t154.5 34.5t105.5 96.5q25 42 37 107.5t14 124t2 188.5t-2 188.5t-14 124t-37 107.5q-37 62 -105.5 96.5t-154.5 34.5t-154.5 -34.5t-105.5 -96.5q-25 -42 -37 -107.5t-14 -124t-2 -188.5zM133 682q0 149 2.5 215t19 142.5t52.5 134.5q58 95 160.5 148.5
t230.5 53.5t230.5 -53.5t160.5 -148.5q51 -83 62.5 -180.5t11.5 -311.5q0 -149 -2.5 -215t-19 -142.5t-52.5 -134.5q-58 -95 -160.5 -148.5t-230.5 -53.5t-230.5 53.5t-160.5 148.5q-51 83 -62.5 180.5t-11.5 311.5z" />
    <glyph glyph-name="multiply" unicode="&#xd7;" horiz-adv-x="1064" 
d="M299 193l-86 86l236 233l-236 233l86 86l233 -235l234 235l86 -86l-236 -233l236 -233l-86 -86l-234 235z" />
    <glyph glyph-name="Oslash" unicode="&#xd8;" horiz-adv-x="1228" 
d="M614 1233q-76 0 -141.5 -27.5t-107.5 -77.5q-29 -34 -46 -72.5t-24 -94.5t-8.5 -95.5t-1.5 -120.5v-127q0 -85 1.5 -127.5t10 -98t25.5 -95.5l512 864q-84 72 -220 72zM614 1376q168 0 293 -88l70 117h129l-117 -197q38 -47 61 -99t32.5 -118.5t11.5 -113t2 -132.5v-127
q0 -88 -2 -133.5t-11.5 -113t-33 -119.5t-62.5 -100q-66 -81 -164 -122.5t-209 -41.5q-167 0 -292 88l-70 -117h-129l117 197q-38 47 -61 99t-32.5 118t-11.5 112.5t-2 132.5v127q0 88 2 134t11.5 113.5t33 119.5t62.5 100q66 81 163.5 122.5t208.5 41.5zM393 203
q81 -72 221 -72q76 0 142 27.5t108 77.5q29 34 46 72.5t24 94t8.5 95t1.5 120.5v127q0 88 -1.5 130.5t-10.5 97t-27 94.5z" />
    <glyph glyph-name="Ugrave" unicode="&#xd9;" horiz-adv-x="1134" 
d="M365 1751h159l154 -246h-135zM143 1364h152v-793q0 -80 1 -118t7.5 -90.5t21.5 -87t40 -62.5q73 -82 202 -82q130 0 203 82q25 28 40 62.5t21.5 87t7.5 90.5t1 118v793h151v-793q0 -90 -2 -135t-11 -110.5t-32 -114t-61 -92.5q-55 -63 -138.5 -97t-179.5 -34t-179 34
t-138 97q-38 44 -61 92.5t-32.5 113.5t-11.5 111.5t-2 134.5v793z" />
    <glyph glyph-name="Uacute" unicode="&#xda;" horiz-adv-x="1134" 
d="M803 1751l-178 -246h-136l154 246h160zM143 1364h152v-793q0 -80 1 -118t7.5 -90.5t21.5 -87t40 -62.5q73 -82 202 -82q130 0 203 82q25 28 40 62.5t21.5 87t7.5 90.5t1 118v793h151v-793q0 -90 -2 -135t-11 -110.5t-32 -114t-61 -92.5q-55 -63 -138.5 -97t-179.5 -34
t-179 34t-138 97q-38 44 -61 92.5t-32.5 113.5t-11.5 111.5t-2 134.5v793z" />
    <glyph glyph-name="Ucircumflex" unicode="&#xdb;" horiz-adv-x="1134" 
d="M504 1751h160l194 -246h-135l-139 156l-140 -156h-135zM143 1364h152v-793q0 -80 1 -118t7.5 -90.5t21.5 -87t40 -62.5q73 -82 202 -82q130 0 203 82q25 28 40 62.5t21.5 87t7.5 90.5t1 118v793h151v-793q0 -90 -2 -135t-11 -110.5t-32 -114t-61 -92.5
q-55 -63 -138.5 -97t-179.5 -34t-179 34t-138 97q-38 44 -61 92.5t-32.5 113.5t-11.5 111.5t-2 134.5v793z" />
    <glyph glyph-name="Udieresis" unicode="&#xdc;" horiz-adv-x="1134" 
d="M768 1706q43 0 69.5 -26.5t26.5 -69.5t-26.5 -70t-69.5 -27t-69.5 27t-26.5 70t26.5 69.5t69.5 26.5zM399 1706q43 0 70 -26.5t27 -69.5t-27 -70t-70 -27t-69.5 27t-26.5 70t26.5 69.5t69.5 26.5zM143 1364h152v-793q0 -80 1 -118t7.5 -90.5t21.5 -87t40 -62.5
q73 -82 202 -82q130 0 203 82q25 28 40 62.5t21.5 87t7.5 90.5t1 118v793h151v-793q0 -90 -2 -135t-11 -110.5t-32 -114t-61 -92.5q-55 -63 -138.5 -97t-179.5 -34t-179 34t-138 97q-38 44 -61 92.5t-32.5 113.5t-11.5 111.5t-2 134.5v793z" />
    <glyph glyph-name="Yacute" unicode="&#xdd;" horiz-adv-x="1044" 
d="M789 1753l-178 -246h-135l153 246h160zM522 766q19 0 33 14q21 21 82 146l201 438h166l-236 -498q-69 -137 -91 -168q-32 -43 -79 -65v-633h-152v633q-48 23 -75 60.5t-82 147.5q-9 16 -13 25l-235 498h166l201 -438q62 -127 81 -146q14 -14 33 -14z" />
    <glyph glyph-name="Thorn" unicode="&#xde;" horiz-adv-x="1064" 
d="M377 1139q64 0 97.5 -1t89 -6.5t92 -17t80 -33.5t79.5 -55q70 -63 103.5 -150.5t33.5 -177.5t-33.5 -177t-103.5 -150q-36 -33 -79.5 -55t-80 -33.5t-92 -17t-89 -6.5t-97.5 -1h-72v-258h-151v1364h151v-225h72zM305 995v-594h72q73 0 107.5 1.5t82.5 7.5t80.5 21.5
t61.5 41.5q92 82 92 225q0 144 -92 226q-23 21 -52.5 35t-53.5 21t-68.5 10.5t-70.5 4t-87 0.5h-72z" />
    <glyph glyph-name="germandbls" unicode="&#xdf;" horiz-adv-x="1034" 
d="M471 1378q118 0 209 -63q59 -41 96 -109.5t37 -152.5q0 -73 -28 -139.5t-74 -112.5q110 -45 163 -129q27 -42 40.5 -92t15.5 -83t2 -87q0 -60 -2.5 -96.5t-22.5 -96t-59 -104.5q-49 -58 -125.5 -91.5t-171.5 -33.5q-70 0 -145 20l36 131q56 -16 109 -16q120 0 182 72
q26 30 38.5 68.5t14.5 66t2 80.5t-1.5 79.5t-13 63t-34.5 65.5q-21 27 -49.5 43.5t-71 23t-72 8t-87.5 1.5v135q88 0 149.5 66t61.5 158q0 97 -72 151q-55 39 -127 39q-99 0 -152 -63q-21 -24 -30.5 -59t-11 -66.5t-1.5 -102.5v-952h-143v952q0 58 1.5 89t8.5 78t24 83.5
t46 67.5q98 108 258 108z" />
    <glyph glyph-name="agrave" unicode="&#xe0;" horiz-adv-x="897" 
d="M227 1364h160l154 -246h-135zM795 410q0 -66 -1.5 -98t-7.5 -77.5t-21.5 -78t-41.5 -62.5q-90 -106 -281 -106q-153 0 -247 67q-55 38 -89 99t-34 137q0 149 121 235q44 32 103 49t94.5 19t92.5 2h168q0 44 -1.5 70t-13 66t-34.5 65q-53 59 -166 59q-128 0 -266 -53
l-45 129q162 59 311 59q183 0 277 -108q29 -33 47 -71t25 -86t8.5 -79t1.5 -86v-151zM651 410v59h-168q-47 0 -72.5 -1.5t-63 -11t-64.5 -28.5q-68 -50 -68 -137q0 -81 66 -129q56 -39 161 -39q121 0 170 57q27 31 33 77t6 153z" />
    <glyph glyph-name="aacute" unicode="&#xe1;" horiz-adv-x="897" 
d="M666 1364l-179 -246h-135l154 246h160zM795 410q0 -66 -1.5 -98t-7.5 -77.5t-21.5 -78t-41.5 -62.5q-90 -106 -281 -106q-153 0 -247 67q-55 38 -89 99t-34 137q0 149 121 235q44 32 103 49t94.5 19t92.5 2h168q0 44 -1.5 70t-13 66t-34.5 65q-53 59 -166 59
q-128 0 -266 -53l-45 129q162 59 311 59q183 0 277 -108q29 -33 47 -71t25 -86t8.5 -79t1.5 -86v-151zM651 410v59h-168q-47 0 -72.5 -1.5t-63 -11t-64.5 -28.5q-68 -50 -68 -137q0 -81 66 -129q56 -39 161 -39q121 0 170 57q27 31 33 77t6 153z" />
    <glyph glyph-name="acircumflex" unicode="&#xe2;" horiz-adv-x="897" 
d="M367 1364h159l195 -246h-135l-140 156l-139 -156h-135zM795 410q0 -66 -1.5 -98t-7.5 -77.5t-21.5 -78t-41.5 -62.5q-90 -106 -281 -106q-153 0 -247 67q-55 38 -89 99t-34 137q0 149 121 235q44 32 103 49t94.5 19t92.5 2h168q0 44 -1.5 70t-13 66t-34.5 65
q-53 59 -166 59q-128 0 -266 -53l-45 129q162 59 311 59q183 0 277 -108q29 -33 47 -71t25 -86t8.5 -79t1.5 -86v-151zM651 410v59h-168q-47 0 -72.5 -1.5t-63 -11t-64.5 -28.5q-68 -50 -68 -137q0 -81 66 -129q56 -39 161 -39q121 0 170 57q27 31 33 77t6 153z" />
    <glyph glyph-name="atilde" unicode="&#xe3;" horiz-adv-x="897" 
d="M569 1126q-61 0 -149 45q-6 3 -22 10.5t-24.5 11.5t-22.5 7.5t-27 3.5q-28 0 -47 -18t-19 -47h-115q0 73 52.5 122.5t128.5 49.5q61 0 149 -45q6 -3 22 -10.5t24.5 -11.5t22.5 -7.5t27 -3.5q28 0 47 18t19 47h115q0 -73 -52.5 -122.5t-128.5 -49.5zM795 410
q0 -66 -1.5 -98t-7.5 -77.5t-21.5 -78t-41.5 -62.5q-90 -106 -281 -106q-153 0 -247 67q-55 38 -89 99t-34 137q0 149 121 235q44 32 103 49t94.5 19t92.5 2h168q0 44 -1.5 70t-13 66t-34.5 65q-53 59 -166 59q-128 0 -266 -53l-45 129q162 59 311 59q183 0 277 -108
q29 -33 47 -71t25 -86t8.5 -79t1.5 -86v-151zM651 410v59h-168q-47 0 -72.5 -1.5t-63 -11t-64.5 -28.5q-68 -50 -68 -137q0 -81 66 -129q56 -39 161 -39q121 0 170 57q27 31 33 77t6 153z" />
    <glyph glyph-name="adieresis" unicode="&#xe4;" horiz-adv-x="897" 
d="M631 1319q43 0 69.5 -26.5t26.5 -69.5t-26.5 -70t-69.5 -27t-69.5 27t-26.5 70t26.5 69.5t69.5 26.5zM262 1319q43 0 69.5 -26.5t26.5 -69.5t-26.5 -70t-69.5 -27t-69.5 27t-26.5 70t26.5 69.5t69.5 26.5zM795 410q0 -66 -1.5 -98t-7.5 -77.5t-21.5 -78t-41.5 -62.5
q-90 -106 -281 -106q-153 0 -247 67q-55 38 -89 99t-34 137q0 149 121 235q44 32 103 49t94.5 19t92.5 2h168q0 44 -1.5 70t-13 66t-34.5 65q-53 59 -166 59q-128 0 -266 -53l-45 129q162 59 311 59q183 0 277 -108q29 -33 47 -71t25 -86t8.5 -79t1.5 -86v-151zM651 410v59
h-168q-47 0 -72.5 -1.5t-63 -11t-64.5 -28.5q-68 -50 -68 -137q0 -81 66 -129q56 -39 161 -39q121 0 170 57q27 31 33 77t6 153z" />
    <glyph glyph-name="aring" unicode="&#xe5;" horiz-adv-x="897" 
d="M446 1419q80 0 129.5 -48.5t49.5 -129.5q0 -79 -49.5 -128.5t-129.5 -49.5q-78 0 -128 49.5t-50 128.5q0 81 49.5 129.5t128.5 48.5zM446 1337q-41 0 -65.5 -27t-24.5 -69t24.5 -68t65.5 -26t67 26.5t26 67.5q0 42 -26 69t-67 27zM795 410q0 -66 -1.5 -98t-7.5 -77.5
t-21.5 -78t-41.5 -62.5q-90 -106 -281 -106q-153 0 -247 67q-55 38 -89 99t-34 137q0 149 121 235q44 32 103 49t94.5 19t92.5 2h168q0 44 -1.5 70t-13 66t-34.5 65q-53 59 -166 59q-128 0 -266 -53l-45 129q162 59 311 59q183 0 277 -108q29 -33 47 -71t25 -86t8.5 -79
t1.5 -86v-151zM651 410v59h-168q-47 0 -72.5 -1.5t-63 -11t-64.5 -28.5q-68 -50 -68 -137q0 -81 66 -129q56 -39 161 -39q121 0 170 57q27 31 33 77t6 153z" />
    <glyph glyph-name="ae" unicode="&#xe6;" horiz-adv-x="1368" 
d="M1133 727q0 60 -48 96q-41 31 -108 31q-104 0 -170 -57q-22 -20 -36 -43t-19.5 -50.5t-7 -46.5t-1.5 -49v-22h193q35 0 51 0.5t42 7t46 20.5q25 16 41.5 46.5t16.5 66.5zM455 459q-42 0 -64 -1t-53 -8.5t-53 -21.5q-60 -42 -60 -133q0 -77 39 -119q47 -53 131 -53
q46 0 89 17.5t69 47.5q22 26 33 60t12.5 56t1.5 61v94h-145zM406 989q188 0 272 -131q103 131 299 131q117 0 194 -57q45 -33 75 -87.5t30 -117.5q0 -68 -31.5 -123t-81.5 -90q-37 -25 -84 -38.5t-74 -15t-69 -1.5h-193v-84q0 -35 1.5 -55t7.5 -51.5t21.5 -57t41.5 -45.5
q53 -43 141 -43q107 0 211 61l68 -118q-143 -78 -279 -78q-187 0 -282 135q-44 -65 -116.5 -100t-162.5 -35q-130 0 -215 75q-98 84 -98 232q0 75 29 133t77 94q31 22 65 36t72.5 19.5t64 7t65.5 1.5h145v43q0 36 -1.5 56.5t-10.5 51.5t-27 54q-51 63 -155 63t-220 -55
l-59 123q144 67 279 67z" />
    <glyph glyph-name="ccedilla" unicode="&#xe7;" horiz-adv-x="858" 
d="M352 -262q46 -19 84 -19q43 0 74 15q41 23 41 61q0 36 -33 53q-18 9 -51 9h-76l42 133q-149 15 -243 119q-35 39 -56.5 87t-29.5 107t-10 95.5t-2 99.5q0 56 2 90t10 90t29 103.5t55 86.5q105 123 293 123q154 0 281 -80l-70 -116q-95 61 -211 61q-118 0 -182 -74
q-29 -34 -44 -90t-17 -93.5t-2 -100.5q0 -73 2 -112t17 -97.5t46 -93.5q62 -72 180 -72q123 0 221 67l74 -114q-114 -76 -253 -87l-19 -65q29 0 41.5 -0.5t33.5 -6.5t39 -19q48 -36 48 -101q0 -75 -64 -131q-63 -53 -166 -53q-63 0 -117 22z" />
    <glyph glyph-name="egrave" unicode="&#xe8;" horiz-adv-x="929" 
d="M281 1364h159l154 -246h-135zM285 209q64 -86 204 -86q138 0 250 59l60 -123q-139 -71 -310 -71q-105 0 -187 36t-132 103q-37 50 -55 116t-20.5 112t-2.5 134q0 76 1.5 112t8 85.5t22 86t42.5 73.5q49 69 137 107t197 38q150 0 245 -76q100 -84 103 -206
q0 -64 -28.5 -116t-74.5 -85q-59 -42 -124.5 -52t-194.5 -10h-188q0 -174 47 -237zM705 709q-3 63 -54 104q-52 43 -151 43q-143 0 -211 -80q-51 -59 -51 -203h188q111 0 155 5t74 28q50 37 50 103z" />
    <glyph glyph-name="eacute" unicode="&#xe9;" horiz-adv-x="929" 
d="M719 1364l-178 -246h-135l153 246h160zM285 209q64 -86 204 -86q138 0 250 59l60 -123q-139 -71 -310 -71q-105 0 -187 36t-132 103q-37 50 -55 116t-20.5 112t-2.5 134q0 76 1.5 112t8 85.5t22 86t42.5 73.5q49 69 137 107t197 38q150 0 245 -76q100 -84 103 -206
q0 -64 -28.5 -116t-74.5 -85q-59 -42 -124.5 -52t-194.5 -10h-188q0 -174 47 -237zM705 709q-3 63 -54 104q-52 43 -151 43q-143 0 -211 -80q-51 -59 -51 -203h188q111 0 155 5t74 28q50 37 50 103z" />
    <glyph glyph-name="ecircumflex" unicode="&#xea;" horiz-adv-x="929" 
d="M420 1364h160l194 -246h-135l-139 156l-140 -156h-135zM285 209q64 -86 204 -86q138 0 250 59l60 -123q-139 -71 -310 -71q-105 0 -187 36t-132 103q-37 50 -55 116t-20.5 112t-2.5 134q0 76 1.5 112t8 85.5t22 86t42.5 73.5q49 69 137 107t197 38q150 0 245 -76
q100 -84 103 -206q0 -64 -28.5 -116t-74.5 -85q-59 -42 -124.5 -52t-194.5 -10h-188q0 -174 47 -237zM705 709q-3 63 -54 104q-52 43 -151 43q-143 0 -211 -80q-51 -59 -51 -203h188q111 0 155 5t74 28q50 37 50 103z" />
    <glyph glyph-name="edieresis" unicode="&#xeb;" horiz-adv-x="929" 
d="M684 1319q43 0 69.5 -26.5t26.5 -69.5t-26.5 -70t-69.5 -27t-69.5 27t-26.5 70t26.5 69.5t69.5 26.5zM315 1319q43 0 70 -26.5t27 -69.5t-27 -70t-70 -27t-69.5 27t-26.5 70t26.5 69.5t69.5 26.5zM285 209q64 -86 204 -86q138 0 250 59l60 -123q-139 -71 -310 -71
q-105 0 -187 36t-132 103q-37 50 -55 116t-20.5 112t-2.5 134q0 76 1.5 112t8 85.5t22 86t42.5 73.5q49 69 137 107t197 38q150 0 245 -76q100 -84 103 -206q0 -64 -28.5 -116t-74.5 -85q-59 -42 -124.5 -52t-194.5 -10h-188q0 -174 47 -237zM705 709q-3 63 -54 104
q-52 43 -151 43q-143 0 -211 -80q-51 -59 -51 -203h188q111 0 155 5t74 28q50 37 50 103z" />
    <glyph glyph-name="igrave" unicode="&#xec;" horiz-adv-x="438" 
d="M0 1364h160l153 -246h-135zM147 977h144v-977h-144v977z" />
    <glyph glyph-name="iacute" unicode="&#xed;" horiz-adv-x="438" 
d="M438 1364l-178 -246h-135l154 246h159zM147 977h144v-977h-144v977z" />
    <glyph glyph-name="icircumflex" unicode="&#xee;" horiz-adv-x="438" 
d="M139 1364h160l195 -246h-136l-139 156l-139 -156h-135zM147 977h144v-977h-144v977z" />
    <glyph glyph-name="idieresis" unicode="&#xef;" horiz-adv-x="438" 
d="M403 1319q43 0 70 -26.5t27 -69.5t-27 -70t-70 -27t-69.5 27t-26.5 70t26.5 69.5t69.5 26.5zM35 1319q43 0 69.5 -26.5t26.5 -69.5t-26.5 -70t-69.5 -27t-69.5 27t-26.5 70t26.5 69.5t69.5 26.5zM147 977h144v-977h-144v977z" />
    <glyph glyph-name="eth" unicode="&#xf0;" horiz-adv-x="993" 
d="M492 856q-109 0 -170 -68q-31 -35 -46.5 -89t-17.5 -94t-2 -116t2 -116t17.5 -94t46.5 -89q60 -67 170 -67t170 67q24 26 38 58.5t19.5 78.5t6.5 74.5t1 87.5t-1 87.5t-6.5 74.5t-19.5 78.5t-38 58.5q-61 68 -170 68zM481 991q132 0 224 -92q-35 171 -140 307l-178 -98
l-53 94l153 84q-77 65 -161 94l36 101q133 -44 236 -133l182 100l54 -94l-156 -84q99 -132 145.5 -318.5t46.5 -462.5q0 -59 -1 -90.5t-7 -84t-21.5 -95t-41.5 -80.5q-50 -73 -131 -112t-176 -39t-176.5 39t-131.5 112q-26 38 -41.5 80.5t-21.5 95t-7 84t-1 90.5
q0 71 2 108.5t10 93t29 99t55 84.5q46 54 116.5 85.5t155.5 31.5z" />
    <glyph glyph-name="ntilde" unicode="&#xf1;" horiz-adv-x="942" 
d="M608 1126q-61 0 -149 45q-6 3 -22.5 11t-25 11.5t-22.5 7t-27 3.5q-28 0 -46.5 -18t-18.5 -47h-115q0 73 52.5 122.5t127.5 49.5q62 0 150 -45q6 -3 22 -10.5t24.5 -11.5t22.5 -7.5t27 -3.5q28 0 47 18t19 47h114q0 -73 -52.5 -122.5t-127.5 -49.5zM471 991
q162 0 262 -104q34 -36 55 -76t29 -92.5t10 -88.5t2 -106v-524h-143v524q0 80 -2 118t-15.5 82.5t-41.5 72.5q-59 59 -156 59t-156 -59q-28 -28 -41.5 -72.5t-15.5 -82.5t-2 -118v-524h-143v524q0 70 2 106t10 88.5t29 92.5t55 76q100 104 262 104z" />
    <glyph glyph-name="ograve" unicode="&#xf2;" 
d="M283 1364h159l154 -246h-135zM481 856q-134 0 -200 -98q-21 -32 -31.5 -80.5t-12 -84t-1.5 -104.5q0 -68 1.5 -104t12 -84t31.5 -80q66 -98 200 -98q135 0 201 98q21 32 31.5 80t12 84t1.5 104q0 69 -1.5 104.5t-12 84t-31.5 80.5q-66 98 -201 98zM481 991q108 0 194 -46
t136 -128q28 -46 41.5 -106.5t15.5 -102t2 -119.5q0 -77 -2 -118.5t-15.5 -102t-41.5 -106.5q-50 -82 -136 -128t-194 -46t-193.5 46t-135.5 128q-28 46 -42 106t-16 102.5t-2 118.5t2 119t16 103t42 106q50 82 135.5 128t193.5 46z" />
    <glyph glyph-name="oacute" unicode="&#xf3;" 
d="M721 1364l-178 -246h-135l153 246h160zM481 856q-134 0 -200 -98q-21 -32 -31.5 -80.5t-12 -84t-1.5 -104.5q0 -68 1.5 -104t12 -84t31.5 -80q66 -98 200 -98q135 0 201 98q21 32 31.5 80t12 84t1.5 104q0 69 -1.5 104.5t-12 84t-31.5 80.5q-66 98 -201 98zM481 991
q108 0 194 -46t136 -128q28 -46 41.5 -106.5t15.5 -102t2 -119.5q0 -77 -2 -118.5t-15.5 -102t-41.5 -106.5q-50 -82 -136 -128t-194 -46t-193.5 46t-135.5 128q-28 46 -42 106t-16 102.5t-2 118.5t2 119t16 103t42 106q50 82 135.5 128t193.5 46z" />
    <glyph glyph-name="ocircumflex" unicode="&#xf4;" 
d="M422 1364h160l194 -246h-135l-139 156l-140 -156h-135zM481 856q-134 0 -200 -98q-21 -32 -31.5 -80.5t-12 -84t-1.5 -104.5q0 -68 1.5 -104t12 -84t31.5 -80q66 -98 200 -98q135 0 201 98q21 32 31.5 80t12 84t1.5 104q0 69 -1.5 104.5t-12 84t-31.5 80.5
q-66 98 -201 98zM481 991q108 0 194 -46t136 -128q28 -46 41.5 -106.5t15.5 -102t2 -119.5q0 -77 -2 -118.5t-15.5 -102t-41.5 -106.5q-50 -82 -136 -128t-194 -46t-193.5 46t-135.5 128q-28 46 -42 106t-16 102.5t-2 118.5t2 119t16 103t42 106q50 82 135.5 128t193.5 46z
" />
    <glyph glyph-name="otilde" unicode="&#xf5;" 
d="M625 1126q-62 0 -150 45q-6 3 -22 10.5t-24.5 11.5t-22.5 7.5t-27 3.5q-28 0 -47 -18t-19 -47h-114q0 73 52.5 122.5t127.5 49.5q61 0 149 -45q6 -3 22.5 -11t25 -11.5t22.5 -7t27 -3.5q28 0 46.5 18t18.5 47h115q0 -73 -52.5 -122.5t-127.5 -49.5zM481 856
q-134 0 -200 -98q-21 -32 -31.5 -80.5t-12 -84t-1.5 -104.5q0 -68 1.5 -104t12 -84t31.5 -80q66 -98 200 -98q135 0 201 98q21 32 31.5 80t12 84t1.5 104q0 69 -1.5 104.5t-12 84t-31.5 80.5q-66 98 -201 98zM481 991q108 0 194 -46t136 -128q28 -46 41.5 -106.5t15.5 -102
t2 -119.5q0 -77 -2 -118.5t-15.5 -102t-41.5 -106.5q-50 -82 -136 -128t-194 -46t-193.5 46t-135.5 128q-28 46 -42 106t-16 102.5t-2 118.5t2 119t16 103t42 106q50 82 135.5 128t193.5 46z" />
    <glyph glyph-name="odieresis" unicode="&#xf6;" 
d="M686 1319q43 0 69.5 -26.5t26.5 -69.5t-26.5 -70t-69.5 -27t-69.5 27t-26.5 70t26.5 69.5t69.5 26.5zM317 1319q43 0 70 -26.5t27 -69.5t-27 -70t-70 -27t-69.5 27t-26.5 70t26.5 69.5t69.5 26.5zM481 856q-134 0 -200 -98q-21 -32 -31.5 -80.5t-12 -84t-1.5 -104.5
q0 -68 1.5 -104t12 -84t31.5 -80q66 -98 200 -98q135 0 201 98q21 32 31.5 80t12 84t1.5 104q0 69 -1.5 104.5t-12 84t-31.5 80.5q-66 98 -201 98zM481 991q108 0 194 -46t136 -128q28 -46 41.5 -106.5t15.5 -102t2 -119.5q0 -77 -2 -118.5t-15.5 -102t-41.5 -106.5
q-50 -82 -136 -128t-194 -46t-193.5 46t-135.5 128q-28 46 -42 106t-16 102.5t-2 118.5t2 119t16 103t42 106q50 82 135.5 128t193.5 46z" />
    <glyph glyph-name="divide" unicode="&#xf7;" horiz-adv-x="1064" 
d="M164 573h737v-118h-737v118zM535 899q41 0 67.5 -26t26.5 -66q0 -41 -26.5 -67.5t-67.5 -26.5t-68 26.5t-27 67.5q0 40 27 66t68 26zM535 305q41 0 67.5 -26.5t26.5 -67.5q0 -40 -26.5 -66t-67.5 -26t-68 26t-27 66q0 41 27 67.5t68 26.5z" />
    <glyph glyph-name="oslash" unicode="&#xf8;" horiz-adv-x="1003" 
d="M502 856q-132 0 -195 -88q-24 -34 -36 -83.5t-13.5 -86.5t-1.5 -109q0 -60 1 -91t7.5 -73.5t20.5 -74.5l368 561q-61 45 -151 45zM502 991q131 0 229 -65l62 94h118l-106 -162q31 -38 49.5 -82t26 -98.5t9 -90t1.5 -98.5q0 -80 -2.5 -124t-19 -110t-50.5 -114
q-52 -76 -136 -114.5t-181 -38.5q-132 0 -230 65l-61 -94h-119l107 162q-31 39 -49.5 82.5t-26 97.5t-9 89t-1.5 99q0 62 1 93.5t7 83.5t21.5 93.5t41.5 78.5q52 76 136.5 114.5t181.5 38.5zM502 123q131 0 194 88q24 34 36 82.5t14 87t2 108.5q0 60 -1 91t-7.5 74t-20.5 75
l-369 -561q61 -45 152 -45z" />
    <glyph glyph-name="ugrave" unicode="&#xf9;" horiz-adv-x="942" 
d="M266 1362h160l154 -246h-136zM113 979h143v-524q0 -80 2 -118t15.5 -82.5t41.5 -72.5q59 -59 156 -59t156 59q28 28 41.5 72.5t15.5 82.5t2 118v524h143v-524q0 -70 -2 -106t-10 -88.5t-29 -92.5t-55 -76q-100 -104 -262 -104t-262 104q-34 36 -55 76t-29 92.5t-10 88.5
t-2 106v524z" />
    <glyph glyph-name="uacute" unicode="&#xfa;" horiz-adv-x="942" 
d="M705 1362l-179 -246h-135l154 246h160zM113 979h143v-524q0 -80 2 -118t15.5 -82.5t41.5 -72.5q59 -59 156 -59t156 59q28 28 41.5 72.5t15.5 82.5t2 118v524h143v-524q0 -70 -2 -106t-10 -88.5t-29 -92.5t-55 -76q-100 -104 -262 -104t-262 104q-34 36 -55 76t-29 92.5
t-10 88.5t-2 106v524z" />
    <glyph glyph-name="ucircumflex" unicode="&#xfb;" horiz-adv-x="942" 
d="M406 1362h159l195 -246h-135l-140 156l-139 -156h-135zM113 979h143v-524q0 -80 2 -118t15.5 -82.5t41.5 -72.5q59 -59 156 -59t156 59q28 28 41.5 72.5t15.5 82.5t2 118v524h143v-524q0 -70 -2 -106t-10 -88.5t-29 -92.5t-55 -76q-100 -104 -262 -104t-262 104
q-34 36 -55 76t-29 92.5t-10 88.5t-2 106v524z" />
    <glyph glyph-name="udieresis" unicode="&#xfc;" horiz-adv-x="942" 
d="M670 1317q43 0 69.5 -26.5t26.5 -69.5t-26.5 -70t-69.5 -27t-70 27t-27 70t27 69.5t70 26.5zM301 1317q43 0 69.5 -26.5t26.5 -69.5t-26.5 -70t-69.5 -27t-69.5 27t-26.5 70t26.5 69.5t69.5 26.5zM113 979h143v-524q0 -80 2 -118t15.5 -82.5t41.5 -72.5q59 -59 156 -59
t156 59q28 28 41.5 72.5t15.5 82.5t2 118v524h143v-524q0 -70 -2 -106t-10 -88.5t-29 -92.5t-55 -76q-100 -104 -262 -104t-262 104q-34 36 -55 76t-29 92.5t-10 88.5t-2 106v524z" />
    <glyph glyph-name="yacute" unicode="&#xfd;" horiz-adv-x="856" 
d="M641 1364l-178 -246h-135l153 246h160zM31 979h149l193 -660q44 -149 57 -169q14 -21 53 -25l185 854h147l-235 -1063q-20 -89 -36.5 -134.5t-47.5 -80.5q-77 -88 -199 -88q-61 0 -137 27l43 127q52 -19 94 -19q53 0 88 35q21 21 34 61.5t36 147.5q-87 12 -133 71
q-7 9 -12 17t-10.5 20.5t-9 21.5t-10.5 30t-11 34.5t-14 46.5t-17 56z" />
    <glyph glyph-name="thorn" unicode="&#xfe;" horiz-adv-x="1003" 
d="M522 991q92 0 171.5 -39t127.5 -112q25 -38 40.5 -81t21 -95t7 -84.5t1.5 -90.5t-1.5 -90.5t-7 -84t-21 -94.5t-40.5 -81q-48 -73 -127.5 -112t-171.5 -39q-160 0 -246 116v-479h-143v1739h143v-490q86 117 246 117zM512 856q-109 0 -170 -68q-31 -35 -46.5 -89
t-17.5 -94t-2 -116t2 -116t17.5 -94t46.5 -89q60 -67 170 -67t170 67q31 35 46.5 89t17.5 94t2 116t-2 116t-17.5 94t-46.5 89q-61 68 -170 68z" />
    <glyph glyph-name="ydieresis" unicode="&#xff;" horiz-adv-x="856" 
d="M606 1321q43 0 69.5 -26.5t26.5 -69.5t-26.5 -70t-69.5 -27t-69.5 27t-26.5 70t26.5 69.5t69.5 26.5zM238 1321q43 0 69.5 -26.5t26.5 -69.5t-26.5 -70t-69.5 -27t-70 27t-27 70t27 69.5t70 26.5zM31 979h149l193 -660q44 -149 57 -169q14 -21 53 -25l185 854h147
l-235 -1063q-20 -89 -36.5 -134.5t-47.5 -80.5q-77 -88 -199 -88q-61 0 -137 27l43 127q52 -19 94 -19q53 0 88 35q21 21 34 61.5t36 147.5q-87 12 -133 71q-7 9 -12 17t-10.5 20.5t-9 21.5t-10.5 30t-11 34.5t-14 46.5t-17 56z" />
    <glyph glyph-name="Amacron" unicode="&#x100;" horiz-adv-x="1216" 
d="M326 1642h512v-114h-512v114zM608 1376q90 0 150 -57q28 -26 45.5 -67t48.5 -158l293 -1094h-156l-106 399h-549l-107 -399h-155l293 1094q31 117 48.5 158t45.5 67q60 57 149 57zM373 543h471l-139 518q-36 138 -54 156q-16 16 -43 16t-43 -16q-17 -17 -53 -156z" />
    <glyph glyph-name="amacron" unicode="&#x101;" horiz-adv-x="897" 
d="M188 1253h512v-114h-512v114zM795 410q0 -66 -1.5 -98t-7.5 -77.5t-21.5 -78t-41.5 -62.5q-90 -106 -281 -106q-153 0 -247 67q-55 38 -89 99t-34 137q0 149 121 235q44 32 103 49t94.5 19t92.5 2h168q0 44 -1.5 70t-13 66t-34.5 65q-53 59 -166 59q-128 0 -266 -53
l-45 129q162 59 311 59q183 0 277 -108q29 -33 47 -71t25 -86t8.5 -79t1.5 -86v-151zM651 410v59h-168q-47 0 -72.5 -1.5t-63 -11t-64.5 -28.5q-68 -50 -68 -137q0 -81 66 -129q56 -39 161 -39q121 0 170 57q27 31 33 77t6 153z" />
    <glyph glyph-name="Abreve" unicode="&#x102;" horiz-adv-x="1216" 
d="M332 1753h114q0 -151 140 -151q72 0 105.5 37.5t33.5 113.5h115q0 -120 -66.5 -189t-187.5 -69t-187.5 69t-66.5 189zM608 1376q90 0 150 -57q28 -26 45.5 -67t48.5 -158l293 -1094h-156l-106 399h-549l-107 -399h-155l293 1094q31 117 48.5 158t45.5 67q60 57 149 57z
M373 543h471l-139 518q-36 138 -54 156q-16 16 -43 16t-43 -16q-17 -17 -53 -156z" />
    <glyph glyph-name="abreve" unicode="&#x103;" horiz-adv-x="897" 
d="M195 1364h114q0 -152 140 -152q139 0 139 152h114q0 -120 -66.5 -189t-186.5 -69q-121 0 -187.5 69t-66.5 189zM795 410q0 -66 -1.5 -98t-7.5 -77.5t-21.5 -78t-41.5 -62.5q-90 -106 -281 -106q-153 0 -247 67q-55 38 -89 99t-34 137q0 149 121 235q44 32 103 49t94.5 19
t92.5 2h168q0 44 -1.5 70t-13 66t-34.5 65q-53 59 -166 59q-128 0 -266 -53l-45 129q162 59 311 59q183 0 277 -108q29 -33 47 -71t25 -86t8.5 -79t1.5 -86v-151zM651 410v59h-168q-47 0 -72.5 -1.5t-63 -11t-64.5 -28.5q-68 -50 -68 -137q0 -81 66 -129q56 -39 161 -39
q121 0 170 57q27 31 33 77t6 153z" />
    <glyph glyph-name="Aogonek" unicode="&#x104;" horiz-adv-x="1216" 
d="M608 1376q90 0 150 -57q28 -26 45.5 -67t48.5 -158l293 -1094q-55 -15 -99 -36t-80 -63.5t-36 -97.5q0 -32 21 -53.5t53 -21.5q34 0 79 28l62 -98q-76 -45 -141 -45q-79 0 -134 55t-55 135q0 122 174 197l-106 399h-549l-107 -399h-155l293 1094q31 117 48.5 158t45.5 67
q60 57 149 57zM373 543h471l-139 518q-36 138 -54 156q-16 16 -43 16t-43 -16q-17 -17 -53 -156z" />
    <glyph glyph-name="aogonek" unicode="&#x105;" horiz-adv-x="897" 
d="M651 410v59h-168q-47 0 -72.5 -1.5t-63 -11t-64.5 -28.5q-68 -50 -68 -137q0 -81 66 -129q56 -39 161 -39q121 0 170 57q27 31 33 77t6 153zM795 410q0 -65 -1.5 -97.5t-7.5 -78.5t-21.5 -78.5t-41.5 -61.5q-21 -24 -80.5 -69.5t-95 -87.5t-35.5 -91q0 -32 21 -53.5
t53 -21.5q35 0 80 28l61 -98q-76 -45 -141 -45q-79 0 -134 55t-55 135q0 41 28 81t64 65q-16 -4 -47 -4q-153 0 -247 67q-55 38 -89 99t-34 137q0 149 121 235q44 32 103 49t94.5 19t92.5 2h168q0 44 -1.5 70t-13 66t-34.5 65q-53 59 -166 59q-128 0 -266 -53l-45 129
q162 59 311 59q183 0 277 -108q29 -33 47 -71t25 -86t8.5 -79t1.5 -86v-151z" />
    <glyph glyph-name="Cacute" unicode="&#x106;" horiz-adv-x="1097" 
d="M813 1751l-178 -246h-135l153 246h160zM594 1376q97 0 190.5 -32t167.5 -93l-88 -114q-116 96 -270 96q-156 0 -238 -103q-50 -65 -60.5 -147.5t-10.5 -300.5q0 -219 10.5 -301.5t60.5 -147.5q81 -102 238 -102q80 0 156 28.5t133 80.5l92 -113q-76 -67 -175.5 -103
t-205.5 -36q-121 0 -213 45t-150 119q-29 38 -48 82t-29 81.5t-14.5 105.5t-5.5 114t-1 147t1 147t5.5 114t14.5 105.5t29 81.5t48 82q58 74 150 119t213 45z" />
    <glyph glyph-name="cacute" unicode="&#x107;" horiz-adv-x="858" 
d="M700 1366l-178 -246h-135l154 246h159zM702 190l74 -114q-133 -88 -295 -88q-183 0 -291 121q-35 39 -56.5 87t-29.5 107t-10 95.5t-2 99.5q0 56 2 90t10 90t29 103.5t55 86.5q105 123 293 123q154 0 281 -80l-70 -116q-95 61 -211 61q-118 0 -182 -74q-29 -34 -44 -90
t-17 -93.5t-2 -100.5q0 -73 2 -112t17 -97.5t46 -93.5q62 -72 180 -72q123 0 221 67z" />
    <glyph glyph-name="Ccircumflex" unicode="&#x108;" horiz-adv-x="1097" 
d="M514 1751h160l194 -246h-135l-139 156l-139 -156h-136zM594 1376q97 0 190.5 -32t167.5 -93l-88 -114q-116 96 -270 96q-156 0 -238 -103q-50 -65 -60.5 -147.5t-10.5 -300.5q0 -219 10.5 -301.5t60.5 -147.5q81 -102 238 -102q80 0 156 28.5t133 80.5l92 -113
q-76 -67 -175.5 -103t-205.5 -36q-121 0 -213 45t-150 119q-29 38 -48 82t-29 81.5t-14.5 105.5t-5.5 114t-1 147t1 147t5.5 114t14.5 105.5t29 81.5t48 82q58 74 150 119t213 45z" />
    <glyph glyph-name="ccircumflex" unicode="&#x109;" horiz-adv-x="858" 
d="M401 1366h160l195 -246h-135l-140 156l-139 -156h-135zM702 190l74 -114q-133 -88 -295 -88q-183 0 -291 121q-35 39 -56.5 87t-29.5 107t-10 95.5t-2 99.5q0 56 2 90t10 90t29 103.5t55 86.5q105 123 293 123q154 0 281 -80l-70 -116q-95 61 -211 61q-118 0 -182 -74
q-29 -34 -44 -90t-17 -93.5t-2 -100.5q0 -73 2 -112t17 -97.5t46 -93.5q62 -72 180 -72q123 0 221 67z" />
    <glyph glyph-name="Cdotaccent" unicode="&#x10a;" horiz-adv-x="1097" 
d="M594 1706q42 0 69 -27t27 -69t-27 -69.5t-69 -27.5t-69 27.5t-27 69.5t27 69t69 27zM594 1376q97 0 190.5 -32t167.5 -93l-88 -114q-116 96 -270 96q-156 0 -238 -103q-50 -65 -60.5 -147.5t-10.5 -300.5q0 -219 10.5 -301.5t60.5 -147.5q81 -102 238 -102q80 0 156 28.5
t133 80.5l92 -113q-76 -67 -175.5 -103t-205.5 -36q-121 0 -213 45t-150 119q-29 38 -48 82t-29 81.5t-14.5 105.5t-5.5 114t-1 147t1 147t5.5 114t14.5 105.5t29 81.5t48 82q58 74 150 119t213 45z" />
    <glyph glyph-name="cdotaccent" unicode="&#x10b;" horiz-adv-x="858" 
d="M481 1321q42 0 69.5 -27t27.5 -69t-27.5 -69.5t-69.5 -27.5q-41 0 -68.5 27t-27.5 70q0 42 27 69t69 27zM702 190l74 -114q-133 -88 -295 -88q-183 0 -291 121q-35 39 -56.5 87t-29.5 107t-10 95.5t-2 99.5q0 56 2 90t10 90t29 103.5t55 86.5q105 123 293 123
q154 0 281 -80l-70 -116q-95 61 -211 61q-118 0 -182 -74q-29 -34 -44 -90t-17 -93.5t-2 -100.5q0 -73 2 -112t17 -97.5t46 -93.5q62 -72 180 -72q123 0 221 67z" />
    <glyph glyph-name="Ccaron" unicode="&#x10c;" horiz-adv-x="1097" 
d="M514 1505l-195 246h136l139 -156l139 156h135l-194 -246h-160zM594 1376q97 0 190.5 -32t167.5 -93l-88 -114q-116 96 -270 96q-156 0 -238 -103q-50 -65 -60.5 -147.5t-10.5 -300.5q0 -219 10.5 -301.5t60.5 -147.5q81 -102 238 -102q80 0 156 28.5t133 80.5l92 -113
q-76 -67 -175.5 -103t-205.5 -36q-121 0 -213 45t-150 119q-29 38 -48 82t-29 81.5t-14.5 105.5t-5.5 114t-1 147t1 147t5.5 114t14.5 105.5t29 81.5t48 82q58 74 150 119t213 45z" />
    <glyph glyph-name="ccaron" unicode="&#x10d;" horiz-adv-x="858" 
d="M401 1120l-194 246h135l139 -156l140 156h135l-195 -246h-160zM702 190l74 -114q-133 -88 -295 -88q-183 0 -291 121q-35 39 -56.5 87t-29.5 107t-10 95.5t-2 99.5q0 56 2 90t10 90t29 103.5t55 86.5q105 123 293 123q154 0 281 -80l-70 -116q-95 61 -211 61
q-118 0 -182 -74q-29 -34 -44 -90t-17 -93.5t-2 -100.5q0 -73 2 -112t17 -97.5t46 -93.5q62 -72 180 -72q123 0 221 67z" />
    <glyph glyph-name="Dcaron" unicode="&#x10e;" horiz-adv-x="1167" 
d="M494 1507l-195 246h135l139 -156l140 156h135l-195 -246h-159zM434 1364q56 0 89 -1t95.5 -8.5t106.5 -21t97 -42t93 -68.5q34 -34 58.5 -72.5t39.5 -85t24 -85t12.5 -98t4.5 -96t1 -104.5t-1 -104.5t-4.5 -96t-12.5 -98t-24 -85t-39.5 -85t-58.5 -72.5
q-40 -40 -93 -68.5t-97 -42t-106.5 -21t-95.5 -8.5t-89 -1q-36 0 -60 2t-65.5 15.5t-72.5 39.5q-29 26 -47 55t-25 67t-8.5 63.5t-1.5 74.5v730q0 49 1.5 74.5t8.5 63.5t25 67t47 55q31 26 72.5 39.5t65.5 15.5t60 2zM434 1221q-68 0 -94 -19q-24 -19 -29.5 -50t-5.5 -105
v-730q0 -74 5.5 -105t29.5 -50q26 -19 94 -19q59 0 96 2t93.5 10t102 29.5t79.5 55.5q35 35 56 78.5t29.5 109t10.5 112.5t2 142t-2 142t-10.5 112.5t-29.5 109t-56 78.5q-34 34 -79.5 55.5t-102 29.5t-93.5 10t-96 2z" />
    <glyph glyph-name="dcaron" unicode="&#x10f;" horiz-adv-x="1327" 
d="M1057 1272q0 47 29 75.5t75 28.5t75.5 -28.5t29.5 -75.5q0 -23 -17 -76l-94 -262h-92l59 240q-29 9 -47 36t-18 62zM461 991q75 0 140 -33t106 -92v498h143v-889q0 -74 -1 -109.5t-7.5 -85.5t-21.5 -86t-40 -71q-44 -62 -119 -98.5t-169 -36.5q-173 0 -285 112
q-41 42 -66 89t-35 103.5t-12 92.5t-2 100q0 69 1.5 106t9.5 93.5t28 101t53 84.5q46 56 117.5 88.5t159.5 32.5zM707 449q0 95 -2.5 142.5t-16.5 103t-43 89.5q-62 72 -174 72t-174 -72q-22 -26 -35 -58.5t-18.5 -77.5t-6.5 -75.5t-1 -87.5q0 -71 2 -107.5t18.5 -90.5
t50.5 -90q68 -74 185 -74q106 0 165 70q23 28 34.5 71.5t13.5 79.5t2 105z" />
    <glyph glyph-name="Dcroat" unicode="&#x110;" horiz-adv-x="1288" 
d="M578 1221q-64 0 -91.5 -3t-44.5 -16t-24.5 -36.5t-8.5 -44.5t-1 -74v-279h264v-127h-264v-324q0 -53 1 -74t8.5 -44.5t24.5 -36.5t44.5 -16t91.5 -3q37 0 56.5 0.5t55 2.5t57 6.5t52.5 13.5t52.5 22t44.5 32.5t40 45.5q25 36 40 77.5t21.5 102t7.5 103.5t1 133t-1 133
t-7.5 103.5t-21.5 102t-40 77.5q-17 26 -40 45.5t-44.5 32.5t-52.5 22t-52.5 13.5t-57 6.5t-55 2.5t-56.5 0.5zM578 1364q43 0 67 -0.5t69.5 -4t75.5 -10t72.5 -20.5t74 -33.5t65.5 -50t61 -69.5q34 -49 54 -101t28.5 -122.5t10 -120t1.5 -150.5t-1.5 -150.5t-10 -120
t-28.5 -122.5t-54 -101q-27 -39 -61 -69.5t-65.5 -50t-74 -33.5t-72.5 -20.5t-75.5 -10t-69.5 -4t-67 -0.5q-59 0 -90 2t-74.5 15t-75.5 40q-29 26 -47 55t-25 67t-8.5 63.5t-1.5 74.5v324h-143v127h143v279q0 49 1.5 74.5t8.5 63.5t25 67t47 55q32 27 75.5 40t74.5 15t90 2
z" />
    <glyph glyph-name="dcroat" unicode="&#x111;" horiz-adv-x="1058" 
d="M481 991q160 0 246 -117v244h-238v127h238v119h143v-119h127v-127h-127v-629q0 -181 -7 -241t-40 -115q-88 -145 -311 -145q-217 0 -322 139q-28 37 -45 78.5t-23 95t-7.5 87t-1.5 101.5q0 60 1 91t7 84t21 95.5t40 80.5q48 73 127.5 112t171.5 39zM492 856
q-109 0 -170 -68q-31 -35 -46.5 -89t-17.5 -94t-2 -116q0 -77 2 -116t15 -91t40 -85q61 -74 199 -74t188 80q19 30 23 79.5t4 206.5q0 59 -1 87.5t-6.5 74.5t-19.5 78.5t-38 58.5q-61 68 -170 68z" />
    <glyph glyph-name="Emacron" unicode="&#x112;" horiz-adv-x="1044" 
d="M264 1642h512v-114h-512v114zM305 774l483 2v-143l-483 -2v-314q0 -74 5.5 -105t29.5 -50q17 -13 44.5 -16t90.5 -3h436v-143h-436q-59 0 -90 2t-74 15t-75 40q-29 26 -47 55t-25 67t-8.5 63.5t-1.5 74.5v730q0 49 1.5 74.5t8.5 63.5t25 67t47 55q32 27 75 40t74 15t90 2
h436v-143h-436q-63 0 -90.5 -3t-44.5 -16q-24 -19 -29.5 -50t-5.5 -105v-273z" />
    <glyph glyph-name="emacron" unicode="&#x113;" horiz-adv-x="929" 
d="M242 1253h512v-114h-512v114zM285 209q64 -86 204 -86q138 0 250 59l60 -123q-139 -71 -310 -71q-105 0 -187 36t-132 103q-37 50 -55 116t-20.5 112t-2.5 134q0 76 1.5 112t8 85.5t22 86t42.5 73.5q49 69 137 107t197 38q150 0 245 -76q100 -84 103 -206
q0 -64 -28.5 -116t-74.5 -85q-59 -42 -124.5 -52t-194.5 -10h-188q0 -174 47 -237zM705 709q-3 63 -54 104q-52 43 -151 43q-143 0 -211 -80q-51 -59 -51 -203h188q111 0 155 5t74 28q50 37 50 103z" />
    <glyph glyph-name="Ebreve" unicode="&#x114;" horiz-adv-x="1044" 
d="M270 1753h115q0 -76 33.5 -113.5t105.5 -37.5q140 0 140 151h114q0 -120 -66.5 -189t-187.5 -69t-187.5 69t-66.5 189zM305 774l483 2v-143l-483 -2v-314q0 -74 5.5 -105t29.5 -50q17 -13 44.5 -16t90.5 -3h436v-143h-436q-59 0 -90 2t-74 15t-75 40q-29 26 -47 55
t-25 67t-8.5 63.5t-1.5 74.5v730q0 49 1.5 74.5t8.5 63.5t25 67t47 55q32 27 75 40t74 15t90 2h436v-143h-436q-63 0 -90.5 -3t-44.5 -16q-24 -19 -29.5 -50t-5.5 -105v-273z" />
    <glyph glyph-name="ebreve" unicode="&#x115;" horiz-adv-x="929" 
d="M248 1364h114q0 -152 140 -152q139 0 139 152h115q0 -120 -66.5 -189t-187.5 -69t-187.5 69t-66.5 189zM285 209q64 -86 204 -86q138 0 250 59l60 -123q-139 -71 -310 -71q-105 0 -187 36t-132 103q-37 50 -55 116t-20.5 112t-2.5 134q0 76 1.5 112t8 85.5t22 86
t42.5 73.5q49 69 137 107t197 38q150 0 245 -76q100 -84 103 -206q0 -64 -28.5 -116t-74.5 -85q-59 -42 -124.5 -52t-194.5 -10h-188q0 -174 47 -237zM705 709q-3 63 -54 104q-52 43 -151 43q-143 0 -211 -80q-51 -59 -51 -203h188q111 0 155 5t74 28q50 37 50 103z" />
    <glyph glyph-name="Edotaccent" unicode="&#x116;" horiz-adv-x="1044" 
d="M522 1708q42 0 69 -27t27 -69t-27 -69t-69 -27t-69 27t-27 69t27 69t69 27zM305 774l483 2v-143l-483 -2v-314q0 -74 5.5 -105t29.5 -50q17 -13 44.5 -16t90.5 -3h436v-143h-436q-59 0 -90 2t-74 15t-75 40q-29 26 -47 55t-25 67t-8.5 63.5t-1.5 74.5v730q0 49 1.5 74.5
t8.5 63.5t25 67t47 55q32 27 75 40t74 15t90 2h436v-143h-436q-63 0 -90.5 -3t-44.5 -16q-24 -19 -29.5 -50t-5.5 -105v-273z" />
    <glyph glyph-name="edotaccent" unicode="&#x117;" horiz-adv-x="929" 
d="M500 1319q42 0 69 -27t27 -69q0 -43 -27 -70t-69 -27t-69.5 27.5t-27.5 69.5t27.5 69t69.5 27zM285 209q64 -86 204 -86q138 0 250 59l60 -123q-139 -71 -310 -71q-105 0 -187 36t-132 103q-37 50 -55 116t-20.5 112t-2.5 134q0 76 1.5 112t8 85.5t22 86t42.5 73.5
q49 69 137 107t197 38q150 0 245 -76q100 -84 103 -206q0 -64 -28.5 -116t-74.5 -85q-59 -42 -124.5 -52t-194.5 -10h-188q0 -174 47 -237zM705 709q-3 63 -54 104q-52 43 -151 43q-143 0 -211 -80q-51 -59 -51 -203h188q111 0 155 5t74 28q50 37 50 103z" />
    <glyph glyph-name="Eogonek" unicode="&#x118;" horiz-adv-x="1024" 
d="M305 774l483 2v-143l-483 -2v-314q0 -74 5.5 -105t29.5 -50q17 -13 44.5 -16t90.5 -3h416v-143q-217 -62 -217 -205q0 -32 21 -54t53 -22t79 29l62 -98q-76 -45 -141 -45q-79 0 -134 55t-55 135q0 130 178 205h-262q-59 0 -90 2t-74 15t-75 40q-29 26 -47 55t-25 67
t-8.5 63.5t-1.5 74.5v730q0 49 1.5 74.5t8.5 64t25 67.5t47 54q32 27 75 40t74 15t90 2h416v-143h-416q-63 0 -90.5 -3t-44.5 -16q-24 -19 -29.5 -50t-5.5 -105v-273z" />
    <glyph glyph-name="eogonek" unicode="&#x119;" horiz-adv-x="929" 
d="M285 209q64 -86 204 -86q138 0 250 59l60 -123q-111 -56 -148 -86q-67 -54 -67 -118q0 -33 20.5 -54.5t52.5 -21.5q35 0 80 28l62 -98q-76 -45 -142 -45q-79 0 -133.5 55.5t-54.5 135.5q0 73 88 137q-23 -4 -68 -4q-105 0 -187 36t-132 103q-37 50 -55 116t-20.5 112
t-2.5 134q0 76 1.5 112t8 85.5t22 86t42.5 73.5q49 69 137 107t197 38q154 0 245 -76q47 -39 75 -93.5t28 -112.5q0 -64 -28.5 -116t-74.5 -85q-59 -42 -124.5 -52t-194.5 -10h-188q0 -174 47 -237zM705 709q-3 63 -54 104q-52 43 -151 43q-143 0 -211 -80q-51 -59 -51 -203
h188q111 0 155 5t74 28q50 40 50 96v7z" />
    <glyph glyph-name="Ecaron" unicode="&#x11a;" horiz-adv-x="1044" 
d="M442 1507l-194 246h135l139 -156l140 156h135l-195 -246h-160zM305 774l483 2v-143l-483 -2v-314q0 -74 5.5 -105t29.5 -50q17 -13 44.5 -16t90.5 -3h436v-143h-436q-59 0 -90 2t-74 15t-75 40q-29 26 -47 55t-25 67t-8.5 63.5t-1.5 74.5v730q0 49 1.5 74.5t8.5 63.5
t25 67t47 55q32 27 75 40t74 15t90 2h436v-143h-436q-63 0 -90.5 -3t-44.5 -16q-24 -19 -29.5 -50t-5.5 -105v-273z" />
    <glyph glyph-name="ecaron" unicode="&#x11b;" horiz-adv-x="929" 
d="M420 1118l-195 246h135l140 -156l139 156h135l-194 -246h-160zM285 209q64 -86 204 -86q138 0 250 59l60 -123q-139 -71 -310 -71q-105 0 -187 36t-132 103q-37 50 -55 116t-20.5 112t-2.5 134q0 76 1.5 112t8 85.5t22 86t42.5 73.5q49 69 137 107t197 38q150 0 245 -76
q100 -84 103 -206q0 -64 -28.5 -116t-74.5 -85q-59 -42 -124.5 -52t-194.5 -10h-188q0 -174 47 -237zM705 709q-3 63 -54 104q-52 43 -151 43q-143 0 -211 -80q-51 -59 -51 -203h188q111 0 155 5t74 28q50 37 50 103z" />
    <glyph glyph-name="Gcircumflex" unicode="&#x11c;" horiz-adv-x="1187" 
d="M514 1745h160l194 -246h-135l-139 156l-139 -156h-136zM594 1376q97 0 190.5 -32t167.5 -93l-88 -114q-116 96 -270 96q-156 0 -238 -103q-50 -65 -60.5 -147.5t-10.5 -300.5q0 -219 10.5 -301.5t60.5 -147.5q81 -102 238 -102q156 0 237 102q44 59 57.5 132t14.5 223
h-282v143h434v-49q0 -122 -2 -180t-11 -131.5t-29.5 -122.5t-56.5 -96q-58 -75 -149.5 -119.5t-212.5 -44.5t-213 45t-150 119q-29 38 -48 82t-29 81.5t-14.5 105.5t-5.5 114t-1 147t1 147t5.5 114t14.5 105.5t29 81.5t48 82q58 74 150 119t213 45z" />
    <glyph glyph-name="gcircumflex" unicode="&#x11d;" 
d="M391 1364h160l194 -246h-135l-139 156l-139 -156h-135zM475 856q-113 0 -174 -68q-24 -27 -38 -58t-19.5 -75.5t-6.5 -73t-1 -87.5q0 -57 1 -87.5t6.5 -75.5t18.5 -77.5t35 -58.5q62 -72 174 -72t174 72q29 34 43 89.5t16.5 103t2.5 142.5q0 68 -2 104t-13.5 78.5
t-34.5 69.5q-29 35 -77.5 54.5t-104.5 19.5zM475 991q81 0 159.5 -29t133.5 -94q56 -66 69 -138t13 -220v-418q0 -70 -1.5 -106t-10 -87.5t-28.5 -90.5t-54 -76q-109 -119 -305 -119q-163 0 -299 74l59 123q114 -62 240 -62q139 0 206 84q34 42 42 95.5t8 164.5v21
q-41 -59 -106 -92t-140 -33q-88 0 -159.5 32.5t-117.5 88.5q-33 40 -53 84.5t-28 101t-9.5 93.5t-1.5 106q0 64 2 100.5t10 92.5t29.5 101.5t56.5 85.5q105 117 285 117z" />
    <glyph glyph-name="Gbreve" unicode="&#x11e;" horiz-adv-x="1187" 
d="M340 1757h115q0 -76 33.5 -113.5t105.5 -37.5t105.5 37.5t33.5 113.5h115q0 -120 -66.5 -189t-187.5 -69t-187.5 69t-66.5 189zM594 1376q97 0 190.5 -32t167.5 -93l-88 -114q-116 96 -270 96q-156 0 -238 -103q-50 -65 -60.5 -147.5t-10.5 -300.5q0 -219 10.5 -301.5
t60.5 -147.5q81 -102 238 -102q156 0 237 102q44 59 57.5 132t14.5 223h-282v143h434v-49q0 -122 -2 -180t-11 -131.5t-29.5 -122.5t-56.5 -96q-58 -75 -149.5 -119.5t-212.5 -44.5t-213 45t-150 119q-29 38 -48 82t-29 81.5t-14.5 105.5t-5.5 114t-1 147t1 147t5.5 114
t14.5 105.5t29 81.5t48 82q58 74 150 119t213 45z" />
    <glyph glyph-name="gbreve" unicode="&#x11f;" 
d="M219 1364h115q0 -152 139 -152t139 152h115q0 -120 -66.5 -189t-187.5 -69t-187.5 69t-66.5 189zM475 856q-113 0 -174 -68q-24 -27 -38 -58t-19.5 -75.5t-6.5 -73t-1 -87.5q0 -57 1 -87.5t6.5 -75.5t18.5 -77.5t35 -58.5q62 -72 174 -72t174 72q29 34 43 89.5t16.5 103
t2.5 142.5q0 68 -2 104t-13.5 78.5t-34.5 69.5q-29 35 -77.5 54.5t-104.5 19.5zM475 991q81 0 159.5 -29t133.5 -94q56 -66 69 -138t13 -220v-418q0 -70 -1.5 -106t-10 -87.5t-28.5 -90.5t-54 -76q-109 -119 -305 -119q-163 0 -299 74l59 123q114 -62 240 -62q139 0 206 84
q34 42 42 95.5t8 164.5v21q-41 -59 -106 -92t-140 -33q-88 0 -159.5 32.5t-117.5 88.5q-33 40 -53 84.5t-28 101t-9.5 93.5t-1.5 106q0 64 2 100.5t10 92.5t29.5 101.5t56.5 85.5q105 117 285 117z" />
    <glyph glyph-name="Gdotaccent" unicode="&#x120;" horiz-adv-x="1187" 
d="M594 1692q42 0 69 -27t27 -70q0 -42 -27 -69t-69 -27t-69 27t-27 69q0 43 27 70t69 27zM594 1376q97 0 190.5 -32t167.5 -93l-88 -114q-116 96 -270 96q-156 0 -238 -103q-50 -65 -60.5 -147.5t-10.5 -300.5q0 -219 10.5 -301.5t60.5 -147.5q81 -102 238 -102
q156 0 237 102q44 59 57.5 132t14.5 223h-282v143h434v-49q0 -122 -2 -180t-11 -131.5t-29.5 -122.5t-56.5 -96q-58 -75 -149.5 -119.5t-212.5 -44.5t-213 45t-150 119q-29 38 -48 82t-29 81.5t-14.5 105.5t-5.5 114t-1 147t1 147t5.5 114t14.5 105.5t29 81.5t48 82
q58 74 150 119t213 45z" />
    <glyph glyph-name="gdotaccent" unicode="&#x121;" 
d="M471 1319q42 0 69 -27t27 -69q0 -43 -27.5 -70t-68.5 -27t-68.5 27t-27.5 70q0 42 27 69t69 27zM475 856q-113 0 -174 -68q-24 -27 -38 -58t-19.5 -75.5t-6.5 -73t-1 -87.5q0 -57 1 -87.5t6.5 -75.5t18.5 -77.5t35 -58.5q62 -72 174 -72t174 72q29 34 43 89.5t16.5 103
t2.5 142.5q0 68 -2 104t-13.5 78.5t-34.5 69.5q-29 35 -77.5 54.5t-104.5 19.5zM475 991q81 0 159.5 -29t133.5 -94q56 -66 69 -138t13 -220v-418q0 -70 -1.5 -106t-10 -87.5t-28.5 -90.5t-54 -76q-109 -119 -305 -119q-163 0 -299 74l59 123q114 -62 240 -62q139 0 206 84
q34 42 42 95.5t8 164.5v21q-41 -59 -106 -92t-140 -33q-88 0 -159.5 32.5t-117.5 88.5q-33 40 -53 84.5t-28 101t-9.5 93.5t-1.5 106q0 64 2 100.5t10 92.5t29.5 101.5t56.5 85.5q105 117 285 117z" />
    <glyph glyph-name="uni0122" unicode="&#x122;" horiz-adv-x="1187" 
d="M690 -229q0 -25 -22 -80l-74 -166h-92l53 160q-57 21 -57 86q0 41 28 67.5t68 26.5t68 -26.5t28 -67.5zM594 1376q97 0 190.5 -32t167.5 -93l-88 -114q-116 96 -270 96q-156 0 -238 -103q-50 -65 -60.5 -147.5t-10.5 -300.5q0 -219 10.5 -301.5t60.5 -147.5
q81 -102 238 -102q156 0 237 102q44 59 57.5 132t14.5 223h-282v143h434v-49q0 -122 -2 -180t-11 -131.5t-29.5 -122.5t-56.5 -96q-58 -75 -149.5 -119.5t-212.5 -44.5t-213 45t-150 119q-29 38 -48 82t-29 81.5t-14.5 105.5t-5.5 114t-1 147t1 147t5.5 114t14.5 105.5
t29 81.5t48 82q58 74 150 119t213 45z" />
    <glyph glyph-name="uni0123" unicode="&#x123;" 
d="M375 1225q0 25 22 80l74 165h92l-53 -159q57 -21 57 -86q0 -41 -28 -68t-68 -27t-68 27t-28 68zM475 856q-113 0 -174 -68q-24 -27 -38 -58t-19.5 -75.5t-6.5 -73t-1 -87.5q0 -57 1 -87.5t6.5 -75.5t18.5 -77.5t35 -58.5q62 -72 174 -72t174 72q29 34 43 89.5t16.5 103
t2.5 142.5q0 68 -2 104t-13.5 78.5t-34.5 69.5q-29 35 -77.5 54.5t-104.5 19.5zM475 991q81 0 159.5 -29t133.5 -94q56 -66 69 -138t13 -220v-418q0 -70 -1.5 -106t-10 -87.5t-28.5 -90.5t-54 -76q-109 -119 -305 -119q-163 0 -299 74l59 123q114 -62 240 -62q139 0 206 84
q34 42 42 95.5t8 164.5v21q-41 -59 -106 -92t-140 -33q-88 0 -159.5 32.5t-117.5 88.5q-33 40 -53 84.5t-28 101t-9.5 93.5t-1.5 106q0 64 2 100.5t10 92.5t29.5 101.5t56.5 85.5q105 117 285 117z" />
    <glyph glyph-name="Hcircumflex" unicode="&#x124;" horiz-adv-x="1208" 
d="M524 1751h160l195 -246h-136l-139 156l-139 -156h-135zM154 1364h151v-590h598v590h152v-1364h-152v631h-598v-631h-151v1364z" />
    <glyph glyph-name="hcircumflex" unicode="&#x125;" 
d="M125 1751h160l194 -246h-135l-139 156l-139 -156h-136zM133 1364h143v-487q36 52 95.5 83t130.5 31q84 0 148.5 -30t105.5 -74q34 -36 54 -76t28.5 -92.5t10 -88.5t1.5 -106v-524h-143v524q0 79 -2.5 118t-16 83t-41.5 72q-59 59 -155 59q-97 0 -156 -59
q-40 -40 -50 -98.5t-10 -174.5v-524h-143v1364z" />
    <glyph glyph-name="Hbar" unicode="&#x126;" horiz-adv-x="1454" 
d="M274 1364h146v-123h610v123h146v-123h124v-127h-124v-1114h-146v635h-610v-635h-146v1114h-120v127h120v123zM420 1114v-344h610v344h-610z" />
    <glyph glyph-name="hbar" unicode="&#x127;" horiz-adv-x="1085" 
d="M225 1364h144v-119h225v-127h-225v-239q84 112 235 112q89 0 165 -36.5t124 -106.5q33 -48 49 -110.5t18.5 -109t2.5 -139.5v-489h-144v489q0 79 -1.5 117.5t-12.5 86t-33 79.5q-30 43 -78 63.5t-100 20.5t-100 -20.5t-78 -63.5q-22 -32 -33 -79.5t-12.5 -86t-1.5 -117.5
v-489h-144v1118h-164v127h164v119z" />
    <glyph glyph-name="Itilde" unicode="&#x128;" horiz-adv-x="458" 
d="M352 1513q-59 0 -149 46q-4 2 -22 10.5t-25.5 11.5t-22 6.5t-27.5 3.5q-28 0 -46.5 -18t-18.5 -47h-115q0 73 52.5 122.5t127.5 49.5q62 0 150 -45q6 -3 22 -10.5t24.5 -11.5t22.5 -7.5t27 -3.5q28 0 47 18.5t19 47.5h114q0 -73 -52.5 -123t-127.5 -50zM305 1364v-1364
h-151v1364h151z" />
    <glyph glyph-name="itilde" unicode="&#x129;" horiz-adv-x="438" 
d="M342 1126q-61 0 -149 45q-6 3 -22.5 11t-25 11.5t-22.5 7t-27 3.5q-28 0 -46.5 -18t-18.5 -47h-115q0 73 52.5 122.5t127.5 49.5q62 0 150 -45q6 -3 22 -10.5t24.5 -11.5t22.5 -7.5t27 -3.5q28 0 47 18t19 47h114q0 -73 -52.5 -122.5t-127.5 -49.5zM147 977h144v-977
h-144v977z" />
    <glyph glyph-name="Imacron" unicode="&#x12a;" horiz-adv-x="458" 
d="M-29 1640h512v-114h-512v114zM305 1364v-1364h-151v1364h151z" />
    <glyph glyph-name="imacron" unicode="&#x12b;" horiz-adv-x="438" 
d="M-39 1253h512v-114h-512v114zM147 977h144v-977h-144v977z" />
    <glyph glyph-name="Ibreve" unicode="&#x12c;" horiz-adv-x="458" 
d="M-23 1751h115q0 -152 139 -152q140 0 140 152h114q0 -120 -66.5 -189t-187.5 -69t-187.5 69t-66.5 189zM305 1364v-1364h-151v1364h151z" />
    <glyph glyph-name="ibreve" unicode="&#x12d;" horiz-adv-x="438" 
d="M-33 1364h115q0 -152 139 -152t139 152h115q0 -120 -66.5 -189t-187.5 -69t-187.5 69t-66.5 189zM147 977h144v-977h-144v977z" />
    <glyph glyph-name="Iogonek" unicode="&#x12e;" horiz-adv-x="458" 
d="M154 0v1364h151v-1364q-37 -11 -69.5 -25.5t-64.5 -38t-50.5 -57.5t-18.5 -76q0 -32 21 -53.5t53 -21.5q35 0 80 28l61 -98q-76 -45 -141 -45q-79 0 -133.5 55t-54.5 135q0 126 166 197z" />
    <glyph glyph-name="iogonek" unicode="&#x12f;" horiz-adv-x="430" 
d="M287 0q-195 -57 -195 -197q0 -32 21 -53.5t53 -21.5q35 0 80 28l61 -98q-76 -45 -141 -45q-79 0 -134 55t-55 135q0 126 166 197v979h144v-979zM215 1319q42 0 69 -27t27 -69q0 -43 -27.5 -70t-68.5 -27t-68.5 27t-27.5 70q0 42 27 69t69 27z" />
    <glyph glyph-name="Idotaccent" unicode="&#x130;" horiz-adv-x="458" 
d="M229 1708q42 0 69.5 -27t27.5 -69t-27.5 -69t-69.5 -27t-69 27t-27 69t27 69t69 27zM305 1364v-1364h-151v1364h151z" />
    <glyph glyph-name="dotlessi" unicode="&#x131;" horiz-adv-x="438" 
d="M147 977h144v-977h-144v977z" />
    <glyph glyph-name="IJ" unicode="&#x132;" horiz-adv-x="1302" 
d="M1008 1364h151v-850q0 -80 -2 -120.5t-10.5 -99t-30 -102t-57.5 -83.5q-56 -61 -135 -91t-164 -30q-172 0 -299 98l92 115q82 -70 207 -70q118 0 184 72q43 48 53.5 113.5t10.5 197.5v850zM174 1364h152v-1364h-152v1364z" />
    <glyph glyph-name="ij" unicode="&#x133;" horiz-adv-x="806" 
d="M520 979h144v-1022q0 -78 -2.5 -113t-17.5 -76.5t-48 -76.5q-75 -78 -201 -78q-78 0 -162 35l54 125q58 -25 108 -25q71 0 103 43q16 21 19 51t3 115v1022zM592 1319q42 0 69 -27t27 -69q0 -43 -27 -70t-69 -27t-69 27t-27 70q0 42 27 69t69 27zM215 1319
q43 0 69.5 -26.5t26.5 -69.5t-26.5 -70t-69.5 -27q-41 0 -68.5 27t-27.5 70q0 42 27 69t69 27zM143 977h144v-977h-144v977z" />
    <glyph glyph-name="Jcircumflex" unicode="&#x134;" horiz-adv-x="913" 
d="M614 1751h160l195 -246h-135l-140 156l-139 -156h-135zM618 1364h152v-829q0 -81 -1.5 -122t-9 -99t-25.5 -101t-48 -82q-112 -143 -315 -143q-170 0 -299 100l92 115q84 -72 207 -72q113 0 180 70q25 26 39 57t20 81t7 84t1 112v829z" />
    <glyph glyph-name="jcircumflex" unicode="&#x135;" horiz-adv-x="430" 
d="M137 1360h160l195 -246h-136l-139 156l-139 -156h-135zM143 979h144v-1022q0 -78 -2.5 -113t-17.5 -76.5t-48 -76.5q-75 -78 -201 -78q-77 0 -161 35l53 125q58 -25 108 -25q71 0 103 43q16 21 19 51t3 115v1022z" />
    <glyph glyph-name="uni0136" unicode="&#x136;" horiz-adv-x="1148" 
d="M680 -223q0 -23 -23 -80l-73 -166h-92l53 160q-26 9 -42 32t-16 54q0 41 28.5 67.5t68.5 26.5t68 -26.5t28 -67.5zM154 1364h151v-631q49 0 74 12q14 7 29.5 23t25.5 29t39 53l379 514h184l-420 -569q-44 -66 -67 -93l518 -702h-184l-451 610q-51 -20 -127 -20v-590h-151
v1364z" />
    <glyph glyph-name="uni0137" unicode="&#x137;" horiz-adv-x="937" 
d="M565 -223q0 -25 -22 -80l-74 -166h-92l53 160q-57 21 -57 86q0 41 28 67.5t68 26.5t68 -26.5t28 -67.5zM133 1366h143v-784q55 0 82 20q21 17 68 76l233 299h177l-291 -375q-40 -53 -58 -70l379 -532h-174l-323 457q-40 -11 -93 -11v-446h-143v1366z" />
    <glyph glyph-name="kgreenlandic" unicode="&#x138;" horiz-adv-x="935" 
d="M133 977h143v-395q55 0 82 20q21 17 68 76l233 299h177l-291 -375q-40 -53 -58 -70l379 -532h-174l-323 457q-40 -11 -93 -11v-446h-143v977z" />
    <glyph glyph-name="Lacute" unicode="&#x139;" horiz-adv-x="983" 
d="M451 1753l-179 -246h-135l154 246h160zM154 1364h151v-1047q0 -74 5.5 -105t29.5 -50q17 -13 44.5 -16t90.5 -3h395v-143h-395q-59 0 -90 2t-74 15t-75 40q-29 26 -47 55t-25 67t-8.5 63.5t-1.5 74.5v1047z" />
    <glyph glyph-name="lacute" unicode="&#x13a;" horiz-adv-x="409" 
d="M424 1753l-178 -246h-135l153 246h160zM133 1366h143v-1366h-143v1366z" />
    <glyph glyph-name="uni013B" unicode="&#x13b;" horiz-adv-x="983" 
d="M639 -223q0 -23 -23 -80l-73 -166h-92l53 160q-26 9 -42 32t-16 54q0 41 28.5 67.5t68.5 26.5t68 -26.5t28 -67.5zM154 1364h151v-1047q0 -74 5.5 -105t29.5 -50q17 -13 44.5 -16t90.5 -3h395v-143h-395q-59 0 -90 2t-74 15t-75 40q-29 26 -47 55t-25 67t-8.5 63.5
t-1.5 74.5v1047z" />
    <glyph glyph-name="uni013C" unicode="&#x13c;" horiz-adv-x="409" 
d="M301 -223q0 -25 -22 -80l-74 -166h-92l53 160q-57 21 -57 86q0 41 28 67.5t68 26.5t68 -26.5t28 -67.5zM133 1366h143v-1366h-143v1366z" />
    <glyph glyph-name="Lcaron" unicode="&#x13d;" horiz-adv-x="983" 
d="M492 1272q0 47 29 75.5t75 28.5t75 -28.5t29 -75.5q0 -26 -16 -76l-94 -262h-92l59 240q-29 9 -47 36t-18 62zM154 1364h151v-1047q0 -74 5.5 -105t29.5 -50q17 -13 44.5 -16t90.5 -3h395v-143h-395q-59 0 -90 2t-74 15t-75 40q-29 26 -47 55t-25 67t-8.5 63.5t-1.5 74.5
v1047z" />
    <glyph glyph-name="lcaron" unicode="&#x13e;" horiz-adv-x="735" 
d="M465 1272q0 47 29 75.5t75 28.5t75.5 -28.5t29.5 -75.5q0 -23 -17 -76l-94 -262h-92l59 240q-29 9 -47 36t-18 62zM133 1366h143v-1366h-143v1366z" />
    <glyph glyph-name="Ldot" unicode="&#x13f;" horiz-adv-x="983" 
d="M592 788q46 0 75 -29t29 -75t-29 -75t-75 -29t-75.5 29t-29.5 75t29.5 75t75.5 29zM154 1364h151v-1047q0 -74 5.5 -105t29.5 -50q17 -13 44.5 -16t90.5 -3h395v-143h-395q-59 0 -90 2t-74 15t-75 40q-29 26 -47 55t-25 67t-8.5 63.5t-1.5 74.5v1047z" />
    <glyph glyph-name="ldot" unicode="&#x140;" horiz-adv-x="724" 
d="M133 1366h143v-1366h-143v1366zM518 788q46 0 75.5 -29t29.5 -75t-29.5 -75t-75.5 -29t-75 29t-29 75t29 75t75 29z" />
    <glyph glyph-name="Lslash" unicode="&#x141;" horiz-adv-x="1126" 
d="M236 1364h151v-623l158 111l73 -102l-231 -164v-269q0 -74 5.5 -105t29.5 -50q17 -13 44.5 -16t90.5 -3h457v-143h-457q-59 0 -90 2t-74.5 15t-75.5 40q-29 26 -47 55t-24.5 67.5t-8 63t-1.5 74.5v162l-117 -78l-74 103l191 133v727z" />
    <glyph glyph-name="lslash" unicode="&#x142;" horiz-adv-x="655" 
d="M379 0h-143v483l-117 -82l-74 103l191 135v727h143v-625l158 111l73 -102l-231 -164v-586z" />
    <glyph glyph-name="Nacute" unicode="&#x143;" horiz-adv-x="1134" 
d="M776 1753l-178 -246h-135l153 246h160zM567 1376q96 0 179.5 -34t138.5 -97q38 -44 61 -92.5t32 -114t11 -110.5t2 -135v-793h-151v793q0 80 -1 118t-7.5 90.5t-21.5 87t-40 62.5q-73 82 -203 82q-129 0 -202 -82q-25 -28 -40 -62.5t-21.5 -87t-7.5 -90.5t-1 -118v-793
h-152v793q0 88 2 134.5t11.5 111.5t32.5 113.5t61 92.5q55 63 138 97t179 34z" />
    <glyph glyph-name="nacute" unicode="&#x144;" horiz-adv-x="942" 
d="M705 1364l-179 -246h-135l154 246h160zM471 991q162 0 262 -104q34 -36 55 -76t29 -92.5t10 -88.5t2 -106v-524h-143v524q0 80 -2 118t-15.5 82.5t-41.5 72.5q-59 59 -156 59t-156 -59q-28 -28 -41.5 -72.5t-15.5 -82.5t-2 -118v-524h-143v524q0 70 2 106t10 88.5
t29 92.5t55 76q100 104 262 104z" />
    <glyph glyph-name="uni0145" unicode="&#x145;" horiz-adv-x="1134" 
d="M653 -223q0 -25 -22 -80l-74 -166h-92l53 160q-57 21 -57 86q0 41 28 67.5t68 26.5t68 -26.5t28 -67.5zM567 1376q96 0 179.5 -34t138.5 -97q38 -44 61 -92.5t32 -114t11 -110.5t2 -135v-793h-151v793q0 80 -1 118t-7.5 90.5t-21.5 87t-40 62.5q-73 82 -203 82
q-129 0 -202 -82q-25 -28 -40 -62.5t-21.5 -87t-7.5 -90.5t-1 -118v-793h-152v793q0 88 2 134.5t11.5 111.5t32.5 113.5t61 92.5q55 63 138 97t179 34z" />
    <glyph glyph-name="uni0146" unicode="&#x146;" horiz-adv-x="942" 
d="M582 -223q0 -23 -23 -80l-74 -166h-92l53 160q-57 21 -57 86q0 41 28 67.5t68 26.5t68.5 -26.5t28.5 -67.5zM471 991q162 0 262 -104q34 -36 55 -76t29 -92.5t10 -88.5t2 -106v-524h-143v524q0 80 -2 118t-15.5 82.5t-41.5 72.5q-59 59 -156 59t-156 -59
q-28 -28 -41.5 -72.5t-15.5 -82.5t-2 -118v-524h-143v524q0 70 2 106t10 88.5t29 92.5t55 76q100 104 262 104z" />
    <glyph glyph-name="Ncaron" unicode="&#x147;" horiz-adv-x="1134" 
d="M477 1507l-194 246h135l139 -156l139 156h135l-194 -246h-160zM567 1376q96 0 179.5 -34t138.5 -97q38 -44 61 -92.5t32 -114t11 -110.5t2 -135v-793h-151v793q0 80 -1 118t-7.5 90.5t-21.5 87t-40 62.5q-73 82 -203 82q-129 0 -202 -82q-25 -28 -40 -62.5t-21.5 -87
t-7.5 -90.5t-1 -118v-793h-152v793q0 88 2 134.5t11.5 111.5t32.5 113.5t61 92.5q55 63 138 97t179 34z" />
    <glyph glyph-name="ncaron" unicode="&#x148;" horiz-adv-x="942" 
d="M406 1118l-195 246h135l139 -156l140 156h135l-195 -246h-159zM471 991q162 0 262 -104q34 -36 55 -76t29 -92.5t10 -88.5t2 -106v-524h-143v524q0 80 -2 118t-15.5 82.5t-41.5 72.5q-59 59 -156 59t-156 -59q-28 -28 -41.5 -72.5t-15.5 -82.5t-2 -118v-524h-143v524
q0 70 2 106t10 88.5t29 92.5t55 76q100 104 262 104z" />
    <glyph glyph-name="napostrophe" unicode="&#x149;" horiz-adv-x="1110" 
d="M598 991q162 0 262 -104q34 -36 55 -76t29 -92.5t10 -88.5t2 -106v-524h-143v524q0 80 -2 118t-15.5 82.5t-41.5 72.5q-59 59 -156 59t-156 -59q-28 -28 -41.5 -72.5t-15.5 -82.5t-2 -118v-524h-143v524q0 70 2 106t10 88.5t29 92.5t55 76q100 104 262 104zM102 1272
q0 47 29.5 75.5t75.5 28.5t75 -28.5t29 -75.5q0 -26 -16 -76l-94 -262h-92l59 240q-29 9 -47.5 36t-18.5 62z" />
    <glyph glyph-name="Eng" unicode="&#x14a;" horiz-adv-x="1167" 
d="M872 -100v913q0 79 -1 114t-8 86t-23.5 83.5t-44.5 60.5q-76 76 -211 76t-211 -76q-28 -28 -45 -61t-23.5 -82.5t-8 -86.5t-1.5 -114v-813h-152v813q0 84 2 128t12.5 108.5t36 113.5t68.5 92q121 121 322 121q200 0 321 -121q43 -43 68.5 -92t36 -113.5t12.5 -108.5
t2 -128v-913q0 -104 -37 -166q-35 -57 -97 -89t-138 -32q-87 0 -172 37l65 131q55 -25 107 -25q76 0 104 47q16 31 16 97z" />
    <glyph glyph-name="eng" unicode="&#x14b;" horiz-adv-x="983" 
d="M717 -43v532q0 79 -1.5 117.5t-12.5 86t-33 79.5q-30 43 -78 63.5t-100 20.5t-100.5 -20.5t-78.5 -63.5q-22 -32 -33 -79.5t-12.5 -86t-1.5 -117.5v-489h-143v489q0 93 2.5 139.5t19 109t50.5 110.5q50 70 127.5 106.5t169.5 36.5q91 0 168.5 -36.5t127.5 -106.5
q34 -48 50.5 -110.5t19 -109t2.5 -139.5v-532q0 -79 -2 -113t-17 -76t-48 -77q-75 -78 -201 -78q-78 0 -162 35l53 125q58 -25 109 -25q70 0 102 43q16 22 19.5 52.5t3.5 113.5z" />
    <glyph glyph-name="Omacron" unicode="&#x14c;" horiz-adv-x="1196" 
d="M356 1640h512v-114h-512v114zM285 682q0 -130 2 -188.5t14 -124t37 -107.5q37 -62 105.5 -96.5t154.5 -34.5t154.5 34.5t105.5 96.5q25 42 37 107.5t14 124t2 188.5t-2 188.5t-14 124t-37 107.5q-37 62 -105.5 96.5t-154.5 34.5t-154.5 -34.5t-105.5 -96.5
q-25 -42 -37 -107.5t-14 -124t-2 -188.5zM133 682q0 149 2.5 215t19 142.5t52.5 134.5q58 95 160.5 148.5t230.5 53.5t230.5 -53.5t160.5 -148.5q51 -83 62.5 -180.5t11.5 -311.5q0 -149 -2.5 -215t-19 -142.5t-52.5 -134.5q-58 -95 -160.5 -148.5t-230.5 -53.5t-230.5 53.5
t-160.5 148.5q-51 83 -62.5 180.5t-11.5 311.5z" />
    <glyph glyph-name="omacron" unicode="&#x14d;" 
d="M244 1253h512v-114h-512v114zM481 856q-134 0 -200 -98q-21 -32 -31.5 -80.5t-12 -84t-1.5 -104.5q0 -68 1.5 -104t12 -84t31.5 -80q66 -98 200 -98q135 0 201 98q21 32 31.5 80t12 84t1.5 104q0 69 -1.5 104.5t-12 84t-31.5 80.5q-66 98 -201 98zM481 991q108 0 194 -46
t136 -128q28 -46 41.5 -106.5t15.5 -102t2 -119.5q0 -77 -2 -118.5t-15.5 -102t-41.5 -106.5q-50 -82 -136 -128t-194 -46t-193.5 46t-135.5 128q-28 46 -42 106t-16 102.5t-2 118.5t2 119t16 103t42 106q50 82 135.5 128t193.5 46z" />
    <glyph glyph-name="Obreve" unicode="&#x14e;" horiz-adv-x="1196" 
d="M362 1751h115q0 -152 139 -152q140 0 140 152h114q0 -120 -66.5 -189t-187.5 -69t-187.5 69t-66.5 189zM285 682q0 -130 2 -188.5t14 -124t37 -107.5q37 -62 105.5 -96.5t154.5 -34.5t154.5 34.5t105.5 96.5q25 42 37 107.5t14 124t2 188.5t-2 188.5t-14 124t-37 107.5
q-37 62 -105.5 96.5t-154.5 34.5t-154.5 -34.5t-105.5 -96.5q-25 -42 -37 -107.5t-14 -124t-2 -188.5zM133 682q0 149 2.5 215t19 142.5t52.5 134.5q58 95 160.5 148.5t230.5 53.5t230.5 -53.5t160.5 -148.5q51 -83 62.5 -180.5t11.5 -311.5q0 -149 -2.5 -215t-19 -142.5
t-52.5 -134.5q-58 -95 -160.5 -148.5t-230.5 -53.5t-230.5 53.5t-160.5 148.5q-51 83 -62.5 180.5t-11.5 311.5z" />
    <glyph glyph-name="obreve" unicode="&#x14f;" 
d="M250 1364h115q0 -152 139 -152t139 152h115q0 -120 -66.5 -189t-187.5 -69t-187.5 69t-66.5 189zM481 856q-134 0 -200 -98q-21 -32 -31.5 -80.5t-12 -84t-1.5 -104.5q0 -68 1.5 -104t12 -84t31.5 -80q66 -98 200 -98q135 0 201 98q21 32 31.5 80t12 84t1.5 104
q0 69 -1.5 104.5t-12 84t-31.5 80.5q-66 98 -201 98zM481 991q108 0 194 -46t136 -128q28 -46 41.5 -106.5t15.5 -102t2 -119.5q0 -77 -2 -118.5t-15.5 -102t-41.5 -106.5q-50 -82 -136 -128t-194 -46t-193.5 46t-135.5 128q-28 46 -42 106t-16 102.5t-2 118.5t2 119t16 103
t42 106q50 82 135.5 128t193.5 46z" />
    <glyph glyph-name="Ohungarumlaut" unicode="&#x150;" horiz-adv-x="1196" 
d="M659 1751l-170 -246h-127l154 246h143zM950 1751l-178 -246h-127l162 246h143zM285 682q0 -130 2 -188.5t14 -124t37 -107.5q37 -62 105.5 -96.5t154.5 -34.5t154.5 34.5t105.5 96.5q25 42 37 107.5t14 124t2 188.5t-2 188.5t-14 124t-37 107.5q-37 62 -105.5 96.5
t-154.5 34.5t-154.5 -34.5t-105.5 -96.5q-25 -42 -37 -107.5t-14 -124t-2 -188.5zM133 682q0 149 2.5 215t19 142.5t52.5 134.5q58 95 160.5 148.5t230.5 53.5t230.5 -53.5t160.5 -148.5q51 -83 62.5 -180.5t11.5 -311.5q0 -149 -2.5 -215t-19 -142.5t-52.5 -134.5
q-58 -95 -160.5 -148.5t-230.5 -53.5t-230.5 53.5t-160.5 148.5q-51 83 -62.5 180.5t-11.5 311.5z" />
    <glyph glyph-name="ohungarumlaut" unicode="&#x151;" 
d="M547 1364l-170 -246h-127l153 246h144zM838 1364l-179 -246h-127l162 246h144zM481 856q-134 0 -200 -98q-21 -32 -31.5 -80.5t-12 -84t-1.5 -104.5q0 -68 1.5 -104t12 -84t31.5 -80q66 -98 200 -98q135 0 201 98q21 32 31.5 80t12 84t1.5 104q0 69 -1.5 104.5t-12 84
t-31.5 80.5q-66 98 -201 98zM481 991q108 0 194 -46t136 -128q28 -46 41.5 -106.5t15.5 -102t2 -119.5q0 -77 -2 -118.5t-15.5 -102t-41.5 -106.5q-50 -82 -136 -128t-194 -46t-193.5 46t-135.5 128q-28 46 -42 106t-16 102.5t-2 118.5t2 119t16 103t42 106q50 82 135.5 128
t193.5 46z" />
    <glyph glyph-name="OE" unicode="&#x152;" horiz-adv-x="1650" 
d="M893 131q-56 -74 -141 -108.5t-179 -34.5q-85 0 -169.5 32t-141.5 93q-27 29 -47.5 61.5t-34.5 61.5t-23 70.5t-14 71t-7 81t-2.5 82t-0.5 92.5v98q0 62 0.5 92.5t2.5 82t7 81t14 71t23 70.5t34.5 61.5t47.5 61.5q57 61 141.5 93t169.5 32q94 0 179 -34.5t141 -108.5
q18 41 51 74q32 27 75.5 40t74.5 15t90 2h334v-143h-334q-63 0 -90.5 -3t-44.5 -16q-24 -19 -29.5 -50t-5.5 -105v-273l422 2v-143l-422 -2v-314q0 -74 5.5 -105t29.5 -50q17 -13 44.5 -16t90.5 -3h334v-143h-334q-59 0 -90 2t-74.5 15t-75.5 40q-33 33 -51 74zM573 1233
q-66 0 -123.5 -26t-91.5 -70q-27 -35 -42.5 -72t-22 -95.5t-7.5 -100t-1 -138.5v-98q0 -97 1 -138.5t7.5 -100t22 -95.5t42.5 -72q34 -44 91.5 -70t123.5 -26t123.5 26t91.5 70q51 66 62.5 147t11.5 259v98q0 95 -1.5 138t-8 101t-22 95t-42.5 72q-34 44 -91.5 70t-123.5 26
z" />
    <glyph glyph-name="oe" unicode="&#x153;" horiz-adv-x="1433" 
d="M731 135q-107 -147 -270 -147q-88 0 -159.5 39.5t-115.5 101.5q-48 67 -60.5 146.5t-12.5 213.5q0 131 13.5 212t59.5 149q42 62 114.5 101.5t160.5 39.5t159 -41t113 -106q48 69 128 108t181 39q118 0 195 -57q45 -33 74.5 -87.5t29.5 -117.5q0 -68 -31.5 -124
t-80.5 -91q-37 -25 -84.5 -38.5t-74.5 -15t-69 -1.5h-192q0 -145 11 -197.5t61 -93.5q52 -45 141 -45q107 0 211 61l67 -118q-143 -78 -278 -78q-194 0 -291 147zM1042 856q-110 0 -170 -57q-23 -23 -36.5 -44.5t-19 -51t-6.5 -51t-1 -66.5h192q35 0 51.5 0.5t42.5 7
t46 20.5q24 16 40.5 47t16.5 68q0 61 -47 96q-41 31 -109 31zM461 123q96 0 155 80q23 32 34.5 82t13.5 90.5t2 113.5t-2 113.5t-13.5 91t-34.5 82.5q-59 80 -155 80q-97 0 -156 -80q-32 -46 -40.5 -112.5t-8.5 -174.5q0 -75 1.5 -114t13 -89.5t34.5 -82.5q59 -80 156 -80z
" />
    <glyph glyph-name="Racute" unicode="&#x154;" horiz-adv-x="1126" 
d="M741 1753l-178 -246h-135l154 246h159zM465 1221q-56 0 -82 -3t-43 -16q-24 -19 -29.5 -50t-5.5 -105v-379h141q75 0 108 1t80.5 7.5t78.5 21.5t59 41q80 74 80 205t-80 205q-28 26 -59.5 41.5t-76 21.5t-76 7.5t-95.5 1.5zM465 1364q57 0 87.5 -1t83 -6.5t88 -17
t78 -33.5t77.5 -55q125 -118 125 -307q0 -129 -61.5 -228t-160.5 -145l242 -571h-164l-221 530q-45 -6 -193 -6h-141v-524h-151v1047q0 49 1.5 74.5t8.5 63.5t25 67t47 55q32 27 74.5 40t72 15t82.5 2z" />
    <glyph glyph-name="racute" unicode="&#x155;" horiz-adv-x="692" 
d="M615 1360l-178 -246h-135l154 246h159zM487 991q76 0 140 -22l-43 -129q-46 16 -97 16q-56 0 -104.5 -19.5t-77.5 -54.5q-23 -27 -34.5 -71t-13 -82t-1.5 -119v-510h-143v510q0 64 0.5 93.5t4.5 74.5t12.5 72t24.5 58.5t40 59.5q55 65 133.5 94t158.5 29z" />
    <glyph glyph-name="uni0156" unicode="&#x156;" horiz-adv-x="1126" 
d="M664 -223q0 -23 -23 -80l-74 -166h-92l53 160q-57 21 -57 86q0 41 28 67.5t68 26.5t68.5 -26.5t28.5 -67.5zM465 1221q-56 0 -82 -3t-43 -16q-24 -19 -29.5 -50t-5.5 -105v-379h141q75 0 108 1t80.5 7.5t78.5 21.5t59 41q80 74 80 205t-80 205q-28 26 -59.5 41.5
t-76 21.5t-76 7.5t-95.5 1.5zM465 1364q57 0 87.5 -1t83 -6.5t88 -17t78 -33.5t77.5 -55q125 -118 125 -307q0 -129 -61.5 -228t-160.5 -145l242 -571h-164l-221 530q-45 -6 -193 -6h-141v-524h-151v1047q0 49 1.5 74.5t8.5 63.5t25 67t47 55q32 27 74.5 40t72 15t82.5 2z
" />
    <glyph glyph-name="uni0157" unicode="&#x157;" horiz-adv-x="692" 
d="M281 -217q0 -23 -23 -80l-74 -166h-92l53 160q-57 21 -57 86q0 41 28 67.5t68 26.5t68.5 -26.5t28.5 -67.5zM487 991q76 0 140 -22l-43 -129q-46 16 -97 16q-56 0 -104.5 -19.5t-77.5 -54.5q-23 -27 -34.5 -71t-13 -82t-1.5 -119v-510h-143v510q0 64 0.5 93.5t4.5 74.5
t12.5 72t24.5 58.5t40 59.5q55 65 133.5 94t158.5 29z" />
    <glyph glyph-name="Rcaron" unicode="&#x158;" horiz-adv-x="1126" 
d="M442 1507l-194 246h135l139 -156l140 156h135l-195 -246h-160zM465 1221q-56 0 -82 -3t-43 -16q-24 -19 -29.5 -50t-5.5 -105v-379h141q75 0 108 1t80.5 7.5t78.5 21.5t59 41q80 74 80 205t-80 205q-28 26 -59.5 41.5t-76 21.5t-76 7.5t-95.5 1.5zM465 1364q57 0 87.5 -1
t83 -6.5t88 -17t78 -33.5t77.5 -55q125 -118 125 -307q0 -129 -61.5 -228t-160.5 -145l242 -571h-164l-221 530q-45 -6 -193 -6h-141v-524h-151v1047q0 49 1.5 74.5t8.5 63.5t25 67t47 55q32 27 74.5 40t72 15t82.5 2z" />
    <glyph glyph-name="rcaron" unicode="&#x159;" horiz-adv-x="692" 
d="M290 1114l-195 246h135l140 -156l139 156h135l-194 -246h-160zM487 991q76 0 140 -22l-43 -129q-46 16 -97 16q-56 0 -104.5 -19.5t-77.5 -54.5q-23 -27 -34.5 -71t-13 -82t-1.5 -119v-510h-143v510q0 64 0.5 93.5t4.5 74.5t12.5 72t24.5 58.5t40 59.5q55 65 133.5 94
t158.5 29z" />
    <glyph glyph-name="Sacute" unicode="&#x15a;" horiz-adv-x="1044" 
d="M725 1751l-178 -246h-135l153 246h160zM506 1376q107 0 206.5 -32.5t174.5 -90.5l-90 -114q-54 43 -130.5 68.5t-160.5 25.5q-127 0 -190.5 -60t-63.5 -143q0 -96 82 -162q52 -44 196 -86q67 -20 97.5 -30t85 -37.5t94.5 -61.5q58 -49 96.5 -124.5t38.5 -159.5
q0 -72 -27.5 -138.5t-79.5 -121.5t-137.5 -88t-191.5 -33q-116 0 -224.5 37.5t-193.5 109.5l96 111q130 -115 322 -115q74 0 130.5 21t89 56.5t49 76t16.5 84.5q0 48 -24.5 97.5t-66.5 84.5q-20 17 -43 30.5t-62.5 27.5t-56 19.5t-71.5 22.5q-56 17 -81 25.5t-72.5 33
t-86.5 56.5q-55 45 -91 115t-36 145q0 151 110 250.5t296 99.5z" />
    <glyph glyph-name="sacute" unicode="&#x15b;" horiz-adv-x="835" 
d="M647 1364l-178 -246h-135l153 246h160zM707 924l-54 -125q-120 57 -245 57q-72 0 -123 -29q-60 -34 -60 -102q0 -60 51 -100q28 -23 61.5 -34.5t96.5 -25.5q133 -29 199 -76q53 -38 87 -95t34 -128q0 -66 -30.5 -121.5t-80.5 -91.5q-91 -65 -235 -65q-179 0 -330 71
l57 123q127 -59 273 -59q97 0 149 39q53 39 53 104q0 68 -57 111q-47 35 -162 59q-134 28 -201 80q-49 37 -78.5 91.5t-29.5 117.5q0 66 31.5 119.5t79.5 87.5q85 59 215 59q156 0 299 -67z" />
    <glyph glyph-name="Scircumflex" unicode="&#x15c;" horiz-adv-x="1044" 
d="M426 1751h160l194 -246h-135l-139 156l-139 -156h-136zM506 1376q107 0 206.5 -32.5t174.5 -90.5l-90 -114q-54 43 -130.5 68.5t-160.5 25.5q-127 0 -190.5 -60t-63.5 -143q0 -96 82 -162q52 -44 196 -86q67 -20 97.5 -30t85 -37.5t94.5 -61.5q58 -49 96.5 -124.5
t38.5 -159.5q0 -72 -27.5 -138.5t-79.5 -121.5t-137.5 -88t-191.5 -33q-116 0 -224.5 37.5t-193.5 109.5l96 111q130 -115 322 -115q74 0 130.5 21t89 56.5t49 76t16.5 84.5q0 48 -24.5 97.5t-66.5 84.5q-20 17 -43 30.5t-62.5 27.5t-56 19.5t-71.5 22.5q-56 17 -81 25.5
t-72.5 33t-86.5 56.5q-55 45 -91 115t-36 145q0 151 110 250.5t296 99.5z" />
    <glyph glyph-name="scircumflex" unicode="&#x15d;" horiz-adv-x="835" 
d="M348 1364h160l194 -246h-135l-139 156l-139 -156h-135zM707 924l-54 -125q-120 57 -245 57q-72 0 -123 -29q-60 -34 -60 -102q0 -60 51 -100q28 -23 61.5 -34.5t96.5 -25.5q133 -29 199 -76q53 -38 87 -95t34 -128q0 -66 -30.5 -121.5t-80.5 -91.5q-91 -65 -235 -65
q-179 0 -330 71l57 123q127 -59 273 -59q97 0 149 39q53 39 53 104q0 68 -57 111q-47 35 -162 59q-134 28 -201 80q-49 37 -78.5 91.5t-29.5 117.5q0 66 31.5 119.5t79.5 87.5q85 59 215 59q156 0 299 -67z" />
    <glyph glyph-name="Scedilla" unicode="&#x15e;" horiz-adv-x="1044" 
d="M377 -262q46 -19 84 -19q43 0 74 15q40 22 40 61q0 36 -32 53q-18 9 -51 9h-76l41 133q-216 13 -369 145l96 111q130 -115 322 -115q74 0 130.5 21t89 56.5t49 76t16.5 84.5q0 48 -24.5 97.5t-66.5 84.5q-20 17 -43 30.5t-62.5 27.5t-56 19.5t-71.5 22.5q-56 17 -81 25.5
t-72.5 33t-86.5 56.5q-55 45 -91 115t-36 145q0 151 110 250.5t296 99.5q107 0 206.5 -32.5t174.5 -90.5l-90 -114q-54 43 -130.5 68.5t-160.5 25.5q-127 0 -190.5 -60t-63.5 -143q0 -96 82 -162q52 -44 196 -86q67 -20 97.5 -30t85 -37.5t94.5 -61.5q58 -49 96.5 -124.5
t38.5 -159.5q0 -68 -24.5 -132t-72 -118t-124.5 -88.5t-174 -40.5l-19 -66q29 0 42 -0.5t34 -6.5t39 -19q47 -35 47 -101q0 -76 -63 -131q-63 -53 -166 -53q-63 0 -117 22z" />
    <glyph glyph-name="scedilla" unicode="&#x15f;" horiz-adv-x="868" 
d="M299 -262q46 -19 84 -19q43 0 74 15q41 23 41 61q0 36 -33 53q-18 9 -51 9h-76l41 133q-156 6 -289 73l60 123q120 -63 278 -63q52 0 92.5 11t62.5 27t36 37t18 38t4 34q0 65 -53 107q-27 21 -61.5 33t-104.5 24q-123 20 -189 58q-67 39 -104 98.5t-37 130.5q0 47 19 93
t57.5 86.5t105.5 65.5t154 25q160 0 309 -67l-55 -125q-123 57 -254 57q-53 0 -92.5 -12.5t-60 -33.5t-30 -43.5t-9.5 -45.5q0 -69 63 -109q44 -28 147 -45q79 -13 126.5 -28.5t93.5 -46.5q57 -39 87.5 -98.5t30.5 -123.5q0 -105 -80 -187.5t-235 -92.5l-18 -66
q29 0 41.5 -0.5t33.5 -6.5t39 -19q47 -35 47 -101q0 -76 -63 -131q-63 -53 -166 -53q-63 0 -117 22z" />
    <glyph glyph-name="Scaron" unicode="&#x160;" horiz-adv-x="1044" 
d="M426 1505l-195 246h136l139 -156l139 156h135l-194 -246h-160zM506 1376q107 0 206.5 -32.5t174.5 -90.5l-90 -114q-54 43 -130.5 68.5t-160.5 25.5q-127 0 -190.5 -60t-63.5 -143q0 -96 82 -162q52 -44 196 -86q67 -20 97.5 -30t85 -37.5t94.5 -61.5q58 -49 96.5 -124.5
t38.5 -159.5q0 -72 -27.5 -138.5t-79.5 -121.5t-137.5 -88t-191.5 -33q-116 0 -224.5 37.5t-193.5 109.5l96 111q130 -115 322 -115q74 0 130.5 21t89 56.5t49 76t16.5 84.5q0 48 -24.5 97.5t-66.5 84.5q-20 17 -43 30.5t-62.5 27.5t-56 19.5t-71.5 22.5q-56 17 -81 25.5
t-72.5 33t-86.5 56.5q-55 45 -91 115t-36 145q0 151 110 250.5t296 99.5z" />
    <glyph glyph-name="scaron" unicode="&#x161;" horiz-adv-x="835" 
d="M348 1118l-194 246h135l139 -156l139 156h135l-194 -246h-160zM707 924l-54 -125q-120 57 -245 57q-72 0 -123 -29q-60 -34 -60 -102q0 -60 51 -100q28 -23 61.5 -34.5t96.5 -25.5q133 -29 199 -76q53 -38 87 -95t34 -128q0 -66 -30.5 -121.5t-80.5 -91.5
q-91 -65 -235 -65q-179 0 -330 71l57 123q127 -59 273 -59q97 0 149 39q53 39 53 104q0 68 -57 111q-47 35 -162 59q-134 28 -201 80q-49 37 -78.5 91.5t-29.5 117.5q0 66 31.5 119.5t79.5 87.5q85 59 215 59q156 0 299 -67z" />
    <glyph glyph-name="uni0162" unicode="&#x162;" horiz-adv-x="1146" 
d="M444 -262q46 -19 84 -19q43 0 74 15q41 23 41 61q0 36 -33 53q-18 9 -51 9h-76l45 143h-30v1221h-385v143h921v-143h-385v-1221h-31l-22 -76q29 0 42 -0.5t34 -6.5t39 -19q47 -35 47 -101q0 -75 -64 -131q-63 -53 -166 -53q-62 0 -116 22z" />
    <glyph glyph-name="uni0163" unicode="&#x163;" horiz-adv-x="610" 
d="M231 -262q46 -19 84 -19q43 0 74 15q41 23 41 61q0 36 -33 53q-18 9 -51 9h-76l43 139q-69 16 -123 70q-47 50 -57 106.5t-10 200.5v837h143v-231h226v-127h-226v-479q0 -113 3.5 -149t19.5 -58q32 -43 102 -43q53 0 109 24l53 -124q-82 -32 -152 -35l-18 -64
q29 0 42 -0.5t34 -6.5t39 -19q47 -35 47 -101q0 -75 -64 -131q-63 -53 -166 -53q-62 0 -116 22z" />
    <glyph glyph-name="Tcaron" unicode="&#x164;" horiz-adv-x="1085" 
d="M494 1505l-195 246h135l139 -156l140 156h135l-195 -246h-159zM82 1364h922v-143h-386v-1221h-151v1221h-385v143z" />
    <glyph glyph-name="tcaron" unicode="&#x165;" horiz-adv-x="862" 
d="M592 1272q0 47 29 75.5t75 28.5t75.5 -28.5t29.5 -75.5q0 -23 -17 -76l-94 -262h-92l59 240q-29 9 -47 36t-18 62zM266 348q0 -92 4.5 -125t24.5 -59q33 -41 96 -41q60 0 133 39l62 -121q-101 -53 -195 -53q-66 0 -121.5 25t-89.5 69q-27 34 -40 78.5t-15 79t-2 108.5
v862h143v-231h246v-127h-246v-504z" />
    <glyph glyph-name="Tbar" unicode="&#x166;" horiz-adv-x="1146" 
d="M113 1366h921v-143h-385v-539h195v-127h-195v-557h-151v557h-195v127h195v539h-385v143z" />
    <glyph glyph-name="tbar" unicode="&#x167;" horiz-adv-x="849" 
d="M332 1210h143v-233h225v-127h-225v-166h225v-127h-225v-287q0 -73 23 -104q32 -43 102 -43q54 0 109 24l59 -122q-85 -37 -168 -37q-126 0 -201 78q-24 25 -39 53t-20.5 58t-6.5 47t-1 46v287h-164v127h164v166h-164v127h164v233z" />
    <glyph glyph-name="Utilde" unicode="&#x168;" horiz-adv-x="1134" 
d="M707 1513q-60 0 -150 46q-5 2 -22 10.5t-25 11.5t-22 6.5t-27 3.5q-28 0 -47 -18t-19 -47h-114q0 73 52.5 122.5t127.5 49.5q61 0 149 -45q6 -3 22.5 -11t25 -11.5t22.5 -7t27 -3.5q28 0 46.5 18.5t18.5 47.5h115q0 -73 -52.5 -123t-127.5 -50zM143 1364h152v-793
q0 -80 1 -118t7.5 -90.5t21.5 -87t40 -62.5q73 -82 202 -82q130 0 203 82q25 28 40 62.5t21.5 87t7.5 90.5t1 118v793h151v-793q0 -90 -2 -135t-11 -110.5t-32 -114t-61 -92.5q-55 -63 -138.5 -97t-179.5 -34t-179 34t-138 97q-38 44 -61 92.5t-32.5 113.5t-11.5 111.5
t-2 134.5v793z" />
    <glyph glyph-name="utilde" unicode="&#x169;" horiz-adv-x="942" 
d="M608 1124q-61 0 -149 45q-6 3 -22.5 11t-25 11.5t-22.5 7t-27 3.5q-28 0 -46.5 -18t-18.5 -47h-115q0 73 52.5 122.5t127.5 49.5q62 0 150 -45q6 -3 22 -10.5t24.5 -11.5t22.5 -7.5t27 -3.5q28 0 47 18t19 47h114q0 -73 -52.5 -122.5t-127.5 -49.5zM113 979h143v-524
q0 -80 2 -118t15.5 -82.5t41.5 -72.5q59 -59 156 -59t156 59q28 28 41.5 72.5t15.5 82.5t2 118v524h143v-524q0 -70 -2 -106t-10 -88.5t-29 -92.5t-55 -76q-100 -104 -262 -104t-262 104q-34 36 -55 76t-29 92.5t-10 88.5t-2 106v524z" />
    <glyph glyph-name="Umacron" unicode="&#x16a;" horiz-adv-x="1134" 
d="M326 1640h512v-114h-512v114zM143 1364h152v-793q0 -80 1 -118t7.5 -90.5t21.5 -87t40 -62.5q73 -82 202 -82q130 0 203 82q25 28 40 62.5t21.5 87t7.5 90.5t1 118v793h151v-793q0 -90 -2 -135t-11 -110.5t-32 -114t-61 -92.5q-55 -63 -138.5 -97t-179.5 -34t-179 34
t-138 97q-38 44 -61 92.5t-32.5 113.5t-11.5 111.5t-2 134.5v793z" />
    <glyph glyph-name="umacron" unicode="&#x16b;" horiz-adv-x="942" 
d="M227 1251h512v-114h-512v114zM113 979h143v-524q0 -80 2 -118t15.5 -82.5t41.5 -72.5q59 -59 156 -59t156 59q28 28 41.5 72.5t15.5 82.5t2 118v524h143v-524q0 -70 -2 -106t-10 -88.5t-29 -92.5t-55 -76q-100 -104 -262 -104t-262 104q-34 36 -55 76t-29 92.5t-10 88.5
t-2 106v524z" />
    <glyph glyph-name="Ubreve" unicode="&#x16c;" horiz-adv-x="1134" 
d="M332 1751h114q0 -152 140 -152q139 0 139 152h115q0 -120 -66.5 -189t-187.5 -69t-187.5 69t-66.5 189zM143 1364h152v-793q0 -80 1 -118t7.5 -90.5t21.5 -87t40 -62.5q73 -82 202 -82q130 0 203 82q25 28 40 62.5t21.5 87t7.5 90.5t1 118v793h151v-793q0 -90 -2 -135
t-11 -110.5t-32 -114t-61 -92.5q-55 -63 -138.5 -97t-179.5 -34t-179 34t-138 97q-38 44 -61 92.5t-32.5 113.5t-11.5 111.5t-2 134.5v793z" />
    <glyph glyph-name="ubreve" unicode="&#x16d;" horiz-adv-x="942" 
d="M233 1362h115q0 -152 139 -152q140 0 140 152h114q0 -120 -66.5 -189t-187.5 -69t-187.5 69t-66.5 189zM113 979h143v-524q0 -80 2 -118t15.5 -82.5t41.5 -72.5q59 -59 156 -59t156 59q28 28 41.5 72.5t15.5 82.5t2 118v524h143v-524q0 -70 -2 -106t-10 -88.5t-29 -92.5
t-55 -76q-100 -104 -262 -104t-262 104q-34 36 -55 76t-29 92.5t-10 88.5t-2 106v524z" />
    <glyph glyph-name="Uring" unicode="&#x16e;" horiz-adv-x="1134" 
d="M584 1806q80 0 129 -48.5t49 -129.5q0 -80 -49 -129t-129 -49q-78 0 -128 49.5t-50 128.5q0 81 49.5 129.5t128.5 48.5zM584 1724q-41 0 -65.5 -27t-24.5 -69t24.5 -68t65.5 -26t66.5 26.5t25.5 67.5q0 42 -25.5 69t-66.5 27zM143 1364h152v-793q0 -80 1 -118t7.5 -90.5
t21.5 -87t40 -62.5q73 -82 202 -82q130 0 203 82q25 28 40 62.5t21.5 87t7.5 90.5t1 118v793h151v-793q0 -90 -2 -135t-11 -110.5t-32 -114t-61 -92.5q-55 -63 -138.5 -97t-179.5 -34t-179 34t-138 97q-38 44 -61 92.5t-32.5 113.5t-11.5 111.5t-2 134.5v793z" />
    <glyph glyph-name="uring" unicode="&#x16f;" horiz-adv-x="942" 
d="M485 1417q80 0 129.5 -48.5t49.5 -129.5q0 -79 -49.5 -128.5t-129.5 -49.5q-78 0 -128 49.5t-50 128.5q0 81 49.5 129.5t128.5 48.5zM485 1335q-41 0 -65.5 -27t-24.5 -69t24.5 -68t65.5 -26t67 26.5t26 67.5q0 42 -26 69t-67 27zM113 979h143v-524q0 -80 2 -118
t15.5 -82.5t41.5 -72.5q59 -59 156 -59t156 59q28 28 41.5 72.5t15.5 82.5t2 118v524h143v-524q0 -70 -2 -106t-10 -88.5t-29 -92.5t-55 -76q-100 -104 -262 -104t-262 104q-34 36 -55 76t-29 92.5t-10 88.5t-2 106v524z" />
    <glyph glyph-name="Uhungarumlaut" unicode="&#x170;" horiz-adv-x="1134" 
d="M629 1751l-170 -246h-127l153 246h144zM920 1751l-179 -246h-127l162 246h144zM143 1364h152v-793q0 -80 1 -118t7.5 -90.5t21.5 -87t40 -62.5q73 -82 202 -82q130 0 203 82q25 28 40 62.5t21.5 87t7.5 90.5t1 118v793h151v-793q0 -90 -2 -135t-11 -110.5t-32 -114
t-61 -92.5q-55 -63 -138.5 -97t-179.5 -34t-179 34t-138 97q-38 44 -61 92.5t-32.5 113.5t-11.5 111.5t-2 134.5v793z" />
    <glyph glyph-name="uhungarumlaut" unicode="&#x171;" horiz-adv-x="942" 
d="M530 1362l-170 -246h-127l154 246h143zM821 1362l-178 -246h-127l162 246h143zM113 979h143v-524q0 -80 2 -118t15.5 -82.5t41.5 -72.5q59 -59 156 -59t156 59q28 28 41.5 72.5t15.5 82.5t2 118v524h143v-524q0 -70 -2 -106t-10 -88.5t-29 -92.5t-55 -76
q-100 -104 -262 -104t-262 104q-34 36 -55 76t-29 92.5t-10 88.5t-2 106v524z" />
    <glyph glyph-name="Uogonek" unicode="&#x172;" horiz-adv-x="1167" 
d="M295 1364v-813q0 -77 1.5 -114t8 -86.5t23.5 -82.5t45 -61q76 -76 211 -76t211 76q28 28 44.5 60.5t23.5 83.5t8 86t1 114v813h152v-813q0 -84 -2 -128t-12.5 -108.5t-36 -113.5t-68.5 -92q-78 -78 -192 -107q-90 -24 -148.5 -74.5t-58.5 -124.5q0 -32 21 -53.5t53 -21.5
q34 0 79 28l62 -98q-76 -45 -141 -45q-79 0 -134 55t-55 135q0 120 141 189q-161 13 -270 117q-43 43 -68.5 92t-36 113.5t-12.5 108.5t-2 128v813h152z" />
    <glyph glyph-name="uogonek" unicode="&#x173;" horiz-adv-x="983" 
d="M123 979h143v-490q0 -79 1.5 -117t12.5 -85.5t33 -79.5q30 -43 78.5 -63.5t100.5 -20.5t100 20.5t78 63.5q22 32 33 79.5t12.5 85.5t1.5 117v490h143v-490q0 -70 -1.5 -105.5t-7.5 -86.5t-21.5 -90t-41.5 -76q-69 -96 -182 -127q-80 -23 -134 -73.5t-54 -127.5
q0 -32 21 -53.5t53 -21.5q34 0 79 28l62 -98q-76 -45 -141 -45q-79 0 -134 55t-55 135q0 124 133 189q-156 23 -241 139q-26 37 -41.5 76t-21.5 90t-7.5 86.5t-1.5 105.5v490z" />
    <glyph glyph-name="Wcircumflex" unicode="&#x174;" horiz-adv-x="1650" 
d="M786 1753h160l195 -246h-135l-140 156l-139 -156h-135zM143 1364h152v-852q0 -96 2 -139t15 -90.5t40 -81.5q58 -70 170 -70t170 70q39 48 48.5 111t9.5 200v852h151v-852q0 -96 2 -139t15 -90.5t40 -81.5q58 -70 170 -70t170 70q39 48 48.5 111t9.5 200v852h151v-852
q0 -81 -2 -122.5t-10.5 -101.5t-30 -104.5t-57.5 -83.5q-106 -112 -279 -112q-209 0 -303 163q-96 -163 -303 -163q-172 0 -278 112q-36 39 -57.5 83.5t-30.5 104t-11 102t-2 122.5v852z" />
    <glyph glyph-name="wcircumflex" unicode="&#x175;" horiz-adv-x="1433" 
d="M688 1364h160l194 -246h-135l-139 156l-139 -156h-135zM451 -12q-145 0 -236 88q-30 28 -50 63.5t-30 66t-15.5 79.5t-6 79t-0.5 91v524h143v-524q0 -85 2 -125t16 -86.5t43 -73.5q50 -47 134 -47q83 0 133 47q29 27 43 73.5t16 86.5t2 125v524h143v-524q0 -84 2.5 -125
t16.5 -87t43 -73q50 -47 133 -47t133 47q41 39 51.5 100.5t10.5 184.5v524h143v-524q0 -61 -0.5 -91t-6 -79t-15.5 -79.5t-30 -66t-50 -63.5q-91 -88 -236 -88q-88 0 -156.5 37t-109.5 106q-41 -69 -109.5 -106t-156.5 -37z" />
    <glyph glyph-name="Ycircumflex" unicode="&#x176;" horiz-adv-x="1044" 
d="M490 1753h160l194 -246h-135l-139 156l-139 -156h-136zM522 766q19 0 33 14q21 21 82 146l201 438h166l-236 -498q-69 -137 -91 -168q-32 -43 -79 -65v-633h-152v633q-48 23 -75 60.5t-82 147.5q-9 16 -13 25l-235 498h166l201 -438q62 -127 81 -146q14 -14 33 -14z" />
    <glyph glyph-name="ycircumflex" unicode="&#x177;" horiz-adv-x="856" 
d="M367 1360h159l195 -246h-135l-140 156l-139 -156h-135zM31 979h149l193 -660q44 -149 57 -169q14 -21 53 -25l185 854h147l-235 -1063q-20 -89 -36.5 -134.5t-47.5 -80.5q-77 -88 -199 -88q-61 0 -137 27l43 127q52 -19 94 -19q53 0 88 35q21 21 34 61.5t36 147.5
q-87 12 -133 71q-7 9 -12 17t-10.5 20.5t-9 21.5t-10.5 30t-11 34.5t-14 46.5t-17 56z" />
    <glyph glyph-name="Ydieresis" unicode="&#x178;" horiz-adv-x="1044" 
d="M754 1708q43 0 69.5 -26.5t26.5 -69.5t-26.5 -69.5t-69.5 -26.5t-69.5 26.5t-26.5 69.5t26.5 69.5t69.5 26.5zM386 1708q43 0 69.5 -26.5t26.5 -69.5t-26.5 -69.5t-69.5 -26.5t-70 26.5t-27 69.5t27 69.5t70 26.5zM522 766q19 0 33 14q21 21 82 146l201 438h166
l-236 -498q-69 -137 -91 -168q-32 -43 -79 -65v-633h-152v633q-48 23 -75 60.5t-82 147.5q-9 16 -13 25l-235 498h166l201 -438q62 -127 81 -146q14 -14 33 -14z" />
    <glyph glyph-name="Zacute" unicode="&#x179;" horiz-adv-x="1085" 
d="M772 1753l-178 -246h-135l153 246h160zM143 1221v143h494q68 0 102 -2t78 -15t74 -40q67 -60 67 -148q0 -34 -7 -61t-29.5 -61.5t-41 -57.5t-65.5 -78l-446 -528q-88 -104 -100 -126q-11 -20 -11 -42q0 -30 23 -45q18 -11 45 -14t104 -3h533v-143h-535q-67 0 -100.5 2
t-78 14.5t-73.5 38.5q-70 63 -70 150q0 59 27 104.5t109 143.5l481 569q55 65 69.5 87.5t14.5 49.5q0 29 -25 47q-16 10 -46 12.5t-101 2.5h-492z" />
    <glyph glyph-name="zacute" unicode="&#x17a;" horiz-adv-x="847" 
d="M651 1362l-178 -246h-135l154 246h159zM117 844v135h393q36 0 57.5 -1.5t56 -13t62.5 -34.5q70 -55 70 -144q0 -48 -24.5 -91.5t-55 -73t-92.5 -80.5l-230 -191q-47 -39 -63.5 -53t-39.5 -37t-29.5 -37t-6.5 -30q0 -27 18 -41q14 -11 43.5 -14t102.5 -3h373v-135h-373
q-54 0 -81 1.5t-67 8t-67.5 23t-50.5 43.5q-41 50 -41 117q0 37 10.5 67t41.5 65t54.5 56.5t83.5 71.5l227 190q86 71 104 95q19 24 19 48q0 29 -24 45q-20 13 -78 13h-393z" />
    <glyph glyph-name="Zdotaccent" unicode="&#x17b;" horiz-adv-x="1085" 
d="M553 1708q42 0 69 -27t27 -69t-27 -69t-69 -27t-69 27t-27 69t27 69t69 27zM143 1221v143h494q68 0 102 -2t78 -15t74 -40q67 -60 67 -148q0 -34 -7 -61t-29.5 -61.5t-41 -57.5t-65.5 -78l-446 -528q-88 -104 -100 -126q-11 -20 -11 -42q0 -30 23 -45q18 -11 45 -14
t104 -3h533v-143h-535q-67 0 -100.5 2t-78 14.5t-73.5 38.5q-70 63 -70 150q0 59 27 104.5t109 143.5l481 569q55 65 69.5 87.5t14.5 49.5q0 29 -25 47q-16 10 -46 12.5t-101 2.5h-492z" />
    <glyph glyph-name="zdotaccent" unicode="&#x17c;" horiz-adv-x="847" 
d="M432 1317q42 0 69 -27t27 -69q0 -43 -27 -70t-69 -27t-69 27t-27 70q0 42 27 69t69 27zM117 844v135h393q36 0 57.5 -1.5t56 -13t62.5 -34.5q70 -55 70 -144q0 -48 -24.5 -91.5t-55 -73t-92.5 -80.5l-230 -191q-47 -39 -63.5 -53t-39.5 -37t-29.5 -37t-6.5 -30
q0 -27 18 -41q14 -11 43.5 -14t102.5 -3h373v-135h-373q-54 0 -81 1.5t-67 8t-67.5 23t-50.5 43.5q-41 50 -41 117q0 37 10.5 67t41.5 65t54.5 56.5t83.5 71.5l227 190q86 71 104 95q19 24 19 48q0 29 -24 45q-20 13 -78 13h-393z" />
    <glyph glyph-name="Zcaron" unicode="&#x17d;" horiz-adv-x="1085" 
d="M473 1507l-194 246h135l139 -156l139 156h135l-194 -246h-160zM143 1221v143h494q68 0 102 -2t78 -15t74 -40q67 -60 67 -148q0 -34 -7 -61t-29.5 -61.5t-41 -57.5t-65.5 -78l-446 -528q-88 -104 -100 -126q-11 -20 -11 -42q0 -30 23 -45q18 -11 45 -14t104 -3h533v-143
h-535q-67 0 -100.5 2t-78 14.5t-73.5 38.5q-70 63 -70 150q0 59 27 104.5t109 143.5l481 569q55 65 69.5 87.5t14.5 49.5q0 29 -25 47q-16 10 -46 12.5t-101 2.5h-492z" />
    <glyph glyph-name="zcaron" unicode="&#x17e;" horiz-adv-x="847" 
d="M352 1116l-194 246h135l139 -156l139 156h136l-195 -246h-160zM117 844v135h393q36 0 57.5 -1.5t56 -13t62.5 -34.5q70 -55 70 -144q0 -48 -24.5 -91.5t-55 -73t-92.5 -80.5l-230 -191q-47 -39 -63.5 -53t-39.5 -37t-29.5 -37t-6.5 -30q0 -27 18 -41q14 -11 43.5 -14
t102.5 -3h373v-135h-373q-54 0 -81 1.5t-67 8t-67.5 23t-50.5 43.5q-41 50 -41 117q0 37 10.5 67t41.5 65t54.5 56.5t83.5 71.5l227 190q86 71 104 95q19 24 19 48q0 29 -24 45q-20 13 -78 13h-393z" />
    <glyph glyph-name="longs" unicode="&#x17f;" horiz-adv-x="724" 
d="M524 1376q55 0 133 -20l-36 -131q-62 16 -97 16q-72 0 -110 -47q-24 -30 -29.5 -70t-5.5 -137v-987h-143v852h-164v127h164v8q0 78 2 115t15.5 84t41.5 84q80 106 229 106z" />
    <glyph glyph-name="uni018F" unicode="&#x18f;" horiz-adv-x="1187" 
d="M903 547h-618q0 -141 17 -216.5t81 -131.5q77 -68 211 -68t211 68q64 56 81 131.5t17 216.5zM594 1376q194 0 315 -106q42 -37 71 -83.5t43.5 -86.5t22 -101t8.5 -98.5t1 -107.5v-222q0 -71 -1 -109t-8.5 -99t-22.5 -101t-44 -86.5t-72 -83.5q-121 -104 -313 -104
t-313 104q-43 37 -72 83.5t-44 86.5t-22.5 101t-8.5 99t-1 109v111h770v111q0 65 -0.5 96.5t-5.5 80.5t-15.5 78t-30 61.5t-48.5 57.5q-77 66 -209 66q-159 0 -272 -90l-91 114q74 59 169.5 89t193.5 30z" />
    <glyph glyph-name="florin" unicode="&#x192;" horiz-adv-x="735" 
d="M524 1376q55 0 133 -20l-36 -131q-62 16 -97 16q-72 0 -110 -47q-24 -30 -29.5 -70t-5.5 -137v-8h225v-127h-225v-895q0 -78 -2.5 -113t-17.5 -76.5t-48 -76.5q-75 -78 -200 -78q-78 0 -162 35l53 125q58 -25 109 -25q70 0 102 43q16 22 19.5 52.5t3.5 113.5v895h-164
v127h164v8q0 78 2 115t15.5 84t41.5 84q80 106 229 106z" />
    <glyph glyph-name="uni01A9" unicode="&#x1a9;" horiz-adv-x="1024" 
d="M612 672l-311 -529h600v-143h-778v102l352 598l-352 562v102h776v-143h-598l311 -488v-61z" />
    <glyph glyph-name="uni01CD" unicode="&#x1cd;" horiz-adv-x="1216" 
d="M504 1505l-195 246h135l140 -156l139 156h135l-194 -246h-160zM608 1376q90 0 150 -57q28 -26 45.5 -67t48.5 -158l293 -1094h-156l-106 399h-549l-107 -399h-155l293 1094q31 117 48.5 158t45.5 67q60 57 149 57zM373 543h471l-139 518q-36 138 -54 156q-16 16 -43 16
t-43 -16q-17 -17 -53 -156z" />
    <glyph glyph-name="uni01CE" unicode="&#x1ce;" horiz-adv-x="897" 
d="M367 1116l-195 246h135l139 -156l140 156h135l-195 -246h-159zM795 410q0 -66 -1.5 -98t-7.5 -77.5t-21.5 -78t-41.5 -62.5q-90 -106 -281 -106q-153 0 -247 67q-55 38 -89 99t-34 137q0 149 121 235q44 32 103 49t94.5 19t92.5 2h168q0 44 -1.5 70t-13 66t-34.5 65
q-53 59 -166 59q-128 0 -266 -53l-45 129q162 59 311 59q183 0 277 -108q29 -33 47 -71t25 -86t8.5 -79t1.5 -86v-151zM651 410v59h-168q-47 0 -72.5 -1.5t-63 -11t-64.5 -28.5q-68 -50 -68 -137q0 -81 66 -129q56 -39 161 -39q121 0 170 57q27 31 33 77t6 153z" />
    <glyph glyph-name="uni01CF" unicode="&#x1cf;" horiz-adv-x="458" 
d="M150 1503l-195 246h135l139 -156l140 156h135l-195 -246h-159zM305 1364v-1364h-151v1364h151z" />
    <glyph glyph-name="uni01D0" unicode="&#x1d0;" horiz-adv-x="438" 
d="M139 1116l-194 246h135l139 -156l139 156h136l-195 -246h-160zM147 977h144v-977h-144v977z" />
    <glyph glyph-name="uni01D1" unicode="&#x1d1;" horiz-adv-x="1196" 
d="M535 1503l-195 246h135l139 -156l140 156h135l-195 -246h-159zM285 682q0 -130 2 -188.5t14 -124t37 -107.5q37 -62 105.5 -96.5t154.5 -34.5t154.5 34.5t105.5 96.5q25 42 37 107.5t14 124t2 188.5t-2 188.5t-14 124t-37 107.5q-37 62 -105.5 96.5t-154.5 34.5
t-154.5 -34.5t-105.5 -96.5q-25 -42 -37 -107.5t-14 -124t-2 -188.5zM133 682q0 149 2.5 215t19 142.5t52.5 134.5q58 95 160.5 148.5t230.5 53.5t230.5 -53.5t160.5 -148.5q51 -83 62.5 -180.5t11.5 -311.5q0 -149 -2.5 -215t-19 -142.5t-52.5 -134.5
q-58 -95 -160.5 -148.5t-230.5 -53.5t-230.5 53.5t-160.5 148.5q-51 83 -62.5 180.5t-11.5 311.5z" />
    <glyph glyph-name="uni01D2" unicode="&#x1d2;" 
d="M422 1116l-195 246h135l140 -156l139 156h135l-194 -246h-160zM481 856q-134 0 -200 -98q-21 -32 -31.5 -80.5t-12 -84t-1.5 -104.5q0 -68 1.5 -104t12 -84t31.5 -80q66 -98 200 -98q135 0 201 98q21 32 31.5 80t12 84t1.5 104q0 69 -1.5 104.5t-12 84t-31.5 80.5
q-66 98 -201 98zM481 991q108 0 194 -46t136 -128q28 -46 41.5 -106.5t15.5 -102t2 -119.5q0 -77 -2 -118.5t-15.5 -102t-41.5 -106.5q-50 -82 -136 -128t-194 -46t-193.5 46t-135.5 128q-28 46 -42 106t-16 102.5t-2 118.5t2 119t16 103t42 106q50 82 135.5 128t193.5 46z
" />
    <glyph glyph-name="uni01D3" unicode="&#x1d3;" horiz-adv-x="1134" 
d="M504 1503l-195 246h135l140 -156l139 156h135l-194 -246h-160zM143 1364h152v-793q0 -80 1 -118t7.5 -90.5t21.5 -87t40 -62.5q73 -82 202 -82q130 0 203 82q25 28 40 62.5t21.5 87t7.5 90.5t1 118v793h151v-793q0 -90 -2 -135t-11 -110.5t-32 -114t-61 -92.5
q-55 -63 -138.5 -97t-179.5 -34t-179 34t-138 97q-38 44 -61 92.5t-32.5 113.5t-11.5 111.5t-2 134.5v793z" />
    <glyph glyph-name="uni01D4" unicode="&#x1d4;" horiz-adv-x="942" 
d="M406 1114l-195 246h135l139 -156l140 156h135l-195 -246h-159zM113 979h143v-524q0 -80 2 -118t15.5 -82.5t41.5 -72.5q59 -59 156 -59t156 59q28 28 41.5 72.5t15.5 82.5t2 118v524h143v-524q0 -70 -2 -106t-10 -88.5t-29 -92.5t-55 -76q-100 -104 -262 -104t-262 104
q-34 36 -55 76t-29 92.5t-10 88.5t-2 106v524z" />
    <glyph glyph-name="uni01DD" unicode="&#x1dd;" horiz-adv-x="960" 
d="M440 -12q-159 0 -254 82q-94 81 -94 198q0 59 25.5 109.5t64.5 81.5q34 27 67.5 42.5t78 22t73.5 7.5t93 1h221q-2 90 -13.5 145.5t-42.5 94.5q-66 84 -210 84q-142 0 -254 -59l-60 123q142 71 314 71q217 0 325 -137q54 -70 69 -153.5t15 -231.5q0 -111 -16 -190
t-62 -140q-52 -71 -140.5 -111t-199.5 -40zM440 123q147 0 217 86q56 69 56 197h-219q-62 0 -91 -1.5t-64 -9.5t-56 -26q-47 -40 -47 -101t49 -100q57 -45 155 -45z" />
    <glyph glyph-name="Gcaron" unicode="&#x1e6;" horiz-adv-x="1187" 
d="M514 1499l-195 246h136l139 -156l139 156h135l-194 -246h-160zM594 1376q97 0 190.5 -32t167.5 -93l-88 -114q-116 96 -270 96q-156 0 -238 -103q-50 -65 -60.5 -147.5t-10.5 -300.5q0 -219 10.5 -301.5t60.5 -147.5q81 -102 238 -102q156 0 237 102q44 59 57.5 132
t14.5 223h-282v143h434v-49q0 -122 -2 -180t-11 -131.5t-29.5 -122.5t-56.5 -96q-58 -75 -149.5 -119.5t-212.5 -44.5t-213 45t-150 119q-29 38 -48 82t-29 81.5t-14.5 105.5t-5.5 114t-1 147t1 147t5.5 114t14.5 105.5t29 81.5t48 82q58 74 150 119t213 45z" />
    <glyph glyph-name="gcaron" unicode="&#x1e7;" 
d="M391 1116l-194 246h135l139 -156l139 156h135l-194 -246h-160zM475 856q-113 0 -174 -68q-24 -27 -38 -58t-19.5 -75.5t-6.5 -73t-1 -87.5q0 -57 1 -87.5t6.5 -75.5t18.5 -77.5t35 -58.5q62 -72 174 -72t174 72q29 34 43 89.5t16.5 103t2.5 142.5q0 68 -2 104t-13.5 78.5
t-34.5 69.5q-29 35 -77.5 54.5t-104.5 19.5zM475 991q81 0 159.5 -29t133.5 -94q56 -66 69 -138t13 -220v-418q0 -70 -1.5 -106t-10 -87.5t-28.5 -90.5t-54 -76q-109 -119 -305 -119q-163 0 -299 74l59 123q114 -62 240 -62q139 0 206 84q34 42 42 95.5t8 164.5v21
q-41 -59 -106 -92t-140 -33q-88 0 -159.5 32.5t-117.5 88.5q-33 40 -53 84.5t-28 101t-9.5 93.5t-1.5 106q0 64 2 100.5t10 92.5t29.5 101.5t56.5 85.5q105 117 285 117z" />
    <glyph glyph-name="uni01E8" unicode="&#x1e8;" horiz-adv-x="1159" 
 />
    <glyph glyph-name="uni01E9" unicode="&#x1e9;" horiz-adv-x="937" 
 />
    <glyph glyph-name="uni01EA" unicode="&#x1ea;" horiz-adv-x="1228" 
d="M760 6q-40 -11 -75 -26t-69.5 -39t-54.5 -59.5t-20 -78.5q0 -32 20.5 -53.5t52.5 -21.5q35 0 80 28l62 -98q-76 -45 -142 -45q-79 0 -133.5 55t-54.5 135q0 63 40 113.5t101 73.5q-176 14 -293 121q-41 39 -69 86t-42 86.5t-21 101t-8 98.5t-1 109v180q0 72 1 109t8 98.5
t21 101t42 86.5t69 86q61 58 150 90.5t190 32.5t190 -32.5t150 -90.5q41 -39 69 -85.5t42 -87t21.5 -101t8.5 -98.5t1 -109v-180q0 -70 -1 -107.5t-8.5 -98.5t-21.5 -101.5t-42 -88t-69 -85.5q-83 -77 -194 -105zM614 1233q-145 0 -233 -82q-28 -26 -47 -59.5t-28.5 -63
t-14.5 -79t-5.5 -81t-0.5 -96.5v-180q0 -65 0.5 -96.5t5.5 -81t14.5 -79t28.5 -63t47 -59.5q88 -82 233 -82q146 0 234 82q28 26 47 59.5t28.5 63t14.5 79t5.5 81t0.5 96.5v180q0 65 -0.5 96.5t-5.5 81t-14.5 79t-28.5 63t-47 59.5q-88 82 -234 82z" />
    <glyph glyph-name="uni01EB" unicode="&#x1eb;" horiz-adv-x="1003" 
d="M502 856q-132 0 -195 -88q-24 -34 -36 -83.5t-13.5 -86.5t-1.5 -109t1.5 -109t13.5 -86t36 -83q63 -88 195 -88q131 0 194 88q24 34 36 82.5t14 87t2 108.5q0 71 -2 109t-14 87t-36 83q-63 88 -194 88zM502 991q97 0 181 -38.5t136 -114.5q34 -48 50.5 -114t19 -110.5
t2.5 -124.5t-2.5 -124t-19 -110t-50.5 -114q-73 -107 -205 -139q-77 -20 -131.5 -74t-54.5 -125q0 -32 21 -53.5t53 -21.5q35 0 80 28l61 -98q-76 -45 -141 -45q-79 0 -134 55t-55 135q0 121 136 189q-174 21 -265 149q-34 48 -50.5 114.5t-18.5 109t-2 124.5q0 62 1 93.5
t7 83.5t21.5 93.5t41.5 78.5q52 76 136.5 114.5t181.5 38.5z" />
    <glyph glyph-name="uni01F4" unicode="&#x1f4;" horiz-adv-x="1187" 
d="M840 1745l-178 -246h-136l154 246h160zM594 1376q97 0 190.5 -32t167.5 -93l-88 -114q-116 96 -270 96q-156 0 -238 -103q-50 -65 -60.5 -147.5t-10.5 -300.5q0 -219 10.5 -301.5t60.5 -147.5q81 -102 238 -102q156 0 237 102q44 59 57.5 132t14.5 223h-282v143h434v-49
q0 -122 -2 -180t-11 -131.5t-29.5 -122.5t-56.5 -96q-58 -75 -149.5 -119.5t-212.5 -44.5t-213 45t-150 119q-29 38 -48 82t-29 81.5t-14.5 105.5t-5.5 114t-1 147t1 147t5.5 114t14.5 105.5t29 81.5t48 82q58 74 150 119t213 45z" />
    <glyph glyph-name="uni01F5" unicode="&#x1f5;" 
d="M690 1364l-178 -246h-135l153 246h160zM475 856q-113 0 -174 -68q-24 -27 -38 -58t-19.5 -75.5t-6.5 -73t-1 -87.5q0 -57 1 -87.5t6.5 -75.5t18.5 -77.5t35 -58.5q62 -72 174 -72t174 72q29 34 43 89.5t16.5 103t2.5 142.5q0 68 -2 104t-13.5 78.5t-34.5 69.5
q-29 35 -77.5 54.5t-104.5 19.5zM475 991q81 0 159.5 -29t133.5 -94q56 -66 69 -138t13 -220v-418q0 -70 -1.5 -106t-10 -87.5t-28.5 -90.5t-54 -76q-109 -119 -305 -119q-163 0 -299 74l59 123q114 -62 240 -62q139 0 206 84q34 42 42 95.5t8 164.5v21q-41 -59 -106 -92
t-140 -33q-88 0 -159.5 32.5t-117.5 88.5q-33 40 -53 84.5t-28 101t-9.5 93.5t-1.5 106q0 64 2 100.5t10 92.5t29.5 101.5t56.5 85.5q105 117 285 117z" />
    <glyph glyph-name="uni01F8" unicode="&#x1f8;" horiz-adv-x="1134" 
d="M338 1753h160l153 -246h-135zM567 1376q96 0 179.5 -34t138.5 -97q38 -44 61 -92.5t32 -114t11 -110.5t2 -135v-793h-151v793q0 80 -1 118t-7.5 90.5t-21.5 87t-40 62.5q-73 82 -203 82q-129 0 -202 -82q-25 -28 -40 -62.5t-21.5 -87t-7.5 -90.5t-1 -118v-793h-152v793
q0 88 2 134.5t11.5 111.5t32.5 113.5t61 92.5q55 63 138 97t179 34z" />
    <glyph glyph-name="uni01F9" unicode="&#x1f9;" horiz-adv-x="942" 
d="M266 1364h160l154 -246h-136zM471 991q162 0 262 -104q34 -36 55 -76t29 -92.5t10 -88.5t2 -106v-524h-143v524q0 80 -2 118t-15.5 82.5t-41.5 72.5q-59 59 -156 59t-156 -59q-28 -28 -41.5 -72.5t-15.5 -82.5t-2 -118v-524h-143v524q0 70 2 106t10 88.5t29 92.5t55 76
q100 104 262 104z" />
    <glyph glyph-name="uni0200" unicode="&#x200;" horiz-adv-x="1216" 
d="M530 1753h148l153 -246h-131zM252 1753h147l162 -246h-131zM608 1376q90 0 150 -57q28 -26 45.5 -67t48.5 -158l293 -1094h-156l-106 399h-549l-107 -399h-155l293 1094q31 117 48.5 158t45.5 67q60 57 149 57zM373 543h471l-139 518q-36 138 -54 156q-16 16 -43 16
t-43 -16q-17 -17 -53 -156z" />
    <glyph glyph-name="uni0201" unicode="&#x201;" horiz-adv-x="897" 
d="M393 1364h148l153 -246h-131zM115 1364h147l162 -246h-131zM795 410q0 -66 -1.5 -98t-7.5 -77.5t-21.5 -78t-41.5 -62.5q-90 -106 -281 -106q-153 0 -247 67q-55 38 -89 99t-34 137q0 149 121 235q44 32 103 49t94.5 19t92.5 2h168q0 44 -1.5 70t-13 66t-34.5 65
q-53 59 -166 59q-128 0 -266 -53l-45 129q162 59 311 59q183 0 277 -108q29 -33 47 -71t25 -86t8.5 -79t1.5 -86v-151zM651 410v59h-168q-47 0 -72.5 -1.5t-63 -11t-64.5 -28.5q-68 -50 -68 -137q0 -81 66 -129q56 -39 161 -39q121 0 170 57q27 31 33 77t6 153z" />
    <glyph glyph-name="uni0202" unicode="&#x202;" horiz-adv-x="1216" 
d="M840 1507h-115q0 152 -139 152q-140 0 -140 -152h-114q0 120 66.5 189t187.5 69t187.5 -69t66.5 -189zM608 1376q90 0 150 -57q28 -26 45.5 -67t48.5 -158l293 -1094h-156l-106 399h-549l-107 -399h-155l293 1094q31 117 48.5 158t45.5 67q60 57 149 57zM373 543h471
l-139 518q-36 138 -54 156q-16 16 -43 16t-43 -16q-17 -17 -53 -156z" />
    <glyph glyph-name="uni0203" unicode="&#x203;" horiz-adv-x="897" 
d="M702 1118h-114q0 152 -139 152q-140 0 -140 -152h-114q0 120 66.5 189t187.5 69q120 0 186.5 -69t66.5 -189zM795 410q0 -66 -1.5 -98t-7.5 -77.5t-21.5 -78t-41.5 -62.5q-90 -106 -281 -106q-153 0 -247 67q-55 38 -89 99t-34 137q0 149 121 235q44 32 103 49t94.5 19
t92.5 2h168q0 44 -1.5 70t-13 66t-34.5 65q-53 59 -166 59q-128 0 -266 -53l-45 129q162 59 311 59q183 0 277 -108q29 -33 47 -71t25 -86t8.5 -79t1.5 -86v-151zM651 410v59h-168q-47 0 -72.5 -1.5t-63 -11t-64.5 -28.5q-68 -50 -68 -137q0 -81 66 -129q56 -39 161 -39
q121 0 170 57q27 31 33 77t6 153z" />
    <glyph glyph-name="uni0204" unicode="&#x204;" horiz-adv-x="1044" 
d="M469 1753h147l154 -246h-131zM190 1753h148l162 -246h-131zM305 774l483 2v-143l-483 -2v-314q0 -74 5.5 -105t29.5 -50q17 -13 44.5 -16t90.5 -3h436v-143h-436q-59 0 -90 2t-74 15t-75 40q-29 26 -47 55t-25 67t-8.5 63.5t-1.5 74.5v730q0 49 1.5 74.5t8.5 63.5t25 67
t47 55q32 27 75 40t74 15t90 2h436v-143h-436q-63 0 -90.5 -3t-44.5 -16q-24 -19 -29.5 -50t-5.5 -105v-273z" />
    <glyph glyph-name="uni0205" unicode="&#x205;" horiz-adv-x="929" 
d="M446 1364h148l154 -246h-132zM168 1364h147l162 -246h-131zM285 209q64 -86 204 -86q138 0 250 59l60 -123q-139 -71 -310 -71q-105 0 -187 36t-132 103q-37 50 -55 116t-20.5 112t-2.5 134q0 76 1.5 112t8 85.5t22 86t42.5 73.5q49 69 137 107t197 38q150 0 245 -76
q100 -84 103 -206q0 -64 -28.5 -116t-74.5 -85q-59 -42 -124.5 -52t-194.5 -10h-188q0 -174 47 -237zM705 709q-3 63 -54 104q-52 43 -151 43q-143 0 -211 -80q-51 -59 -51 -203h188q111 0 155 5t74 28q50 37 50 103z" />
    <glyph glyph-name="uni0206" unicode="&#x206;" horiz-adv-x="1044" 
d="M778 1507h-114q0 152 -140 152q-139 0 -139 -152h-115q0 120 66.5 189t187.5 69t187.5 -69t66.5 -189zM305 774l483 2v-143l-483 -2v-314q0 -74 5.5 -105t29.5 -50q17 -13 44.5 -16t90.5 -3h436v-143h-436q-59 0 -90 2t-74 15t-75 40q-29 26 -47 55t-25 67t-8.5 63.5
t-1.5 74.5v730q0 49 1.5 74.5t8.5 63.5t25 67t47 55q32 27 75 40t74 15t90 2h436v-143h-436q-63 0 -90.5 -3t-44.5 -16q-24 -19 -29.5 -50t-5.5 -105v-273z" />
    <glyph glyph-name="uni0207" unicode="&#x207;" horiz-adv-x="929" 
d="M756 1118h-115q0 152 -139 152q-140 0 -140 -152h-114q0 120 66.5 189t187.5 69t187.5 -69t66.5 -189zM285 209q64 -86 204 -86q138 0 250 59l60 -123q-139 -71 -310 -71q-105 0 -187 36t-132 103q-37 50 -55 116t-20.5 112t-2.5 134q0 76 1.5 112t8 85.5t22 86
t42.5 73.5q49 69 137 107t197 38q150 0 245 -76q100 -84 103 -206q0 -64 -28.5 -116t-74.5 -85q-59 -42 -124.5 -52t-194.5 -10h-188q0 -174 47 -237zM705 709q-3 63 -54 104q-52 43 -151 43q-143 0 -211 -80q-51 -59 -51 -203h188q111 0 155 5t74 28q50 37 50 103z" />
    <glyph glyph-name="uni0208" unicode="&#x208;" horiz-adv-x="458" 
d="M176 1751h148l153 -246h-131zM-102 1751h147l162 -246h-131zM305 1364v-1364h-151v1364h151z" />
    <glyph glyph-name="uni0209" unicode="&#x209;" horiz-adv-x="438" 
d="M166 1364h147l154 -246h-131zM-113 1364h148l162 -246h-131zM147 977h144v-977h-144v977z" />
    <glyph glyph-name="uni020A" unicode="&#x20a;" horiz-adv-x="458" 
d="M485 1505h-114q0 152 -140 152q-139 0 -139 -152h-115q0 120 66.5 189t187.5 69t187.5 -69t66.5 -189zM305 1364v-1364h-151v1364h151z" />
    <glyph glyph-name="uni020B" unicode="&#x20b;" horiz-adv-x="438" 
d="M475 1118h-115q0 152 -139 152t-139 -152h-115q0 120 66.5 189t187.5 69t187.5 -69t66.5 -189zM147 977h144v-977h-144v977z" />
    <glyph glyph-name="uni020C" unicode="&#x20c;" horiz-adv-x="1196" 
d="M561 1751h148l153 -246h-131zM283 1751h147l162 -246h-131zM285 682q0 -130 2 -188.5t14 -124t37 -107.5q37 -62 105.5 -96.5t154.5 -34.5t154.5 34.5t105.5 96.5q25 42 37 107.5t14 124t2 188.5t-2 188.5t-14 124t-37 107.5q-37 62 -105.5 96.5t-154.5 34.5
t-154.5 -34.5t-105.5 -96.5q-25 -42 -37 -107.5t-14 -124t-2 -188.5zM133 682q0 149 2.5 215t19 142.5t52.5 134.5q58 95 160.5 148.5t230.5 53.5t230.5 -53.5t160.5 -148.5q51 -83 62.5 -180.5t11.5 -311.5q0 -149 -2.5 -215t-19 -142.5t-52.5 -134.5
q-58 -95 -160.5 -148.5t-230.5 -53.5t-230.5 53.5t-160.5 148.5q-51 83 -62.5 180.5t-11.5 311.5z" />
    <glyph glyph-name="uni020D" unicode="&#x20d;" 
d="M449 1364h147l154 -246h-132zM170 1364h147l162 -246h-131zM481 856q-134 0 -200 -98q-21 -32 -31.5 -80.5t-12 -84t-1.5 -104.5q0 -68 1.5 -104t12 -84t31.5 -80q66 -98 200 -98q135 0 201 98q21 32 31.5 80t12 84t1.5 104q0 69 -1.5 104.5t-12 84t-31.5 80.5
q-66 98 -201 98zM481 991q108 0 194 -46t136 -128q28 -46 41.5 -106.5t15.5 -102t2 -119.5q0 -77 -2 -118.5t-15.5 -102t-41.5 -106.5q-50 -82 -136 -128t-194 -46t-193.5 46t-135.5 128q-28 46 -42 106t-16 102.5t-2 118.5t2 119t16 103t42 106q50 82 135.5 128t193.5 46z
" />
    <glyph glyph-name="uni020E" unicode="&#x20e;" horiz-adv-x="1196" 
d="M870 1505h-114q0 152 -140 152q-139 0 -139 -152h-115q0 120 66.5 189t187.5 69t187.5 -69t66.5 -189zM285 682q0 -130 2 -188.5t14 -124t37 -107.5q37 -62 105.5 -96.5t154.5 -34.5t154.5 34.5t105.5 96.5q25 42 37 107.5t14 124t2 188.5t-2 188.5t-14 124t-37 107.5
q-37 62 -105.5 96.5t-154.5 34.5t-154.5 -34.5t-105.5 -96.5q-25 -42 -37 -107.5t-14 -124t-2 -188.5zM133 682q0 149 2.5 215t19 142.5t52.5 134.5q58 95 160.5 148.5t230.5 53.5t230.5 -53.5t160.5 -148.5q51 -83 62.5 -180.5t11.5 -311.5q0 -149 -2.5 -215t-19 -142.5
t-52.5 -134.5q-58 -95 -160.5 -148.5t-230.5 -53.5t-230.5 53.5t-160.5 148.5q-51 83 -62.5 180.5t-11.5 311.5z" />
    <glyph glyph-name="uni020F" unicode="&#x20f;" 
d="M758 1118h-115q0 152 -139 152t-139 -152h-115q0 120 66.5 189t187.5 69t187.5 -69t66.5 -189zM481 856q-134 0 -200 -98q-21 -32 -31.5 -80.5t-12 -84t-1.5 -104.5q0 -68 1.5 -104t12 -84t31.5 -80q66 -98 200 -98q135 0 201 98q21 32 31.5 80t12 84t1.5 104
q0 69 -1.5 104.5t-12 84t-31.5 80.5q-66 98 -201 98zM481 991q108 0 194 -46t136 -128q28 -46 41.5 -106.5t15.5 -102t2 -119.5q0 -77 -2 -118.5t-15.5 -102t-41.5 -106.5q-50 -82 -136 -128t-194 -46t-193.5 46t-135.5 128q-28 46 -42 106t-16 102.5t-2 118.5t2 119t16 103
t42 106q50 82 135.5 128t193.5 46z" />
    <glyph glyph-name="uni0210" unicode="&#x210;" horiz-adv-x="1126" 
d="M469 1753h147l154 -246h-131zM190 1753h148l162 -246h-131zM465 1221q-56 0 -82 -3t-43 -16q-24 -19 -29.5 -50t-5.5 -105v-379h141q75 0 108 1t80.5 7.5t78.5 21.5t59 41q80 74 80 205t-80 205q-28 26 -59.5 41.5t-76 21.5t-76 7.5t-95.5 1.5zM465 1364q57 0 87.5 -1
t83 -6.5t88 -17t78 -33.5t77.5 -55q125 -118 125 -307q0 -129 -61.5 -228t-160.5 -145l242 -571h-164l-221 530q-45 -6 -193 -6h-141v-524h-151v1047q0 49 1.5 74.5t8.5 63.5t25 67t47 55q32 27 74.5 40t72 15t82.5 2z" />
    <glyph glyph-name="uni0211" unicode="&#x211;" horiz-adv-x="692" 
d="M269 1360h148l153 -246h-131zM-9 1360h147l162 -246h-131zM487 991q76 0 140 -22l-43 -129q-46 16 -97 16q-56 0 -104.5 -19.5t-77.5 -54.5q-23 -27 -34.5 -71t-13 -82t-1.5 -119v-510h-143v510q0 64 0.5 93.5t4.5 74.5t12.5 72t24.5 58.5t40 59.5q55 65 133.5 94
t158.5 29z" />
    <glyph glyph-name="uni0212" unicode="&#x212;" horiz-adv-x="1126" 
d="M778 1507h-114q0 152 -140 152q-139 0 -139 -152h-115q0 120 66.5 189t187.5 69t187.5 -69t66.5 -189zM465 1221q-56 0 -82 -3t-43 -16q-24 -19 -29.5 -50t-5.5 -105v-379h141q75 0 108 1t80.5 7.5t78.5 21.5t59 41q80 74 80 205t-80 205q-28 26 -59.5 41.5t-76 21.5
t-76 7.5t-95.5 1.5zM465 1364q57 0 87.5 -1t83 -6.5t88 -17t78 -33.5t77.5 -55q125 -118 125 -307q0 -129 -61.5 -228t-160.5 -145l242 -571h-164l-221 530q-45 -6 -193 -6h-141v-524h-151v1047q0 49 1.5 74.5t8.5 63.5t25 67t47 55q32 27 74.5 40t72 15t82.5 2z" />
    <glyph glyph-name="uni0213" unicode="&#x213;" horiz-adv-x="692" 
d="M624 1114h-115q0 152 -139 152q-140 0 -140 -152h-114q0 120 66.5 189t187.5 69t187.5 -69t66.5 -189zM487 991q76 0 140 -22l-43 -129q-46 16 -97 16q-56 0 -104.5 -19.5t-77.5 -54.5q-23 -27 -34.5 -71t-13 -82t-1.5 -119v-510h-143v510q0 64 0.5 93.5t4.5 74.5
t12.5 72t24.5 58.5t40 59.5q55 65 133.5 94t158.5 29z" />
    <glyph glyph-name="uni0214" unicode="&#x214;" horiz-adv-x="1134" 
d="M530 1751h148l153 -246h-131zM252 1751h147l162 -246h-131zM143 1364h152v-793q0 -80 1 -118t7.5 -90.5t21.5 -87t40 -62.5q73 -82 202 -82q130 0 203 82q25 28 40 62.5t21.5 87t7.5 90.5t1 118v793h151v-793q0 -90 -2 -135t-11 -110.5t-32 -114t-61 -92.5
q-55 -63 -138.5 -97t-179.5 -34t-179 34t-138 97q-38 44 -61 92.5t-32.5 113.5t-11.5 111.5t-2 134.5v793z" />
    <glyph glyph-name="uni0215" unicode="&#x215;" horiz-adv-x="942" 
d="M432 1362h148l153 -246h-131zM154 1362h147l162 -246h-131zM113 979h143v-524q0 -80 2 -118t15.5 -82.5t41.5 -72.5q59 -59 156 -59t156 59q28 28 41.5 72.5t15.5 82.5t2 118v524h143v-524q0 -70 -2 -106t-10 -88.5t-29 -92.5t-55 -76q-100 -104 -262 -104t-262 104
q-34 36 -55 76t-29 92.5t-10 88.5t-2 106v524z" />
    <glyph glyph-name="uni0216" unicode="&#x216;" horiz-adv-x="1134" 
d="M840 1505h-115q0 152 -139 152q-140 0 -140 -152h-114q0 120 66.5 189t187.5 69t187.5 -69t66.5 -189zM143 1364h152v-793q0 -80 1 -118t7.5 -90.5t21.5 -87t40 -62.5q73 -82 202 -82q130 0 203 82q25 28 40 62.5t21.5 87t7.5 90.5t1 118v793h151v-793q0 -90 -2 -135
t-11 -110.5t-32 -114t-61 -92.5q-55 -63 -138.5 -97t-179.5 -34t-179 34t-138 97q-38 44 -61 92.5t-32.5 113.5t-11.5 111.5t-2 134.5v793z" />
    <glyph glyph-name="uni0217" unicode="&#x217;" horiz-adv-x="942" 
d="M741 1116h-114q0 152 -140 152q-139 0 -139 -152h-115q0 120 66.5 189t187.5 69t187.5 -69t66.5 -189zM113 979h143v-524q0 -80 2 -118t15.5 -82.5t41.5 -72.5q59 -59 156 -59t156 59q28 28 41.5 72.5t15.5 82.5t2 118v524h143v-524q0 -70 -2 -106t-10 -88.5t-29 -92.5
t-55 -76q-100 -104 -262 -104t-262 104q-34 36 -55 76t-29 92.5t-10 88.5t-2 106v524z" />
    <glyph glyph-name="uni0218" unicode="&#x218;" horiz-adv-x="1044" 
d="M602 -223q0 -25 -22 -80l-74 -166h-92l53 160q-57 21 -57 86q0 41 28 67.5t68 26.5t68 -26.5t28 -67.5zM506 1376q107 0 206.5 -32.5t174.5 -90.5l-90 -114q-54 43 -130.5 68.5t-160.5 25.5q-127 0 -190.5 -60t-63.5 -143q0 -96 82 -162q52 -44 196 -86q67 -20 97.5 -30
t85 -37.5t94.5 -61.5q58 -49 96.5 -124.5t38.5 -159.5q0 -72 -27.5 -138.5t-79.5 -121.5t-137.5 -88t-191.5 -33q-116 0 -224.5 37.5t-193.5 109.5l96 111q130 -115 322 -115q74 0 130.5 21t89 56.5t49 76t16.5 84.5q0 48 -24.5 97.5t-66.5 84.5q-20 17 -43 30.5t-62.5 27.5
t-56 19.5t-71.5 22.5q-56 17 -81 25.5t-72.5 33t-86.5 56.5q-55 45 -91 115t-36 145q0 151 110 250.5t296 99.5z" />
    <glyph glyph-name="uni0219" unicode="&#x219;" horiz-adv-x="835" 
d="M524 -223q0 -25 -22 -80l-74 -166h-92l53 160q-57 21 -57 86q0 41 28 67.5t68 26.5t68 -26.5t28 -67.5zM707 924l-54 -125q-120 57 -245 57q-72 0 -123 -29q-60 -34 -60 -102q0 -60 51 -100q28 -23 61.5 -34.5t96.5 -25.5q133 -29 199 -76q53 -38 87 -95t34 -128
q0 -66 -30.5 -121.5t-80.5 -91.5q-91 -65 -235 -65q-179 0 -330 71l57 123q127 -59 273 -59q97 0 149 39q53 39 53 104q0 68 -57 111q-47 35 -162 59q-134 28 -201 80q-49 37 -78.5 91.5t-29.5 117.5q0 66 31.5 119.5t79.5 87.5q85 59 215 59q156 0 299 -67z" />
    <glyph glyph-name="uni021A" unicode="&#x21a;" horiz-adv-x="1085" 
d="M670 -223q0 -23 -23 -80l-74 -166h-92l54 160q-26 9 -42 32t-16 54q0 41 28 67.5t68 26.5t68.5 -26.5t28.5 -67.5zM82 1364h922v-143h-386v-1221h-151v1221h-385v143z" />
    <glyph glyph-name="uni021B" unicode="&#x21b;" horiz-adv-x="643" 
d="M457 -223q0 -23 -23 -80l-74 -166h-92l54 160q-26 9 -42 32t-16 54q0 41 28 67.5t68 26.5t68.5 -26.5t28.5 -67.5zM266 348q0 -92 4.5 -125t24.5 -59q33 -41 96 -41q60 0 133 39l62 -121q-101 -53 -195 -53q-66 0 -121.5 25t-89.5 69q-27 34 -40 78.5t-15 79t-2 108.5
v862h143v-231h246v-127h-246v-504z" />
    <glyph glyph-name="uni021E" unicode="&#x21e;" horiz-adv-x="1208" 
d="M524 1503l-194 246h135l139 -156l139 156h136l-195 -246h-160zM154 1364h151v-590h598v590h152v-1364h-152v631h-598v-631h-151v1364z" />
    <glyph glyph-name="uni021F" unicode="&#x21f;" 
d="M125 1503l-195 246h136l139 -156l139 156h135l-194 -246h-160zM133 1364h143v-487q36 52 95.5 83t130.5 31q84 0 148.5 -30t105.5 -74q34 -36 54 -76t28.5 -92.5t10 -88.5t1.5 -106v-524h-143v524q0 79 -2.5 118t-16 83t-41.5 72q-59 59 -155 59q-97 0 -156 -59
q-40 -40 -50 -98.5t-10 -174.5v-524h-143v1364z" />
    <glyph glyph-name="uni0226" unicode="&#x226;" horiz-adv-x="1216" 
d="M584 1706q42 0 69 -27t27 -69t-27 -69.5t-69 -27.5t-69.5 27.5t-27.5 69.5t27.5 69t69.5 27zM608 1376q90 0 150 -57q28 -26 45.5 -67t48.5 -158l293 -1094h-156l-106 399h-549l-107 -399h-155l293 1094q31 117 48.5 158t45.5 67q60 57 149 57zM373 543h471l-139 518
q-36 138 -54 156q-16 16 -43 16t-43 -16q-17 -17 -53 -156z" />
    <glyph glyph-name="uni0227" unicode="&#x227;" horiz-adv-x="897" 
d="M446 1317q42 0 69.5 -27t27.5 -69t-27.5 -69.5t-69.5 -27.5t-69 27t-27 70q0 42 27 69t69 27zM795 410q0 -66 -1.5 -98t-7.5 -77.5t-21.5 -78t-41.5 -62.5q-90 -106 -281 -106q-153 0 -247 67q-55 38 -89 99t-34 137q0 149 121 235q44 32 103 49t94.5 19t92.5 2h168
q0 44 -1.5 70t-13 66t-34.5 65q-53 59 -166 59q-128 0 -266 -53l-45 129q162 59 311 59q183 0 277 -108q29 -33 47 -71t25 -86t8.5 -79t1.5 -86v-151zM651 410v59h-168q-47 0 -72.5 -1.5t-63 -11t-64.5 -28.5q-68 -50 -68 -137q0 -81 66 -129q56 -39 161 -39q121 0 170 57
q27 31 33 77t6 153z" />
    <glyph glyph-name="uni0228" unicode="&#x228;" horiz-adv-x="1024" 
d="M393 -262q46 -19 84 -19q43 0 74 15q41 23 41 61q0 36 -33 53q-18 9 -51 9h-76l45 143h-2q-59 0 -90 2t-74 15t-75 40q-29 26 -47 55t-25 67t-8.5 63.5t-1.5 74.5v730q0 49 1.5 74.5t8.5 63.5t25 67t47 55q32 27 75 40t74 15t90 2h416v-143h-416q-63 0 -90.5 -3
t-44.5 -16q-24 -19 -29.5 -50t-5.5 -105v-273l483 2v-143l-483 -2v-314q0 -74 5.5 -105t29.5 -50q17 -13 44.5 -16t90.5 -3h416v-143h-324l-22 -76q29 0 41.5 -0.5t33.5 -6.5t39 -19q48 -36 48 -101q0 -75 -64 -131q-63 -53 -166 -53q-63 0 -117 22z" />
    <glyph glyph-name="uni0229" unicode="&#x229;" horiz-adv-x="960" 
d="M381 -262q46 -19 84 -19q43 0 74 15q41 23 41 61q0 36 -33 53q-18 9 -51 9h-76l42 133q-181 15 -276 135q-54 70 -69 153.5t-15 231.5q0 111 16 190t62 140q52 71 140.5 111t199.5 40q159 0 254 -82q94 -81 94 -198q0 -59 -25.5 -109.5t-64.5 -81.5q-34 -27 -67.5 -42.5
t-77 -22t-74 -8t-92.5 -1.5h-221q2 -91 13 -145.5t42 -93.5q66 -84 211 -84q142 0 254 59l59 -123q-124 -62 -273 -70l-20 -65q29 0 42 -0.5t34 -6.5t39 -19q47 -35 47 -101q0 -76 -63 -131q-63 -53 -166 -53q-63 0 -117 22zM520 856q-147 0 -217 -86q-55 -68 -55 -197h219
q62 0 91 1.5t64 9.5t56 26q47 40 47 101t-49 100q-57 45 -156 45z" />
    <glyph glyph-name="uni022E" unicode="&#x22e;" horiz-adv-x="1196" 
d="M614 1704q42 0 69.5 -27t27.5 -69t-27.5 -69.5t-69.5 -27.5t-69 27.5t-27 69.5t27 69t69 27zM285 682q0 -130 2 -188.5t14 -124t37 -107.5q37 -62 105.5 -96.5t154.5 -34.5t154.5 34.5t105.5 96.5q25 42 37 107.5t14 124t2 188.5t-2 188.5t-14 124t-37 107.5
q-37 62 -105.5 96.5t-154.5 34.5t-154.5 -34.5t-105.5 -96.5q-25 -42 -37 -107.5t-14 -124t-2 -188.5zM133 682q0 149 2.5 215t19 142.5t52.5 134.5q58 95 160.5 148.5t230.5 53.5t230.5 -53.5t160.5 -148.5q51 -83 62.5 -180.5t11.5 -311.5q0 -149 -2.5 -215t-19 -142.5
t-52.5 -134.5q-58 -95 -160.5 -148.5t-230.5 -53.5t-230.5 53.5t-160.5 148.5q-51 83 -62.5 180.5t-11.5 311.5z" />
    <glyph glyph-name="uni022F" unicode="&#x22f;" 
d="M502 1317q42 0 69 -27t27 -69q0 -43 -27 -70t-69 -27t-69 27t-27 70q0 42 27 69t69 27zM481 856q-134 0 -200 -98q-21 -32 -31.5 -80.5t-12 -84t-1.5 -104.5q0 -68 1.5 -104t12 -84t31.5 -80q66 -98 200 -98q135 0 201 98q21 32 31.5 80t12 84t1.5 104q0 69 -1.5 104.5
t-12 84t-31.5 80.5q-66 98 -201 98zM481 991q108 0 194 -46t136 -128q28 -46 41.5 -106.5t15.5 -102t2 -119.5q0 -77 -2 -118.5t-15.5 -102t-41.5 -106.5q-50 -82 -136 -128t-194 -46t-193.5 46t-135.5 128q-28 46 -42 106t-16 102.5t-2 118.5t2 119t16 103t42 106
q50 82 135.5 128t193.5 46z" />
    <glyph glyph-name="uni0232" unicode="&#x232;" horiz-adv-x="1044" 
d="M312 1640h512v-114h-512v114zM522 766q19 0 33 14q21 21 82 146l201 438h166l-236 -498q-69 -137 -91 -168q-32 -43 -79 -65v-633h-152v633q-48 23 -75 60.5t-82 147.5q-9 16 -13 25l-235 498h166l201 -438q62 -127 81 -146q14 -14 33 -14z" />
    <glyph glyph-name="uni0233" unicode="&#x233;" horiz-adv-x="856" 
d="M190 1229h512v-115h-512v115zM31 979h149l193 -660q44 -149 57 -169q14 -21 53 -25l185 854h147l-235 -1063q-20 -89 -36.5 -134.5t-47.5 -80.5q-77 -88 -199 -88q-61 0 -137 27l43 127q52 -19 94 -19q53 0 88 35q21 21 34 61.5t36 147.5q-87 12 -133 71q-7 9 -12 17
t-10.5 20.5t-9 21.5t-10.5 30t-11 34.5t-14 46.5t-17 56z" />
    <glyph glyph-name="uni0237" unicode="&#x237;" horiz-adv-x="430" 
d="M143 979h144v-1022q0 -78 -2.5 -113t-17.5 -76.5t-48 -76.5q-75 -78 -201 -78q-77 0 -161 35l53 125q58 -25 108 -25q71 0 103 43q16 21 19 51t3 115v1022z" />
    <glyph glyph-name="uni0259" unicode="&#x259;" horiz-adv-x="960" 
d="M440 -12q-159 0 -254 82q-94 81 -94 198q0 59 25.5 109.5t64.5 81.5q34 27 67.5 42.5t78 22t73.5 7.5t93 1h221q-2 90 -13.5 145.5t-42.5 94.5q-66 84 -210 84q-142 0 -254 -59l-60 123q142 71 314 71q217 0 325 -137q54 -70 69 -153.5t15 -231.5q0 -111 -16 -190
t-62 -140q-52 -71 -140.5 -111t-199.5 -40zM440 123q147 0 217 86q56 69 56 197h-219q-62 0 -91 -1.5t-64 -9.5t-56 -26q-47 -40 -47 -101t49 -100q57 -45 155 -45z" />
    <glyph glyph-name="uni02BC" unicode="&#x2bc;" horiz-adv-x="413" 
d="M102 1272q0 47 29.5 75.5t75.5 28.5t75 -28.5t29 -75.5q0 -26 -16 -76l-94 -262h-92l59 240q-29 9 -47.5 36t-18.5 62z" />
    <glyph glyph-name="circumflex" unicode="&#x2c6;" horiz-adv-x="753" 
d="M297 1364h160l194 -246h-135l-139 156l-139 -156h-136z" />
    <glyph glyph-name="caron" unicode="&#x2c7;" horiz-adv-x="753" 
d="M297 1118l-195 246h136l139 -156l139 156h135l-194 -246h-160z" />
    <glyph glyph-name="uni02C9" unicode="&#x2c9;" horiz-adv-x="716" 
d="M102 1253h512v-114h-512v114z" />
    <glyph glyph-name="uni02CA" unicode="&#x2ca;" horiz-adv-x="518" 
d="M416 1364l-178 -246h-136l154 246h160z" />
    <glyph glyph-name="uni02CB" unicode="&#x2cb;" horiz-adv-x="518" 
d="M102 1364h160l154 -246h-135z" />
    <glyph glyph-name="breve" unicode="&#x2d8;" horiz-adv-x="712" 
d="M102 1364h115q0 -152 139 -152q140 0 140 152h114q0 -120 -66.5 -189t-187.5 -69t-187.5 69t-66.5 189z" />
    <glyph glyph-name="dotaccent" unicode="&#x2d9;" horiz-adv-x="397" 
d="M199 1319q42 0 69 -27t27 -69q0 -43 -27.5 -70t-68.5 -27q-42 0 -69.5 27.5t-27.5 69.5t27.5 69t69.5 27z" />
    <glyph glyph-name="ring" unicode="&#x2da;" horiz-adv-x="573" 
d="M287 1419q80 0 129 -48.5t49 -129.5q0 -79 -49.5 -128.5t-128.5 -49.5q-78 0 -128 49.5t-50 128.5q0 81 49.5 129.5t128.5 48.5zM287 1337q-41 0 -65.5 -27t-24.5 -69t24.5 -68t65.5 -26t66.5 26.5t25.5 67.5q0 42 -25.5 69t-66.5 27z" />
    <glyph glyph-name="ogonek" unicode="&#x2db;" horiz-adv-x="544" 
d="M102 -197q0 49 25 90.5t68 69.5t85 46.5t91 31.5l61 -41q-55 -15 -99 -36t-80 -63.5t-36 -97.5q0 -32 21 -53.5t53 -21.5q35 0 80 28l61 -98q-76 -45 -141 -45q-79 0 -134 55t-55 135z" />
    <glyph glyph-name="tilde" unicode="&#x2dc;" horiz-adv-x="811" 
d="M528 1126q-61 0 -149 45q-6 3 -22 10.5t-24.5 11.5t-22.5 7.5t-27 3.5q-28 0 -47 -18t-19 -47h-115q0 73 52.5 122.5t128.5 49.5q61 0 149 -45q6 -3 22 -10.5t24.5 -11.5t22.5 -7.5t27 -3.5q28 0 47 18t19 47h115q0 -73 -52.5 -122.5t-128.5 -49.5z" />
    <glyph glyph-name="hungarumlaut" unicode="&#x2dd;" horiz-adv-x="792" 
d="M399 1364l-170 -246h-127l154 246h143zM690 1364l-178 -246h-127l162 246h143z" />
    <glyph glyph-name="gravecomb" unicode="&#x300;" horiz-adv-x="518" 
d="M102 1364h160l154 -246h-135z" />
    <glyph glyph-name="acutecomb" unicode="&#x301;" horiz-adv-x="518" 
d="M416 1364l-178 -246h-136l154 246h160z" />
    <glyph glyph-name="uni030F" unicode="&#x30f;" horiz-adv-x="784" 
d="M381 1364h147l154 -246h-131zM102 1364h148l162 -246h-131z" />
    <glyph glyph-name="uni0311" unicode="&#x311;" horiz-adv-x="712" 
d="M610 1118h-114q0 152 -140 152q-139 0 -139 -152h-115q0 120 66.5 189t187.5 69t187.5 -69t66.5 -189z" />
    <glyph glyph-name="uni0312" unicode="&#x312;" horiz-adv-x="397" 
d="M102 1225q0 23 23 80l74 165h92l-53 -159q57 -21 57 -86q0 -41 -28 -68t-68 -27t-68.5 27t-28.5 68z" />
    <glyph glyph-name="uni0315" unicode="&#x315;" horiz-adv-x="413" 
d="M102 1272q0 47 29.5 75.5t75.5 28.5t75 -28.5t29 -75.5q0 -26 -16 -76l-94 -264h-92l59 242q-29 9 -47.5 36t-18.5 62z" />
    <glyph glyph-name="dotbelowcomb" unicode="&#x323;" horiz-adv-x="397" 
d="M199 -150q42 0 69 -27t27 -69t-27 -69t-69 -27t-69.5 27t-27.5 69t27.5 69t69.5 27z" />
    <glyph glyph-name="uni0326" unicode="&#x326;" horiz-adv-x="397" 
d="M295 -223q0 -23 -23 -80l-73 -166h-93l54 160q-26 9 -42 32t-16 54q0 41 28.5 67.5t68.5 26.5t68 -26.5t28 -67.5z" />
    <glyph glyph-name="uni03A9" unicode="&#x3a9;" horiz-adv-x="1228" 
d="M614 1378q398 0 467 -319q15 -64 15 -162v-264q0 -149 -42 -260t-145 -230h187v-143h-379v102q134 154 180.5 273t46.5 258v264q0 103 -20 164q-30 89 -104.5 131.5t-205.5 42.5t-205 -42.5t-104 -131.5q-20 -64 -20 -164v-264q0 -139 46.5 -258t180.5 -273v-102h-379
v143h186q-103 119 -144.5 229.5t-41.5 260.5v264q0 105 14 164q72 317 467 317z" />
    <glyph glyph-name="beta" unicode="&#x3b2;" horiz-adv-x="1085" 
d="M553 135q121 0 188.5 70t67.5 182q0 102 -76.5 176t-200.5 74h-133v131h133q115 0 176.5 66.5t61.5 164.5q0 103 -63 167.5t-175 64.5q-121 0 -188.5 -73t-67.5 -187v-836h277zM276 0v-379h-143v1350q0 172 106.5 283.5t292.5 111.5q180 0 280.5 -103t100.5 -266
q0 -93 -43.5 -171t-113.5 -121q90 -32 143 -120.5t53 -197.5q0 -170 -106 -278.5t-293 -108.5h-277z" />
    <glyph glyph-name="uni03BC" unicode="&#x3bc;" horiz-adv-x="993" 
d="M133 979h143v-490q0 -77 2 -116.5t13 -86.5t33 -79q30 -43 78 -63.5t100 -20.5t100 20.5t78 63.5q22 32 33 79.5t12.5 85.5t1.5 117v490h143v-490q0 -73 -1 -107.5t-7.5 -88t-22 -93t-42.5 -75.5q-46 -64 -121 -100.5t-164 -36.5q-135 0 -236 104v-467h-143v1354z" />
    <glyph glyph-name="pi" unicode="&#x3c0;" horiz-adv-x="1064" 
d="M92 977h881v-135h-123v-842h-143v842h-349v-842h-143v842h-123v135z" />
    <glyph glyph-name="uni1E0C" unicode="&#x1e0c;" horiz-adv-x="1167" 
d="M567 -150q42 0 69.5 -27t27.5 -69t-27.5 -69t-69.5 -27t-69 27t-27 69t27 69t69 27zM434 1364q56 0 89 -1t95.5 -8.5t106.5 -21t97 -42t93 -68.5q34 -34 58.5 -72.5t39.5 -85t24 -85t12.5 -98t4.5 -96t1 -104.5t-1 -104.5t-4.5 -96t-12.5 -98t-24 -85t-39.5 -85
t-58.5 -72.5q-40 -40 -93 -68.5t-97 -42t-106.5 -21t-95.5 -8.5t-89 -1q-36 0 -60 2t-65.5 15.5t-72.5 39.5q-29 26 -47 55t-25 67t-8.5 63.5t-1.5 74.5v730q0 49 1.5 74.5t8.5 63.5t25 67t47 55q31 26 72.5 39.5t65.5 15.5t60 2zM434 1221q-68 0 -94 -19q-24 -19 -29.5 -50
t-5.5 -105v-730q0 -74 5.5 -105t29.5 -50q26 -19 94 -19q59 0 96 2t93.5 10t102 29.5t79.5 55.5q35 35 56 78.5t29.5 109t10.5 112.5t2 142t-2 142t-10.5 112.5t-29.5 109t-56 78.5q-34 34 -79.5 55.5t-102 29.5t-93.5 10t-96 2z" />
    <glyph glyph-name="uni1E0D" unicode="&#x1e0d;" 
d="M428 -150q42 0 69 -27t27 -69t-27 -69t-69 -27t-69 27t-27 69t27 69t69 27zM461 991q75 0 140 -33t106 -92v498h143v-889q0 -74 -1 -109.5t-7.5 -85.5t-21.5 -86t-40 -71q-44 -62 -119 -98.5t-169 -36.5q-173 0 -285 112q-41 42 -66 89t-35 103.5t-12 92.5t-2 100
q0 69 1.5 106t9.5 93.5t28 101t53 84.5q46 56 117.5 88.5t159.5 32.5zM707 449q0 95 -2.5 142.5t-16.5 103t-43 89.5q-62 72 -174 72t-174 -72q-22 -26 -35 -58.5t-18.5 -77.5t-6.5 -75.5t-1 -87.5q0 -71 2 -107.5t18.5 -90.5t50.5 -90q68 -74 185 -74q106 0 165 70
q23 28 34.5 71.5t13.5 79.5t2 105z" />
    <glyph glyph-name="uni1E24" unicode="&#x1e24;" horiz-adv-x="1208" 
d="M604 -150q42 0 69 -27t27 -69t-27 -69t-69 -27t-69 27t-27 69t27 69t69 27zM154 1364h151v-590h598v590h152v-1364h-152v631h-598v-631h-151v1364z" />
    <glyph glyph-name="uni1E25" unicode="&#x1e25;" 
d="M496 -150q42 0 69 -27t27 -69t-27 -69t-69 -27t-69.5 27t-27.5 69t27.5 69t69.5 27zM133 1364h143v-487q36 52 95.5 83t130.5 31q84 0 148.5 -30t105.5 -74q34 -36 54 -76t28.5 -92.5t10 -88.5t1.5 -106v-524h-143v524q0 79 -2.5 118t-16 83t-41.5 72q-59 59 -155 59
q-97 0 -156 -59q-40 -40 -50 -98.5t-10 -174.5v-524h-143v1364z" />
    <glyph glyph-name="uni1E36" unicode="&#x1e36;" horiz-adv-x="983" 
d="M543 -150q42 0 69 -27t27 -69t-27 -69t-69 -27t-69.5 27t-27.5 69t27.5 69t69.5 27zM154 1364h151v-1047q0 -74 5.5 -105t29.5 -50q17 -13 44.5 -16t90.5 -3h395v-143h-395q-59 0 -90 2t-74 15t-75 40q-29 26 -47 55t-25 67t-8.5 63.5t-1.5 74.5v1047z" />
    <glyph glyph-name="uni1E44" unicode="&#x1e44;" horiz-adv-x="1134" 
d="M557 1708q42 0 69 -27t27 -69t-27 -69t-69 -27t-69 27t-27 69t27 69t69 27zM567 1376q96 0 179.5 -34t138.5 -97q38 -44 61 -92.5t32 -114t11 -110.5t2 -135v-793h-151v793q0 80 -1 118t-7.5 90.5t-21.5 87t-40 62.5q-73 82 -203 82q-129 0 -202 -82q-25 -28 -40 -62.5
t-21.5 -87t-7.5 -90.5t-1 -118v-793h-152v793q0 88 2 134.5t11.5 111.5t32.5 113.5t61 92.5q55 63 138 97t179 34z" />
    <glyph glyph-name="uni1E45" unicode="&#x1e45;" horiz-adv-x="942" 
d="M485 1319q42 0 69.5 -27t27.5 -69t-27.5 -69.5t-69.5 -27.5q-41 0 -68.5 27t-27.5 70q0 42 27 69t69 27zM471 991q162 0 262 -104q34 -36 55 -76t29 -92.5t10 -88.5t2 -106v-524h-143v524q0 80 -2 118t-15.5 82.5t-41.5 72.5q-59 59 -156 59t-156 -59
q-28 -28 -41.5 -72.5t-15.5 -82.5t-2 -118v-524h-143v524q0 70 2 106t10 88.5t29 92.5t55 76q100 104 262 104z" />
    <glyph glyph-name="uni1E5A" unicode="&#x1e5a;" horiz-adv-x="1126" 
d="M567 -150q42 0 69.5 -27t27.5 -69t-27.5 -69t-69.5 -27t-69 27t-27 69t27 69t69 27zM465 1221q-56 0 -82 -3t-43 -16q-24 -19 -29.5 -50t-5.5 -105v-379h141q75 0 108 1t80.5 7.5t78.5 21.5t59 41q80 74 80 205t-80 205q-28 26 -59.5 41.5t-76 21.5t-76 7.5t-95.5 1.5z
M465 1364q57 0 87.5 -1t83 -6.5t88 -17t78 -33.5t77.5 -55q125 -118 125 -307q0 -129 -61.5 -228t-160.5 -145l242 -571h-164l-221 530q-45 -6 -193 -6h-141v-524h-151v1047q0 49 1.5 74.5t8.5 63.5t25 67t47 55q32 27 74.5 40t72 15t82.5 2z" />
    <glyph glyph-name="uni1E5B" unicode="&#x1e5b;" horiz-adv-x="692" 
d="M184 -150q42 0 69.5 -27t27.5 -69t-27.5 -69t-69.5 -27t-69 27t-27 69t27 69t69 27zM487 991q76 0 140 -22l-43 -129q-46 16 -97 16q-56 0 -104.5 -19.5t-77.5 -54.5q-23 -27 -34.5 -71t-13 -82t-1.5 -119v-510h-143v510q0 64 0.5 93.5t4.5 74.5t12.5 72t24.5 58.5
t40 59.5q55 65 133.5 94t158.5 29z" />
    <glyph glyph-name="uni1E62" unicode="&#x1e62;" horiz-adv-x="1044" 
d="M512 -150q42 0 69 -27t27 -69t-27 -69t-69 -27t-69 27t-27 69t27 69t69 27zM506 1376q107 0 206.5 -32.5t174.5 -90.5l-90 -114q-54 43 -130.5 68.5t-160.5 25.5q-127 0 -190.5 -60t-63.5 -143q0 -96 82 -162q52 -44 196 -86q67 -20 97.5 -30t85 -37.5t94.5 -61.5
q58 -49 96.5 -124.5t38.5 -159.5q0 -72 -27.5 -138.5t-79.5 -121.5t-137.5 -88t-191.5 -33q-116 0 -224.5 37.5t-193.5 109.5l96 111q130 -115 322 -115q74 0 130.5 21t89 56.5t49 76t16.5 84.5q0 48 -24.5 97.5t-66.5 84.5q-20 17 -43 30.5t-62.5 27.5t-56 19.5t-71.5 22.5
q-56 17 -81 25.5t-72.5 33t-86.5 56.5q-55 45 -91 115t-36 145q0 151 110 250.5t296 99.5z" />
    <glyph glyph-name="uni1E63" unicode="&#x1e63;" horiz-adv-x="835" 
d="M430 -150q42 0 69 -27t27 -69t-27 -69t-69 -27t-69 27t-27 69t27 69t69 27zM707 924l-54 -125q-120 57 -245 57q-72 0 -123 -29q-60 -34 -60 -102q0 -60 51 -100q28 -23 61.5 -34.5t96.5 -25.5q133 -29 199 -76q53 -38 87 -95t34 -128q0 -66 -30.5 -121.5t-80.5 -91.5
q-91 -65 -235 -65q-179 0 -330 71l57 123q127 -59 273 -59q97 0 149 39q53 39 53 104q0 68 -57 111q-47 35 -162 59q-134 28 -201 80q-49 37 -78.5 91.5t-29.5 117.5q0 66 31.5 119.5t79.5 87.5q85 59 215 59q156 0 299 -67z" />
    <glyph glyph-name="uni1E6C" unicode="&#x1e6c;" horiz-adv-x="1085" 
d="M573 -150q42 0 69.5 -27t27.5 -69t-27.5 -69t-69.5 -27t-69 27t-27 69t27 69t69 27zM82 1364h922v-143h-386v-1221h-151v1221h-385v143z" />
    <glyph glyph-name="uni1E6D" unicode="&#x1e6d;" horiz-adv-x="643" 
d="M360 -150q42 0 69.5 -27t27.5 -69t-27.5 -69t-69.5 -27t-69 27t-27 69t27 69t69 27zM266 348q0 -92 4.5 -125t24.5 -59q33 -41 96 -41q60 0 133 39l62 -121q-101 -53 -195 -53q-66 0 -121.5 25t-89.5 69q-27 34 -40 78.5t-15 79t-2 108.5v862h143v-231h246v-127h-246
v-504z" />
    <glyph glyph-name="Wgrave" unicode="&#x1e80;" horiz-adv-x="1650" 
d="M647 1753h160l154 -246h-136zM143 1364h152v-852q0 -96 2 -139t15 -90.5t40 -81.5q58 -70 170 -70t170 70q39 48 48.5 111t9.5 200v852h151v-852q0 -96 2 -139t15 -90.5t40 -81.5q58 -70 170 -70t170 70q39 48 48.5 111t9.5 200v852h151v-852q0 -81 -2 -122.5
t-10.5 -101.5t-30 -104.5t-57.5 -83.5q-106 -112 -279 -112q-209 0 -303 163q-96 -163 -303 -163q-172 0 -278 112q-36 39 -57.5 83.5t-30.5 104t-11 102t-2 122.5v852z" />
    <glyph glyph-name="wgrave" unicode="&#x1e81;" horiz-adv-x="1433" 
d="M549 1364h160l153 -246h-135zM451 -12q-145 0 -236 88q-30 28 -50 63.5t-30 66t-15.5 79.5t-6 79t-0.5 91v524h143v-524q0 -85 2 -125t16 -86.5t43 -73.5q50 -47 134 -47q83 0 133 47q29 27 43 73.5t16 86.5t2 125v524h143v-524q0 -84 2.5 -125t16.5 -87t43 -73
q50 -47 133 -47t133 47q41 39 51.5 100.5t10.5 184.5v524h143v-524q0 -61 -0.5 -91t-6 -79t-15.5 -79.5t-30 -66t-50 -63.5q-91 -88 -236 -88q-88 0 -156.5 37t-109.5 106q-41 -69 -109.5 -106t-156.5 -37z" />
    <glyph glyph-name="Wacute" unicode="&#x1e82;" horiz-adv-x="1650" 
d="M1085 1753l-178 -246h-135l154 246h159zM143 1364h152v-852q0 -96 2 -139t15 -90.5t40 -81.5q58 -70 170 -70t170 70q39 48 48.5 111t9.5 200v852h151v-852q0 -96 2 -139t15 -90.5t40 -81.5q58 -70 170 -70t170 70q39 48 48.5 111t9.5 200v852h151v-852q0 -81 -2 -122.5
t-10.5 -101.5t-30 -104.5t-57.5 -83.5q-106 -112 -279 -112q-209 0 -303 163q-96 -163 -303 -163q-172 0 -278 112q-36 39 -57.5 83.5t-30.5 104t-11 102t-2 122.5v852z" />
    <glyph glyph-name="wacute" unicode="&#x1e83;" horiz-adv-x="1433" 
d="M987 1364l-178 -246h-135l153 246h160zM451 -12q-145 0 -236 88q-30 28 -50 63.5t-30 66t-15.5 79.5t-6 79t-0.5 91v524h143v-524q0 -85 2 -125t16 -86.5t43 -73.5q50 -47 134 -47q83 0 133 47q29 27 43 73.5t16 86.5t2 125v524h143v-524q0 -84 2.5 -125t16.5 -87t43 -73
q50 -47 133 -47t133 47q41 39 51.5 100.5t10.5 184.5v524h143v-524q0 -61 -0.5 -91t-6 -79t-15.5 -79.5t-30 -66t-50 -63.5q-91 -88 -236 -88q-88 0 -156.5 37t-109.5 106q-41 -69 -109.5 -106t-156.5 -37z" />
    <glyph glyph-name="Wdieresis" unicode="&#x1e84;" horiz-adv-x="1650" 
d="M1051 1708q43 0 69.5 -26.5t26.5 -69.5t-26.5 -69.5t-69.5 -26.5t-70 26.5t-27 69.5t27 69.5t70 26.5zM682 1708q43 0 69.5 -26.5t26.5 -69.5t-26.5 -69.5t-69.5 -26.5t-69.5 26.5t-26.5 69.5t26.5 69.5t69.5 26.5zM143 1364h152v-852q0 -96 2 -139t15 -90.5t40 -81.5
q58 -70 170 -70t170 70q39 48 48.5 111t9.5 200v852h151v-852q0 -96 2 -139t15 -90.5t40 -81.5q58 -70 170 -70t170 70q39 48 48.5 111t9.5 200v852h151v-852q0 -81 -2 -122.5t-10.5 -101.5t-30 -104.5t-57.5 -83.5q-106 -112 -279 -112q-209 0 -303 163q-96 -163 -303 -163
q-172 0 -278 112q-36 39 -57.5 83.5t-30.5 104t-11 102t-2 122.5v852z" />
    <glyph glyph-name="wdieresis" unicode="&#x1e85;" horiz-adv-x="1433" 
d="M952 1319q43 0 70 -26.5t27 -69.5t-27 -70t-70 -27t-69.5 27t-26.5 70t26.5 69.5t69.5 26.5zM584 1319q43 0 69.5 -26.5t26.5 -69.5t-26.5 -70t-69.5 -27t-70 27t-27 70t27 69.5t70 26.5zM451 -12q-145 0 -236 88q-30 28 -50 63.5t-30 66t-15.5 79.5t-6 79t-0.5 91v524
h143v-524q0 -85 2 -125t16 -86.5t43 -73.5q50 -47 134 -47q83 0 133 47q29 27 43 73.5t16 86.5t2 125v524h143v-524q0 -84 2.5 -125t16.5 -87t43 -73q50 -47 133 -47t133 47q41 39 51.5 100.5t10.5 184.5v524h143v-524q0 -61 -0.5 -91t-6 -79t-15.5 -79.5t-30 -66t-50 -63.5
q-91 -88 -236 -88q-88 0 -156.5 37t-109.5 106q-41 -69 -109.5 -106t-156.5 -37z" />
    <glyph glyph-name="uni1E92" unicode="&#x1e92;" horiz-adv-x="1085" 
d="M553 -150q42 0 69 -27t27 -69t-27 -69t-69 -27t-69 27t-27 69t27 69t69 27zM143 1221v143h494q68 0 102 -2t78 -15t74 -40q67 -60 67 -148q0 -34 -7 -61t-29.5 -61.5t-41 -57.5t-65.5 -78l-446 -528q-88 -104 -100 -126q-11 -20 -11 -42q0 -30 23 -45q18 -11 45 -14
t104 -3h533v-143h-535q-67 0 -100.5 2t-78 14.5t-73.5 38.5q-70 63 -70 150q0 59 27 104.5t109 143.5l481 569q55 65 69.5 87.5t14.5 49.5q0 29 -25 47q-16 10 -46 12.5t-101 2.5h-492z" />
    <glyph glyph-name="uni1E93" unicode="&#x1e93;" horiz-adv-x="847" 
d="M436 -150q42 0 69 -27t27 -69t-27 -69t-69 -27t-69 27t-27 69t27 69t69 27zM117 844v135h393q36 0 57.5 -1.5t56 -13t62.5 -34.5q70 -55 70 -144q0 -48 -24.5 -91.5t-55 -73t-92.5 -80.5l-230 -191q-47 -39 -63.5 -53t-39.5 -37t-29.5 -37t-6.5 -30q0 -27 18 -41
q14 -11 43.5 -14t102.5 -3h373v-135h-373q-54 0 -81 1.5t-67 8t-67.5 23t-50.5 43.5q-41 50 -41 117q0 37 10.5 67t41.5 65t54.5 56.5t83.5 71.5l227 190q86 71 104 95q19 24 19 48q0 29 -24 45q-20 13 -78 13h-393z" />
    <glyph glyph-name="Eszett" unicode="&#x1e9e;" horiz-adv-x="1294" 
d="M664 1366h405v-121l-256 -471q153 -46 244 -121q60 -49 97.5 -123t37.5 -163q0 -80 -35.5 -153.5t-99.5 -127.5q-117 -98 -301 -98q-181 0 -324 94l78 123q109 -74 246 -74q122 0 196 59q42 33 65 81.5t23 95.5q0 111 -90 184q-34 28 -88.5 51.5t-91 34.5t-113.5 33v131
l230 422h-223q-55 0 -88 -2t-82 -11t-86 -32t-64 -60q-23 -32 -34.5 -74.5t-13 -70t-1.5 -76.5v-897h-152v897q0 45 1.5 72.5t9 73.5t26.5 88t49 81q35 44 82 75t86.5 46t96 23t87.5 9t83 1z" />
    <glyph glyph-name="uni1EB8" unicode="&#x1eb8;" horiz-adv-x="1044" 
d="M522 -150q42 0 69 -27t27 -69t-27 -69t-69 -27t-69 27t-27 69t27 69t69 27zM305 774l483 2v-143l-483 -2v-314q0 -74 5.5 -105t29.5 -50q17 -13 44.5 -16t90.5 -3h436v-143h-436q-59 0 -90 2t-74 15t-75 40q-29 26 -47 55t-25 67t-8.5 63.5t-1.5 74.5v730q0 49 1.5 74.5
t8.5 63.5t25 67t47 55q32 27 75 40t74 15t90 2h436v-143h-436q-63 0 -90.5 -3t-44.5 -16q-24 -19 -29.5 -50t-5.5 -105v-273z" />
    <glyph glyph-name="uni1EB9" unicode="&#x1eb9;" horiz-adv-x="929" 
d="M500 -150q42 0 69 -27t27 -69t-27 -69t-69 -27t-69.5 27t-27.5 69t27.5 69t69.5 27zM285 209q64 -86 204 -86q138 0 250 59l60 -123q-139 -71 -310 -71q-105 0 -187 36t-132 103q-37 50 -55 116t-20.5 112t-2.5 134q0 76 1.5 112t8 85.5t22 86t42.5 73.5q49 69 137 107
t197 38q150 0 245 -76q100 -84 103 -206q0 -64 -28.5 -116t-74.5 -85q-59 -42 -124.5 -52t-194.5 -10h-188q0 -174 47 -237zM705 709q-3 63 -54 104q-52 43 -151 43q-143 0 -211 -80q-51 -59 -51 -203h188q111 0 155 5t74 28q50 37 50 103z" />
    <glyph glyph-name="uni1EBC" unicode="&#x1ebc;" horiz-adv-x="1044" 
d="M645 1516q-61 0 -149 45q-4 2 -22 10.5t-25.5 11.5t-22 6.5t-27.5 3.5q-28 0 -46.5 -18t-18.5 -47h-115q0 73 52.5 122.5t127.5 49.5q62 0 150 -45q6 -3 22 -10.5t24.5 -11.5t22.5 -7.5t27 -3.5q28 0 47 18.5t19 47.5h114q0 -73 -52.5 -122.5t-127.5 -49.5zM305 774
l483 2v-143l-483 -2v-314q0 -74 5.5 -105t29.5 -50q17 -13 44.5 -16t90.5 -3h436v-143h-436q-59 0 -90 2t-74 15t-75 40q-29 26 -47 55t-25 67t-8.5 63.5t-1.5 74.5v730q0 49 1.5 74.5t8.5 63.5t25 67t47 55q32 27 75 40t74 15t90 2h436v-143h-436q-63 0 -90.5 -3t-44.5 -16
q-24 -19 -29.5 -50t-5.5 -105v-273z" />
    <glyph glyph-name="uni1EBD" unicode="&#x1ebd;" horiz-adv-x="929" 
d="M612 1126q-61 0 -149 45q-6 3 -22 10.5t-24.5 11.5t-22.5 7.5t-27 3.5q-28 0 -47 -18t-19 -47h-115q0 73 52.5 122.5t128.5 49.5q61 0 149 -45q6 -3 22 -10.5t24.5 -11.5t22.5 -7.5t27 -3.5q28 0 47 18t19 47h115q0 -73 -52.5 -122.5t-128.5 -49.5zM285 209
q64 -86 204 -86q138 0 250 59l60 -123q-139 -71 -310 -71q-105 0 -187 36t-132 103q-37 50 -55 116t-20.5 112t-2.5 134q0 76 1.5 112t8 85.5t22 86t42.5 73.5q49 69 137 107t197 38q150 0 245 -76q100 -84 103 -206q0 -64 -28.5 -116t-74.5 -85q-59 -42 -124.5 -52
t-194.5 -10h-188q0 -174 47 -237zM705 709q-3 63 -54 104q-52 43 -151 43q-143 0 -211 -80q-51 -59 -51 -203h188q111 0 155 5t74 28q50 37 50 103z" />
    <glyph glyph-name="uni1ECA" unicode="&#x1eca;" horiz-adv-x="458" 
d="M227 -150q42 0 69.5 -27t27.5 -69t-27.5 -69t-69.5 -27t-69 27t-27 69t27 69t69 27zM305 1364v-1364h-151v1364h151z" />
    <glyph glyph-name="uni1ECB" unicode="&#x1ecb;" horiz-adv-x="409" 
d="M211 -150q42 0 69 -27t27 -69t-27 -69t-69 -27t-69 27t-27 69t27 69t69 27zM205 1329q42 0 69 -27t27 -69t-27 -69t-69 -27t-69 27t-27 69t27 69t69 27zM133 0v979h143v-979h-143z" />
    <glyph glyph-name="uni1ECC" unicode="&#x1ecc;" horiz-adv-x="1196" 
d="M614 -150q42 0 69.5 -27t27.5 -69t-27.5 -69t-69.5 -27t-69 27t-27 69t27 69t69 27zM285 682q0 -130 2 -188.5t14 -124t37 -107.5q37 -62 105.5 -96.5t154.5 -34.5t154.5 34.5t105.5 96.5q25 42 37 107.5t14 124t2 188.5t-2 188.5t-14 124t-37 107.5q-37 62 -105.5 96.5
t-154.5 34.5t-154.5 -34.5t-105.5 -96.5q-25 -42 -37 -107.5t-14 -124t-2 -188.5zM133 682q0 149 2.5 215t19 142.5t52.5 134.5q58 95 160.5 148.5t230.5 53.5t230.5 -53.5t160.5 -148.5q51 -83 62.5 -180.5t11.5 -311.5q0 -149 -2.5 -215t-19 -142.5t-52.5 -134.5
q-58 -95 -160.5 -148.5t-230.5 -53.5t-230.5 53.5t-160.5 148.5q-51 83 -62.5 180.5t-11.5 311.5z" />
    <glyph glyph-name="uni1ECD" unicode="&#x1ecd;" 
d="M502 -150q42 0 69 -27t27 -69t-27 -69t-69 -27t-69 27t-27 69t27 69t69 27zM481 856q-134 0 -200 -98q-21 -32 -31.5 -80.5t-12 -84t-1.5 -104.5q0 -68 1.5 -104t12 -84t31.5 -80q66 -98 200 -98q135 0 201 98q21 32 31.5 80t12 84t1.5 104q0 69 -1.5 104.5t-12 84
t-31.5 80.5q-66 98 -201 98zM481 991q108 0 194 -46t136 -128q28 -46 41.5 -106.5t15.5 -102t2 -119.5q0 -77 -2 -118.5t-15.5 -102t-41.5 -106.5q-50 -82 -136 -128t-194 -46t-193.5 46t-135.5 128q-28 46 -42 106t-16 102.5t-2 118.5t2 119t16 103t42 106q50 82 135.5 128
t193.5 46z" />
    <glyph glyph-name="uni1EE4" unicode="&#x1ee4;" horiz-adv-x="1134" 
d="M580 -150q42 0 69 -27t27 -69t-27 -69t-69 -27t-69.5 27t-27.5 69t27.5 69t69.5 27zM143 1364h152v-793q0 -80 1 -118t7.5 -90.5t21.5 -87t40 -62.5q73 -82 202 -82q130 0 203 82q25 28 40 62.5t21.5 87t7.5 90.5t1 118v793h151v-793q0 -90 -2 -135t-11 -110.5t-32 -114
t-61 -92.5q-55 -63 -138.5 -97t-179.5 -34t-179 34t-138 97q-38 44 -61 92.5t-32.5 113.5t-11.5 111.5t-2 134.5v793z" />
    <glyph glyph-name="uni1EE5" unicode="&#x1ee5;" horiz-adv-x="942" 
d="M485 -150q42 0 69.5 -27t27.5 -69t-27.5 -69t-69.5 -27t-69 27t-27 69t27 69t69 27zM113 979h143v-524q0 -80 2 -118t15.5 -82.5t41.5 -72.5q59 -59 156 -59t156 59q28 28 41.5 72.5t15.5 82.5t2 118v524h143v-524q0 -70 -2 -106t-10 -88.5t-29 -92.5t-55 -76
q-100 -104 -262 -104t-262 104q-34 36 -55 76t-29 92.5t-10 88.5t-2 106v524z" />
    <glyph glyph-name="Ygrave" unicode="&#x1ef2;" horiz-adv-x="1044" 
d="M351 1753h160l153 -246h-135zM522 766q19 0 33 14q21 21 82 146l201 438h166l-236 -498q-69 -137 -91 -168q-32 -43 -79 -65v-633h-152v633q-48 23 -75 60.5t-82 147.5q-9 16 -13 25l-235 498h166l201 -438q62 -127 81 -146q14 -14 33 -14z" />
    <glyph glyph-name="ygrave" unicode="&#x1ef3;" horiz-adv-x="856" 
d="M236 1362h159l154 -246h-135zM31 979h149l193 -660q44 -149 57 -169q14 -21 53 -25l185 854h147l-235 -1063q-20 -89 -36.5 -134.5t-47.5 -80.5q-77 -88 -199 -88q-61 0 -137 27l43 127q52 -19 94 -19q53 0 88 35q21 21 34 61.5t36 147.5q-87 12 -133 71q-7 9 -12 17
t-10.5 20.5t-9 21.5t-10.5 30t-11 34.5t-14 46.5t-17 56z" />
    <glyph glyph-name="uni1EF8" unicode="&#x1ef8;" horiz-adv-x="1044" 
d="M693 1516q-62 0 -150 45q-5 2 -22 10.5t-25 11.5t-22 6.5t-27 3.5q-28 0 -46.5 -18t-18.5 -47h-115q0 73 52.5 122.5t127.5 49.5q62 0 150 -45q6 -3 22 -10.5t24.5 -11.5t22.5 -7.5t27 -3.5q28 0 46.5 18.5t18.5 47.5h115q0 -73 -52.5 -122.5t-127.5 -49.5zM522 766
q19 0 33 14q21 21 82 146l201 438h166l-236 -498q-69 -137 -91 -168q-32 -43 -79 -65v-633h-152v633q-48 23 -75 60.5t-82 147.5q-9 16 -13 25l-235 498h166l201 -438q62 -127 81 -146q14 -14 33 -14z" />
    <glyph glyph-name="uni1EF9" unicode="&#x1ef9;" horiz-adv-x="856" 
d="M578 1124q-62 0 -150 45q-6 3 -22 10.5t-24.5 11.5t-22.5 7.5t-27 3.5q-28 0 -47 -18t-19 -47h-114q0 73 52.5 122.5t127.5 49.5q61 0 149 -45q6 -3 22.5 -11t25 -11.5t22.5 -7t27 -3.5q28 0 46.5 18t18.5 47h115q0 -73 -52.5 -122.5t-127.5 -49.5zM31 979h149l193 -660
q44 -149 57 -169q14 -21 53 -25l185 854h147l-235 -1063q-20 -89 -36.5 -134.5t-47.5 -80.5q-77 -88 -199 -88q-61 0 -137 27l43 127q52 -19 94 -19q53 0 88 35q21 21 34 61.5t36 147.5q-87 12 -133 71q-7 9 -12 17t-10.5 20.5t-9 21.5t-10.5 30t-11 34.5t-14 46.5t-17 56z
" />
    <glyph glyph-name="uni2000" unicode="&#x2000;" horiz-adv-x="1024" 
 />
    <glyph glyph-name="uni2001" unicode="&#x2001;" horiz-adv-x="2048" 
 />
    <glyph glyph-name="uni2002" unicode="&#x2002;" horiz-adv-x="1024" 
 />
    <glyph glyph-name="uni2003" unicode="&#x2003;" horiz-adv-x="2048" 
 />
    <glyph glyph-name="uni2004" unicode="&#x2004;" horiz-adv-x="681" 
 />
    <glyph glyph-name="uni2005" unicode="&#x2005;" horiz-adv-x="512" 
 />
    <glyph glyph-name="uni2006" unicode="&#x2006;" horiz-adv-x="339" 
 />
    <glyph glyph-name="uni2007" unicode="&#x2007;" horiz-adv-x="1093" 
 />
    <glyph glyph-name="uni2008" unicode="&#x2008;" horiz-adv-x="413" 
 />
    <glyph glyph-name="uni2009" unicode="&#x2009;" horiz-adv-x="382" 
 />
    <glyph glyph-name="uni200A" unicode="&#x200a;" horiz-adv-x="129" 
 />
    <glyph glyph-name="uni200B" unicode="&#x200b;" horiz-adv-x="0" 
 />
    <glyph glyph-name="uni200C" unicode="&#x200c;" horiz-adv-x="0" 
 />
    <glyph glyph-name="uni200D" unicode="&#x200d;" horiz-adv-x="0" 
 />
    <glyph glyph-name="uni2010" unicode="&#x2010;" horiz-adv-x="757" 
d="M164 571h430v-118h-430v118z" />
    <glyph glyph-name="endash" unicode="&#x2013;" horiz-adv-x="1024" 
d="M164 453v118h696v-118h-696z" />
    <glyph glyph-name="emdash" unicode="&#x2014;" horiz-adv-x="2048" 
d="M164 453v118h1720v-118h-1720z" />
    <glyph glyph-name="uni2015" unicode="&#x2015;" horiz-adv-x="2048" 
d="M164 453v118h1720v-118h-1720z" />
    <glyph glyph-name="quoteleft" unicode="&#x2018;" horiz-adv-x="413" 
d="M311 1026q0 -47 -29 -75.5t-75 -28.5t-75.5 28.5t-29.5 75.5q0 23 17 76l94 264h92l-59 -242q29 -9 47 -36t18 -62z" />
    <glyph glyph-name="quoteright" unicode="&#x2019;" horiz-adv-x="413" 
d="M102 1274q0 47 29.5 75.5t75.5 28.5t75 -28.5t29 -75.5q0 -26 -16 -76l-94 -264h-92l59 242q-29 9 -47.5 36t-18.5 62z" />
    <glyph glyph-name="quotesinglbase" unicode="&#x201a;" horiz-adv-x="413" 
d="M102 92q0 47 29.5 76t75.5 29t75 -29t29 -76q0 -26 -16 -76l-94 -264h-92l59 242q-29 9 -47.5 36t-18.5 62z" />
    <glyph glyph-name="quotereversed" unicode="&#x201b;" horiz-adv-x="413" 
d="M311 1274q0 -35 -18 -62t-47 -36l59 -242h-92l-94 264q-17 53 -17 76q0 47 29.5 75.5t75.5 28.5t75 -28.5t29 -75.5z" />
    <glyph glyph-name="quotedblleft" unicode="&#x201c;" horiz-adv-x="741" 
d="M311 1026q0 -47 -29 -75.5t-75 -28.5t-75.5 28.5t-29.5 75.5q0 23 17 76l94 264h92l-59 -242q29 -9 47 -36t18 -62zM639 1026q0 -47 -29 -75.5t-75 -28.5t-75.5 28.5t-29.5 75.5q0 26 16 76l95 264h92l-60 -242q29 -9 47.5 -36t18.5 -62z" />
    <glyph glyph-name="quotedblright" unicode="&#x201d;" horiz-adv-x="741" 
d="M430 1274q0 47 29.5 75.5t75.5 28.5t75 -28.5t29 -75.5q0 -26 -16 -76l-95 -264h-92l60 242q-29 9 -47.5 36t-18.5 62zM102 1274q0 47 29.5 75.5t75.5 28.5t75 -28.5t29 -75.5q0 -26 -16 -76l-94 -264h-92l59 242q-29 9 -47.5 36t-18.5 62z" />
    <glyph glyph-name="quotedblbase" unicode="&#x201e;" horiz-adv-x="741" 
d="M430 92q0 47 29.5 76t75.5 29t75 -29t29 -76q0 -26 -16 -76l-95 -264h-92l60 242q-29 9 -47.5 36t-18.5 62zM102 92q0 47 29.5 76t75.5 29t75 -29t29 -76q0 -26 -16 -76l-94 -264h-92l59 242q-29 9 -47.5 36t-18.5 62z" />
    <glyph glyph-name="dagger" unicode="&#x2020;" horiz-adv-x="806" 
d="M332 1366h143v-389h219v-123h-219v-1233h-143v1233h-219v123h219v389z" />
    <glyph glyph-name="daggerdbl" unicode="&#x2021;" horiz-adv-x="806" 
d="M332 1366h143v-389h219v-123h-219v-731h219v-123h-219v-379h-143v379h-219v123h219v731h-219v123h219v389z" />
    <glyph glyph-name="bullet" unicode="&#x2022;" horiz-adv-x="665" 
d="M334 682q74 0 121 -47.5t47 -122.5t-47 -122.5t-121 -47.5q-75 0 -122.5 47.5t-47.5 122.5t47.5 122.5t122.5 47.5z" />
    <glyph glyph-name="ellipsis" unicode="&#x2026;" horiz-adv-x="1110" 
d="M903 197q46 0 75.5 -29.5t29.5 -75.5t-29.5 -75t-75.5 -29t-75 29t-29 75t29 75.5t75 29.5zM555 197q46 0 75 -29.5t29 -75.5t-29 -75t-75 -29t-75 29t-29 75t29 75.5t75 29.5zM207 197q46 0 75 -29.5t29 -75.5t-29 -75t-75 -29t-75.5 29t-29.5 75t29.5 75.5t75.5 29.5z
" />
    <glyph glyph-name="perthousand" unicode="&#x2030;" horiz-adv-x="2031" 
d="M1663 604q118 0 188 -84q26 -32 40 -71.5t16 -63.5t2 -59v-60q0 -35 -2 -59t-16 -63.5t-40 -71.5q-70 -84 -188 -84t-188 84q-26 32 -40 71.5t-16 63.5t-2 59v60q0 35 2 59t16 63.5t40 71.5q70 84 188 84zM1663 485q-63 0 -98 -47q-25 -35 -25 -112v-60q0 -77 25 -112
q36 -48 98 -48t98 48q25 35 25 112v60q0 77 -25 112q-35 47 -98 47zM369 1378q118 0 188 -84q26 -32 39.5 -72t15.5 -63t2 -59v-60q0 -36 -2 -59t-15.5 -63t-39.5 -72q-70 -84 -188 -84q-58 0 -107.5 23t-81.5 61q-26 32 -39.5 72t-15.5 63t-2 59v60q0 36 2 59t15.5 63
t39.5 72q32 38 81.5 61t107.5 23zM369 1260q-63 0 -99 -48q-24 -34 -24 -112v-60q0 -78 24 -112q35 -47 99 -47q63 0 98 47q25 35 25 112v60q0 77 -25 112q-36 48 -98 48zM995 1366h152l-737 -1366h-152zM1049 604q118 0 188 -84q26 -32 39.5 -72t15.5 -63t2 -59v-60
q0 -36 -2 -59t-15.5 -63t-39.5 -72q-70 -84 -188 -84q-58 0 -107.5 23t-81.5 61q-26 32 -39.5 72t-15.5 63t-2 59v60q0 36 2 59t15.5 63t39.5 72q32 38 81.5 61t107.5 23zM1049 485q-64 0 -99 -47q-24 -34 -24 -112v-60q0 -78 24 -112q36 -48 99 -48q62 0 98 48
q24 34 24 112v60q0 78 -24 112q-35 47 -98 47z" />
    <glyph glyph-name="uni2031" unicode="&#x2031;" horiz-adv-x="2646" 
d="M2277 604q58 0 107.5 -23t81.5 -61q26 -32 39.5 -72t15.5 -63t2 -59v-60q0 -36 -2 -59t-15.5 -63t-39.5 -72q-32 -38 -81.5 -61t-107.5 -23q-118 0 -188 84q-26 32 -39.5 72t-15.5 63t-2 59v60q0 36 2 59t15.5 63t39.5 72q70 84 188 84zM2277 485q-63 0 -98 -47
q-25 -35 -25 -112v-60q0 -77 25 -112q36 -48 98 -48q63 0 99 48q24 34 24 112v60q0 78 -24 112q-35 47 -99 47zM1663 604q118 0 188 -84q26 -32 40 -71.5t16 -63.5t2 -59v-60q0 -35 -2 -59t-16 -63.5t-40 -71.5q-70 -84 -188 -84t-188 84q-26 32 -40 71.5t-16 63.5t-2 59v60
q0 35 2 59t16 63.5t40 71.5q70 84 188 84zM1663 485q-63 0 -98 -47q-25 -35 -25 -112v-60q0 -77 25 -112q36 -48 98 -48t98 48q25 35 25 112v60q0 77 -25 112q-35 47 -98 47zM369 1378q118 0 188 -84q26 -32 39.5 -72t15.5 -63t2 -59v-60q0 -36 -2 -59t-15.5 -63t-39.5 -72
q-70 -84 -188 -84q-58 0 -107.5 23t-81.5 61q-26 32 -39.5 72t-15.5 63t-2 59v60q0 36 2 59t15.5 63t39.5 72q32 38 81.5 61t107.5 23zM369 1260q-63 0 -99 -48q-24 -34 -24 -112v-60q0 -78 24 -112q35 -47 99 -47q63 0 98 47q25 35 25 112v60q0 77 -25 112q-36 48 -98 48z
M995 1366h152l-737 -1366h-152zM1049 604q118 0 188 -84q26 -32 39.5 -72t15.5 -63t2 -59v-60q0 -36 -2 -59t-15.5 -63t-39.5 -72q-70 -84 -188 -84q-58 0 -107.5 23t-81.5 61q-26 32 -39.5 72t-15.5 63t-2 59v60q0 36 2 59t15.5 63t39.5 72q32 38 81.5 61t107.5 23z
M1049 485q-64 0 -99 -47q-24 -34 -24 -112v-60q0 -78 24 -112q36 -48 99 -48q62 0 98 48q24 34 24 112v60q0 78 -24 112q-35 47 -98 47z" />
    <glyph glyph-name="minute" unicode="&#x2032;" horiz-adv-x="622" 
d="M356 1366h164l-276 -432h-142z" />
    <glyph glyph-name="second" unicode="&#x2033;" horiz-adv-x="921" 
d="M664 1366h155l-276 -432h-133zM356 1366h156l-276 -432h-134z" />
    <glyph glyph-name="uni2034" unicode="&#x2034;" horiz-adv-x="1228" 
d="M971 1366h155l-276 -432h-133zM664 1366h155l-276 -432h-133zM356 1366h156l-276 -432h-134z" />
    <glyph glyph-name="guilsinglleft" unicode="&#x2039;" horiz-adv-x="622" 
d="M422 920l98 -74l-264 -334l264 -334l-98 -74l-320 408z" />
    <glyph glyph-name="guilsinglright" unicode="&#x203a;" horiz-adv-x="622" 
d="M201 920l319 -408l-319 -408l-99 74l265 334l-265 334z" />
    <glyph glyph-name="fraction" unicode="&#x2044;" horiz-adv-x="868" 
d="M737 1366h131l-737 -1366h-131z" />
    <glyph glyph-name="Euro" unicode="&#x20ac;" horiz-adv-x="1193" 
d="M676 1378q213 0 368 -125l-96 -108q-114 90 -272 90q-156 0 -238 -88q-26 -28 -41.5 -58.5t-21.5 -67.5t-7 -59t-1 -65v-29h534l-41 -114h-493v-142h452l-41 -114h-411v-29q0 -43 1 -65t7 -59t21.5 -67.5t41.5 -58.5q82 -88 238 -88q86 0 162.5 27.5t128.5 74.5l100 -104
q-160 -141 -391 -141q-215 0 -344 129q-41 42 -67 89t-35.5 99t-12 83t-2.5 81v29h-133l41 114h92v142h-133l41 114h92v29q0 50 2.5 81t12 83t35.5 99t67 89q129 129 344 129z" />
    <glyph glyph-name="uni20B9" unicode="&#x20b9;" horiz-adv-x="1126" 
d="M381 528l434 -528h-178l-428 528h-49v138h223q107 0 182 67t82 189h-524l61 137h447q-28 82 -95 126t-153 44h-260l61 137h820l-62 -137h-258q71 -71 94 -170h226l-62 -137h-149q-9 -191 -126 -292.5t-286 -101.5z" />
    <glyph glyph-name="uni20BA" unicode="&#x20ba;" horiz-adv-x="1083" 
d="M940 502q0 -52 -2.5 -86t-12.5 -86.5t-36.5 -100t-67.5 -90.5q-63 -66 -156.5 -102.5t-205.5 -36.5h-152v547l-184 -92v125l184 92v162l-184 -93v125l184 92v408h152v-332l278 140v-125l-278 -140v-161l278 139v-125l-278 -139v-480q160 0 252 95q50 53 63.5 112
t13.5 152v108h152v-108z" />
    <glyph glyph-name="trademark" unicode="&#x2122;" horiz-adv-x="1368" 
d="M123 1366h461v-92h-183v-590h-96v590h-182v92zM666 1366h86l202 -397l205 397h86v-682h-94v492l-162 -324h-67l-162 322v-490h-94v682z" />
    <glyph glyph-name="Omega" unicode="&#x2126;" horiz-adv-x="1228" 
d="M614 1378q398 0 467 -319q15 -64 15 -162v-264q0 -149 -42 -260t-145 -230h187v-143h-379v102q134 154 180.5 273t46.5 258v264q0 103 -20 164q-30 89 -104.5 131.5t-205.5 42.5t-205 -42.5t-104 -131.5q-20 -64 -20 -164v-264q0 -139 46.5 -258t180.5 -273v-102h-379
v143h186q-103 119 -144.5 229.5t-41.5 260.5v264q0 105 14 164q72 317 467 317z" />
    <glyph glyph-name="arrowleft" unicode="&#x2190;" horiz-adv-x="1146" 
d="M983 571v-118h-633l154 -150l-90 -82l-250 250v82l250 250l90 -82l-154 -150h633z" />
    <glyph glyph-name="arrowup" unicode="&#x2191;" horiz-adv-x="847" 
d="M379 922h90l250 -250l-90 -82l-144 147v-635h-123v635l-143 -147l-90 82z" />
    <glyph glyph-name="arrowright" unicode="&#x2192;" horiz-adv-x="1146" 
d="M164 571h633l-154 150l90 82l250 -250v-82l-250 -250l-90 82l154 150h-633v118z" />
    <glyph glyph-name="arrowdown" unicode="&#x2193;" horiz-adv-x="847" 
d="M362 922h123v-635l144 147l90 -82l-250 -250h-90l-250 250l90 82l143 -147v635z" />
    <glyph glyph-name="arrowboth" unicode="&#x2194;" horiz-adv-x="1310" 
d="M350 453l154 -150l-90 -82l-250 250v82l250 250l90 -82l-154 -150h611l-154 150l90 82l250 -250v-82l-250 -250l-90 82l154 150h-611z" />
    <glyph glyph-name="arrowupdn" unicode="&#x2195;" horiz-adv-x="847" 
d="M379 1004h90l250 -250l-90 -82l-144 147v-614l144 147l90 -82l-250 -250h-90l-250 250l90 82l143 -147v614l-143 -147l-90 82z" />
    <glyph glyph-name="uni2196" unicode="&#x2196;" horiz-adv-x="960" 
d="M817 272l-88 -84l-444 445l2 -209h-123v354l61 60h355v-119l-211 2z" />
    <glyph glyph-name="uni2197" unicode="&#x2197;" horiz-adv-x="960" 
d="M143 272l449 449l-211 -2v119h354l62 -60v-354h-123l2 209l-445 -445z" />
    <glyph glyph-name="uni2198" unicode="&#x2198;" horiz-adv-x="960" 
d="M143 754l88 84l445 -445l-2 209h123v-354l-62 -60h-354v119l211 -2z" />
    <glyph glyph-name="uni2199" unicode="&#x2199;" horiz-adv-x="960" 
d="M817 754l-448 -449l211 2v-119h-355l-61 60v354h123l-2 -209l444 445z" />
    <glyph glyph-name="partialdiff" unicode="&#x2202;" horiz-adv-x="993" 
d="M471 1370q196 0 305 -119q33 -36 54 -76t28.5 -84t9.5 -70.5t2 -68.5v-553q0 -40 -2 -66t-10 -70.5t-29 -85t-55 -75.5q-51 -54 -124.5 -83t-157.5 -29t-158 29t-125 83q-34 35 -55 75.5t-29 85t-10 70.5t-2 66v179q0 57 2.5 92t22.5 94t59 104q45 54 116 88.5t158 34.5
q78 0 146 -27.5t110 -74.5v63q0 43 -1.5 68t-13 64t-34.5 67q-67 84 -207 84q-123 0 -238 -59l-71 116q146 78 309 78zM727 399v183q0 42 -1.5 66t-13 62t-34.5 66q-64 80 -186 80q-123 0 -187 -80q-23 -28 -34.5 -66t-13 -62t-1.5 -66v-183q0 -42 1.5 -66t13 -62t34.5 -66
q64 -80 187 -80q122 0 186 80q23 28 34.5 66t13 62t1.5 66z" />
    <glyph glyph-name="Delta" unicode="&#x2206;" horiz-adv-x="1329" 
d="M72 0l528 1366h131l526 -1366h-1185zM1053 139l-387 1035l-387 -1035h774z" />
    <glyph glyph-name="product" unicode="&#x220f;" horiz-adv-x="1208" 
d="M154 1366h901v-1366h-152v1223h-598v-1223h-151v1366z" />
    <glyph glyph-name="summation" unicode="&#x2211;" horiz-adv-x="1024" 
d="M606 672l-289 -529h584v-143h-778v82l348 618l-348 584v82h776v-143h-582l289 -490v-61z" />
    <glyph glyph-name="minus" unicode="&#x2212;" horiz-adv-x="1064" 
d="M164 573h737v-118h-737v118z" />
    <glyph glyph-name="radical" unicode="&#x221a;" horiz-adv-x="1034" 
d="M92 526l103 66l299 -432l350 1206h129l-400 -1366h-116z" />
    <glyph glyph-name="infinity" unicode="&#x221e;" horiz-adv-x="1536" 
d="M1061 166q-195 0 -293 219q-98 -219 -293 -219q-137 0 -224 103t-87 243t87 243t224 103q196 0 293 -217q97 217 293 217q137 0 224 -103t87 -243t-87 -243t-224 -103zM287 512q0 -90 51.5 -158.5t136.5 -68.5q38 0 71 15t54 34.5t43 55.5t32 59t27 63q-17 40 -27 63
t-32 59t-43 55.5t-54 34.5t-71 15q-85 0 -136.5 -68.5t-51.5 -158.5zM1249 512q0 90 -51.5 158.5t-136.5 68.5q-38 0 -71 -15t-54 -34.5t-43 -55.5t-32 -59t-27 -63q17 -40 27 -63t32 -59t43 -55.5t54 -34.5t71 -15q85 0 136.5 68.5t51.5 158.5z" />
    <glyph glyph-name="integral" unicode="&#x222b;" horiz-adv-x="735" 
d="M524 1378q55 0 133 -20l-36 -131q-59 16 -97 16q-78 0 -116 -55q-29 -41 -29 -137v-1160q0 -38 -2 -62.5t-18.5 -66.5t-47.5 -75q-75 -78 -200 -78q-83 0 -168 37l59 123q58 -25 109 -25q70 0 102 43q23 31 23 104v1160q0 43 2 69.5t16 71t41 80.5q37 48 96.5 77
t132.5 29z" />
    <glyph glyph-name="uni222C" unicode="&#x222c;" horiz-adv-x="1206" 
d="M995 1378q55 0 133 -20l-36 -131q-59 16 -97 16q-78 0 -116 -55q-29 -41 -29 -137v-1160q0 -38 -2 -62.5t-18.5 -66.5t-47.5 -75q-75 -78 -200 -78q-83 0 -168 37l59 123q58 -25 109 -25q70 0 102 43q23 31 23 104v1160q0 43 2 69.5t16 71t41 80.5q37 48 96.5 77
t132.5 29zM524 1378q55 0 133 -20l-36 -131q-59 16 -97 16q-78 0 -116 -55q-29 -41 -29 -137v-1160q0 -38 -2 -62.5t-18.5 -66.5t-47.5 -75q-75 -78 -200 -78q-83 0 -168 37l59 123q58 -25 109 -25q70 0 102 43q23 31 23 104v1160q0 43 2 69.5t16 71t41 80.5q37 48 96.5 77
t132.5 29z" />
    <glyph glyph-name="uni222D" unicode="&#x222d;" horiz-adv-x="1677" 
d="M1466 1378q55 0 133 -20l-36 -131q-59 16 -97 16q-78 0 -116 -55q-29 -41 -29 -137v-1160q0 -38 -2 -62.5t-18.5 -66.5t-47.5 -75q-75 -78 -200 -78q-83 0 -168 37l59 123q58 -25 109 -25q70 0 102 43q23 31 23 104v1160q0 43 2 69.5t16 71t41 80.5q37 48 96.5 77
t132.5 29zM995 1378q55 0 133 -20l-36 -131q-59 16 -97 16q-78 0 -116 -55q-29 -41 -29 -137v-1160q0 -38 -2 -62.5t-18.5 -66.5t-47.5 -75q-75 -78 -200 -78q-83 0 -168 37l59 123q58 -25 109 -25q70 0 102 43q23 31 23 104v1160q0 43 2 69.5t16 71t41 80.5q37 48 96.5 77
t132.5 29zM524 1378q55 0 133 -20l-36 -131q-59 16 -97 16q-78 0 -116 -55q-29 -41 -29 -137v-1160q0 -38 -2 -62.5t-18.5 -66.5t-47.5 -75q-75 -78 -200 -78q-83 0 -168 37l59 123q58 -25 109 -25q70 0 102 43q23 31 23 104v1160q0 43 2 69.5t16 71t41 80.5q37 48 96.5 77
t132.5 29z" />
    <glyph glyph-name="approxequal" unicode="&#x2248;" horiz-adv-x="1064" 
d="M205 293l-66 84q113 110 230 110q96 0 192 -71q78 -62 139 -62q70 0 160 90l66 -86q-114 -114 -230 -114q-91 0 -192 78q-75 55 -135 55q-77 0 -164 -84zM205 580l-66 84q113 110 230 110q94 0 192 -72q77 -61 139 -61q70 0 160 90l66 -86q-115 -115 -230 -115
q-91 0 -192 78q-76 56 -135 56q-77 0 -164 -84z" />
    <glyph glyph-name="notequal" unicode="&#x2260;" horiz-adv-x="1064" 
d="M735 909h127l-135 -200h174v-107h-246l-118 -176h364v-107h-436l-135 -200h-127l135 200h-174v107h246l118 176h-364v107h436z" />
    <glyph glyph-name="lessequal" unicode="&#x2264;" horiz-adv-x="1064" 
d="M164 309h737v-114h-737v114zM299 662l602 -158v-115l-737 205v135l737 205v-115z" />
    <glyph glyph-name="greaterequal" unicode="&#x2265;" horiz-adv-x="1064" 
d="M901 309v-114h-737v114h737zM766 662l-602 157v115l737 -205v-135l-737 -205v115z" />
    <glyph glyph-name="lozenge" unicode="&#x25ca;" horiz-adv-x="1126" 
d="M274 684l289 -459l289 459l-289 461zM123 684l440 686l441 -686l-441 -684z" />
    <glyph glyph-name="uniFB01" unicode="&#xfb01;" horiz-adv-x="1028" 
d="M92 977h123v123q0 128 73 197t173 69h123v-127h-123q-42 0 -72.5 -35t-30.5 -104v-123h504v-977h-143v852h-361v-852h-143v852h-123v125zM788 1298q43 0 71 -27t28 -69t-28 -69t-71 -27q-40 0 -67 27t-27 69t27 69t67 27z" />
    <glyph glyph-name="uniFB02" unicode="&#xfb02;" horiz-adv-x="1015" 
d="M92 977h123v123q0 128 73 197t173 69h401v-1366h-143v1239h-258q-42 0 -72.5 -35t-30.5 -104v-123h205v-125h-205v-852h-143v852h-123v125z" />
    </font>
</defs>
</svg>
